<?xml version="1.0" encoding="UTF-8"?>
<svg version="1.1" xmlns="http://www.w3.org/2000/svg" width="90" height="85">
<path d="M0 0 C29.7 0 59.4 0 90 0 C90 28.05 90 56.1 90 85 C60.3 85 30.6 85 0 85 C0 56.95 0 28.9 0 0 Z " fill="#51372D" transform="translate(0,0)"/>
<path d="M0 0 C29.7 0 59.4 0 90 0 C90 28.05 90 56.1 90 85 C60.3 85 30.6 85 0 85 C0 56.95 0 28.9 0 0 Z M6 16 C4.73221555 20.42422062 4.78196302 24.64366439 4.875 29.22265625 C4.87113281 30.48210556 4.86726562 31.74155487 4.86328125 33.03916931 C4.86591516 35.695393 4.88601653 38.34425368 4.93652344 40.99926758 C4.9990743 44.38526577 4.99020719 47.76651335 4.95877075 51.15279484 C4.93694169 54.40553386 4.97043182 57.65753947 5 60.91015625 C4.99210449 62.11761002 4.98420898 63.32506378 4.97607422 64.56910706 C5.12004728 70.29790804 5.31619307 74.04232438 9.4375 78.25561523 C13.27754789 81.4893612 15.57002265 82.12553018 20.59545898 82.12939453 C21.76684921 82.13254669 22.93823944 82.13569885 24.14512634 82.13894653 C25.41594559 82.1369223 26.68676483 82.13489807 27.99609375 82.1328125 C29.29571548 82.13376923 30.59533722 82.13472595 31.93434143 82.13571167 C34.68744085 82.13718711 37.44050786 82.13503937 40.19360352 82.13037109 C43.72219397 82.12467949 47.25070827 82.12795015 50.77929592 82.13394356 C54.14323463 82.13842743 57.50715288 82.13528707 60.87109375 82.1328125 C62.13988876 82.13483673 63.40868378 82.13686096 64.71592712 82.13894653 C65.89046951 82.13579437 67.0650119 82.13264221 68.27514648 82.12939453 C69.3105809 82.12859894 70.34601532 82.12780334 71.41282654 82.12698364 C74.11685211 82.11068278 74.11685211 82.11068278 77 81 C77 80.34 77 79.68 77 79 C77.99 78.67 78.98 78.34 80 78 C82.73665366 74.37497202 83.38462269 71.68075958 83.43579102 67.1875 C83.46450035 65.47046875 83.46450035 65.47046875 83.49378967 63.71875 C83.49879738 61.87796875 83.49879738 61.87796875 83.50390625 60 C83.51389145 58.7315625 83.52387665 57.463125 83.53416443 56.15625 C83.54934211 53.47624062 83.55768964 50.79714447 83.5559082 48.1171875 C83.55560294 44.69015109 83.59661357 41.26497418 83.64822483 37.83837891 C83.68967014 34.55898934 83.68785198 31.27961593 83.69140625 28 C83.7129628 26.7728125 83.73451935 25.545625 83.75672913 24.28125 C83.88488218 18.3729872 83.88488218 18.3729872 81.68795776 13.0859375 C79.57638124 11.24746051 77.86309579 10 75 10 C75 9.34 75 8.68 75 8 C69.39 8 63.78 8 58 8 C58 8.66 58 9.32 58 10 C59.40564403 10.92530865 60.85107809 11.79056771 62.3125 12.625 C67.29178593 15.78794263 68.54322272 18.36712785 70 24 C66.04 24.495 66.04 24.495 62 25 C62.103125 23.7625 62.20625 22.525 62.3125 21.25 C62.30643811 17.83109612 62.20304318 17.23887433 59.875 14.5 C56.44507546 12.71047415 54.80330813 12.20764414 51 13 C47.98001951 16.01998049 45.667533 19.05855836 44 23 C43.7525 21.906875 43.505 20.81375 43.25 19.6875 C42.29527538 16.06947185 42.29527538 16.06947185 40.25 14.0625 C37.18415355 12.61473918 35.35602584 12.45207741 32 13 C28.97966263 14.93692369 28.97966263 14.93692369 27 18 C26.58168596 21.71000718 26.58168596 21.71000718 27 25 C24.03 25.33 21.06 25.66 18 26 C20.76786057 18.6928481 23.83818013 13.58090994 31 10 C31 9.34 31 8.68 31 8 C28.51596779 7.78055176 26.05170492 7.62434922 23.5625 7.5 C22.87478516 7.43296875 22.18707031 7.3659375 21.47851562 7.296875 C14.54150794 7.03875378 10.0631445 10.57592576 6 16 Z " fill="#F1E9D9" transform="translate(0,0)"/>
<path d="M0 0 C1.11084961 0.02707031 1.11084961 0.02707031 2.24414062 0.0546875 C4.0591571 0.10152663 5.87350166 0.17326211 7.6875 0.25 C7.6875 0.91 7.6875 1.57 7.6875 2.25 C6.841875 2.78625 5.99625 3.3225 5.125 3.875 C-1.33190645 8.11330115 -5.22941106 12.54699508 -6.86450195 20.16870117 C-7.42384077 23.18856401 -7.89645165 26.20690351 -8.3125 29.25 C-7.6525 29.25 -6.9925 29.25 -6.3125 29.25 C-6.209375 28.46625 -6.10625 27.6825 -6 26.875 C-5.3125 24.25 -5.3125 24.25 -2.3125 22.25 C5.50719817 21.68129468 5.50719817 21.68129468 8.6875 24.25 C9.4375 26.875 9.4375 26.875 9.6875 29.25 C10.6775 28.59 11.6675 27.93 12.6875 27.25 C13.6775 27.25 14.6675 27.25 15.6875 27.25 C15.6875 28.57 15.6875 29.89 15.6875 31.25 C14.3675 31.58 13.0475 31.91 11.6875 32.25 C13.6675 32.58 15.6475 32.91 17.6875 33.25 C16.2838173 36.05736541 14.57966587 36.21708362 11.6875 37.25 C10.2025 37.745 10.2025 37.745 8.6875 38.25 C8.6875 38.91 8.6875 39.57 8.6875 40.25 C8.0275 40.25 7.3675 40.25 6.6875 40.25 C6.3575 41.24 6.0275 42.23 5.6875 43.25 C5.0275 43.25 4.3675 43.25 3.6875 43.25 C4.0175 40.94 4.3475 38.63 4.6875 36.25 C2.7075 36.745 2.7075 36.745 0.6875 37.25 C0.69910156 37.87003906 0.71070312 38.49007812 0.72265625 39.12890625 C0.9428495 60.739301 0.9428495 60.739301 -1.3125 65.25 C1.3275 65.58 3.9675 65.91 6.6875 66.25 C6.1925 65.1671875 6.1925 65.1671875 5.6875 64.0625 C4.68146471 61.23302573 4.51772598 59.22104534 4.6875 56.25 C5.0175 57.24 5.3475 58.23 5.6875 59.25 C6.3475 59.25 7.0075 59.25 7.6875 59.25 C7.6875 57.93 7.6875 56.61 7.6875 55.25 C8.3475 55.25 9.0075 55.25 9.6875 55.25 C9.6875 56.24 9.6875 57.23 9.6875 58.25 C11.01088632 58.93620031 12.34699948 59.59786461 13.6875 60.25 C14.43 60.62125 15.1725 60.9925 15.9375 61.375 C19.63862467 62.55263058 22.84674021 62.94973357 26.6875 62.25 C29.82817097 60.6981268 29.82817097 60.6981268 31.6875 57.25 C32.68332805 52.94343471 33.2562453 48.64622331 33.6875 44.25 C34.3475 44.25 35.0075 44.25 35.6875 44.25 C37.6875 47.25 37.6875 47.25 37.6875 51.25 C38.3475 51.25 39.0075 51.25 39.6875 51.25 C40.21564219 57.16519254 39.57669954 60.68161386 36.19921875 65.6171875 C34.01422424 67.97720741 31.79878232 68.67115678 28.6875 69.25 C28.6875 69.91 28.6875 70.57 28.6875 71.25 C23.65215764 71.3490984 18.61738658 71.4215758 13.58129883 71.46972656 C11.86928414 71.48980505 10.15733772 71.51707392 8.44555664 71.55175781 C5.98045992 71.60044401 3.5162721 71.62300573 1.05078125 71.640625 C-0.09169319 71.67159271 -0.09169319 71.67159271 -1.25724792 71.70318604 C-4.9724662 71.7047442 -7.13274597 71.35923748 -10.33520508 69.41308594 C-12.3125 67.25 -12.3125 67.25 -12.3125 64.25 C-13.6325 64.25 -14.9525 64.25 -16.3125 64.25 C-16.38856971 56.50877171 -16.44110834 48.76763984 -16.47729492 41.02612305 C-16.49238057 38.39262286 -16.51285166 35.75914779 -16.53881836 33.12573242 C-16.57521019 29.34026896 -16.5922289 25.55513773 -16.60546875 21.76953125 C-16.62095261 20.59227982 -16.63643646 19.41502838 -16.65238953 18.20210266 C-16.65261612 17.10133896 -16.65284271 16.00057526 -16.65307617 14.86645508 C-16.65973801 13.90048904 -16.66639984 12.93452301 -16.67326355 11.93928528 C-16.09945149 7.66184563 -14.05517953 5.03683886 -11.14453125 1.953125 C-7.31204342 -0.35165389 -4.37340993 -0.20323263 0 0 Z " fill="#472D24" transform="translate(23.3125,7.75)"/>
<path d="M0 0 C3.76991795 0.70685962 5.40418092 1.74418215 8 4.5625 C8.8125 7.8125 8.8125 7.8125 9 10.5625 C9.226875 10.02625 9.45375 9.49 9.6875 8.9375 C11.47941502 5.69498711 13.3752321 3.1872679 16 0.5625 C19.80330813 -0.22985586 21.44507546 0.27297415 24.875 2.0625 C27.20304318 4.80137433 27.30643811 5.39359612 27.3125 8.8125 C27.209375 10.05 27.10625 11.2875 27 12.5625 C29.64 12.2325 32.28 11.9025 35 11.5625 C34.505 9.0875 34.505 9.0875 34 6.5625 C37.10158921 9.35393029 38.91835482 11.50633057 40 15.5625 C40.15194292 18.57096986 40.11800529 21.55336522 40 24.5625 C39.34 24.5625 38.68 24.5625 38 24.5625 C36.98133771 22.90717377 35.98189187 21.23989862 35 19.5625 C31.61001614 17.86750807 28.24134921 18.15990026 24.6875 19.3125 C22.81469049 20.45600206 22.81469049 20.45600206 22.25 22.6875 C22.1675 23.30625 22.085 23.925 22 24.5625 C21.01 24.5625 20.02 24.5625 19 24.5625 C19 23.9025 19 23.2425 19 22.5625 C17.68 22.5625 16.36 22.5625 15 22.5625 C15 23.8825 15 25.2025 15 26.5625 C16.98 26.8925 18.96 27.2225 21 27.5625 C21 27.8925 21 28.2225 21 28.5625 C18.03 29.0575 18.03 29.0575 15 29.5625 C15.6496875 29.97242187 16.299375 30.38234375 16.96875 30.8046875 C17.8040625 31.34351562 18.639375 31.88234375 19.5 32.4375 C20.3353125 32.97117188 21.170625 33.50484375 22.03125 34.0546875 C22.6809375 34.55226562 23.330625 35.04984375 24 35.5625 C24 36.2225 24 36.8825 24 37.5625 C21.69 37.2325 19.38 36.9025 17 36.5625 C17.495 37.305 17.99 38.0475 18.5 38.8125 C20 41.5625 20 41.5625 20 45.5625 C18.02 46.0575 18.02 46.0575 16 46.5625 C16 47.2225 16 47.8825 16 48.5625 C9.5 52.5625 9.5 52.5625 5 52.5625 C4.67 49.9225 4.34 47.2825 4 44.5625 C2.02 45.0575 2.02 45.0575 0 45.5625 C-0.22036864 41.70604879 0.39644899 39.07026784 2 35.5625 C0.02 36.2225 -1.96 36.8825 -4 37.5625 C-3.62724214 34.86000549 -3.21551151 33.76314865 -1.1875 31.875 C1 30.5625 1 30.5625 5 29.5625 C2.03 29.2325 -0.94 28.9025 -4 28.5625 C0 26.5625 0 26.5625 4 26.5625 C4 25.2425 4 23.9225 4 22.5625 C2.02 23.2225 0.04 23.8825 -2 24.5625 C-2.495 22.0875 -2.495 22.0875 -3 19.5625 C-7.67482292 18.06655667 -12.35601989 18.01450663 -17 19.5625 C-17.33 21.2125 -17.66 22.8625 -18 24.5625 C-18.66 24.5625 -19.32 24.5625 -20 24.5625 C-19.65226572 17.93156706 -19.03910346 12.508572 -16 6.5625 C-15.67 7.2225 -15.34 7.8825 -15 8.5625 C-15.9375 11.1875 -15.9375 11.1875 -17 13.5625 C-12.545 13.0675 -12.545 13.0675 -8 12.5625 C-8.103125 11.510625 -8.20625 10.45875 -8.3125 9.375 C-8 5.5625 -8 5.5625 -5.875 2.625 C-3 0.5625 -3 0.5625 0 0 Z " fill="#B2B5B9" transform="translate(35,12.4375)"/>
<path d="M0 0 C5.61 0 11.22 0 17 0 C17 0.66 17 1.32 17 2 C17.8971875 2.37125 17.8971875 2.37125 18.8125 2.75 C21.51052946 4.29173112 22.47669346 5.26497235 24 8 C24.36447337 10.92621112 24.28266857 13.80709513 24.1875 16.75 C24.16719727 17.93916016 24.16719727 17.93916016 24.14648438 19.15234375 C24.11125223 21.10185564 24.05744821 23.05101626 24 25 C23.34 25 22.68 25 22 25 C22 28.3 22 31.6 22 35 C21.01 35 20.02 35 19 35 C19.01160156 35.76441406 19.02320312 36.52882812 19.03515625 37.31640625 C19.10772735 45.93163293 18.66488364 54.41587725 18 63 C16.02 63 14.04 63 12 63 C12.04125 61.906875 12.0825 60.81375 12.125 59.6875 C12.1490507 55.18200138 11.3111563 51.00005884 10.33984375 46.61328125 C9.87288016 43.02249223 10.38534422 40.22931156 12 37 C9.36 36.34 6.72 35.68 4 35 C4 36.98 4 38.96 4 41 C0.52709591 40.36276989 -1.84354753 38.97562783 -4.75 37 C-5.54921875 36.46375 -6.3484375 35.9275 -7.171875 35.375 C-7.77515625 34.92125 -8.3784375 34.4675 -9 34 C-9 33.67 -9 33.34 -9 33 C-6.525 32.505 -6.525 32.505 -4 32 C-5.32 31.67 -6.64 31.34 -8 31 C-8 29.68 -8 28.36 -8 27 C-6.68 27 -5.36 27 -4 27 C-4 27.66 -4 28.32 -4 29 C-3.01 29 -2.02 29 -1 29 C-0.9175 28.21625 -0.835 27.4325 -0.75 26.625 C0 24 0 24 1.6875 22.6875 C4.69296676 21.79398285 6.87438926 21.61727215 10 22 C12.875 23.8125 12.875 23.8125 15 26 C15 26.99 15 27.98 15 29 C15.66 29 16.32 29 17 29 C16.33515912 19.47615437 13.60784138 12.96373948 7 6 C4.67983817 4.2457313 2.68176071 3.17327031 0 2 C0 1.34 0 0.68 0 0 Z " fill="#433632" transform="translate(58,8)"/>
<path d="M0 0 C1.32 0 2.64 0 4 0 C3.67 2.31 3.34 4.62 3 7 C3.598125 6.505 4.19625 6.01 4.8125 5.5 C7.66580118 3.54345062 9.59804643 4 13 4 C12.67 6.97 12.34 9.94 12 13 C12.99 13 13.98 13 15 13 C15.33 15.64 15.66 18.28 16 21 C17.0725 20.525625 18.145 20.05125 19.25 19.5625 C21.80839865 18.46233668 24.25835017 17.54832997 27 17 C27 16.34 27 15.68 27 15 C28.32 14.67 29.64 14.34 31 14 C29.80100302 10.9168649 28.52299523 7.93720508 27 5 C30.28696233 4.20046862 31.71023192 3.90341064 35 5 C35.66 4.67 36.32 4.34 37 4 C37.65213292 1.97536745 37.65213292 1.97536745 38 0 C38.99 0 39.98 0 41 0 C42.97758957 7.26359942 44.29001145 14.24786632 44.75 21.75 C44.79439209 22.45318359 44.83878418 23.15636719 44.88452148 23.88085938 C44.97055304 25.58550411 44.99150849 27.29320681 45 29 C44 30 44 30 41.93359375 30.09765625 C41.10988281 30.08605469 40.28617188 30.07445313 39.4375 30.0625 C38.61121094 30.05347656 37.78492188 30.04445313 36.93359375 30.03515625 C35.97646484 30.01775391 35.97646484 30.01775391 35 30 C35.28875 29.38125 35.5775 28.7625 35.875 28.125 C37.41711805 23.84133876 38.18398547 19.47071788 39 15 C38.34 15 37.68 15 37 15 C36.34 12.69 35.68 10.38 35 8 C34.34 8 33.68 8 33 8 C33.02320313 8.59167969 33.04640625 9.18335938 33.0703125 9.79296875 C33.21276924 16.03053874 32.71906128 19.72477183 28.875 24.8125 C25.53976351 27.35017993 23.97517687 27.57115859 19.921875 27.296875 C15.62568162 26.63323537 12.18785991 24.95172214 9 22 C9 21.01 9 20.02 9 19 C8.34 19 7.68 19 7 19 C7 20.32 7 21.64 7 23 C6.34 23 5.68 23 5 23 C5.33 25.31 5.66 27.62 6 30 C3.36 29.67 0.72 29.34 -2 29 C-1.8613598 24.7289011 -1.71286099 20.45820108 -1.5625 16.1875 C-1.52318359 14.97255859 -1.48386719 13.75761719 -1.44335938 12.50585938 C-1.38051758 10.76079102 -1.38051758 10.76079102 -1.31640625 8.98046875 C-1.27974854 7.90692139 -1.24309082 6.83337402 -1.20532227 5.72729492 C-1 3 -1 3 0 0 Z " fill="#764F3E" transform="translate(24,44)"/>
<path d="M0 0 C2.94820793 2.39541894 4.67409423 4.30518582 5.5 8.125 C5.5 9.115 5.5 10.105 5.5 11.125 C2.79120665 12.47939668 0.49066732 12.19001451 -2.5 12.125 C-2.5 9.485 -2.5 6.845 -2.5 4.125 C-3.49 3.795 -4.48 3.465 -5.5 3.125 C-5.5 2.465 -5.5 1.805 -5.5 1.125 C-8.35784653 0.88684612 -10.69887429 0.69652953 -13.5 1.125 C-16.81634935 4.10121096 -17.99780117 6.73076023 -18.5 11.125 C-19.49 11.455 -20.48 11.785 -21.5 12.125 C-21.5825 10.866875 -21.665 9.60875 -21.75 8.3125 C-22.11825027 5.53834796 -22.31111345 4.36677479 -24.0625 2.125 C-27.64483302 0.65532491 -30.64248533 0.93212427 -34.5 1.125 C-36.62046792 4.65911321 -37.03199289 8.06893835 -37.5 12.125 C-40.47 12.455 -43.44 12.785 -46.5 13.125 C-44.9227577 6.71745315 -43.16492814 2.70798994 -37.9375 -1.43359375 C-26.31589597 -8.30598459 -10.97420612 -7.69980466 0 0 Z " fill="#E8E9E9" transform="translate(64.5,12.875)"/>
<path d="M0 0 C0.99 0.495 0.99 0.495 2 1 C2.09287747 8.45852442 2.16385431 15.91692317 2.20724869 23.37590981 C2.2280811 26.83984499 2.25631739 30.30338313 2.30175781 33.76708984 C2.35372585 37.75353159 2.37298133 41.73981525 2.390625 45.7265625 C2.41127014 46.96427399 2.43191528 48.20198547 2.45318604 49.47720337 C2.45602798 60.39585208 2.45602798 60.39585208 -2 65 C-2.66 65 -3.32 65 -4 65 C-4 65.66 -4 66.32 -4 67 C-7.10838617 68.03612872 -9.36678915 68.16401547 -12.62963867 68.22460938 C-13.78481491 68.24712769 -14.93999115 68.269646 -16.13017273 68.29284668 C-21.41819579 68.36391121 -26.70604442 68.42154098 -31.99438477 68.45996094 C-34.7814724 68.48220438 -37.56721409 68.52392506 -40.35375977 68.58300781 C-44.37536801 68.66809117 -48.39552193 68.6952815 -52.41796875 68.71875 C-53.65782028 68.75174194 -54.89767181 68.78473389 -56.1750946 68.81872559 C-62.23303848 68.80476221 -66.10172552 68.58232343 -70.78637695 64.51757812 C-71.88812808 63.37370415 -72.96833274 62.20746258 -74 61 C-74.33 60.67 -74.66 60.34 -75 60 C-75.09376053 58.18944975 -75.1174411 56.37522799 -75.11352539 54.56225586 C-75.11344986 53.40112778 -75.11337433 52.23999969 -75.11329651 51.04368591 C-75.10813522 49.780168 -75.10297394 48.51665009 -75.09765625 47.21484375 C-75.0962413 45.92888809 -75.09482635 44.64293243 -75.09336853 43.31800842 C-75.08954418 39.89356557 -75.07971462 36.46916491 -75.06866455 33.04473877 C-75.05844864 29.55261811 -75.05387053 26.06049066 -75.04882812 22.56835938 C-75.03809227 15.71222222 -75.02101684 8.85611313 -75 2 C-74.34 1.67 -73.68 1.34 -73 1 C-73.33 19.81 -73.66 38.62 -74 58 C-72.68 58 -71.36 58 -70 58 C-69.67 58.99 -69.34 59.98 -69 61 C-65.87728952 64.04746478 -63.57099783 64.3749869 -59.28515625 64.37231445 C-58.13716553 64.37854324 -56.9891748 64.38477203 -55.80639648 64.39118958 C-54.57091064 64.38197983 -53.3354248 64.37277008 -52.0625 64.36328125 C-50.15416382 64.36402901 -50.15416382 64.36402901 -48.20727539 64.36479187 C-45.51710735 64.36245107 -42.82772651 64.35430099 -40.13769531 64.33618164 C-36.69435522 64.31349462 -33.25145396 64.31295168 -29.80805969 64.31969929 C-26.5178402 64.32384935 -23.22769824 64.31186335 -19.9375 64.30078125 C-18.70201416 64.30169266 -17.46652832 64.30260406 -16.19360352 64.30354309 C-15.04561279 64.29401108 -13.89762207 64.28447906 -12.71484375 64.2746582 C-11.20071899 64.26774712 -11.20071899 64.26774712 -9.65600586 64.26069641 C-6.95922387 63.99599768 -5.30699558 63.38018179 -3 62 C-3 60.35 -3 58.7 -3 57 C-1.68 56.67 -0.36 56.34 1 56 C0.67 37.52 0.34 19.04 0 0 Z " fill="#938B85" transform="translate(81,14)"/>
<path d="M0 0 C0.66 0 1.32 0 2 0 C4 3 4 3 4 7 C4.66 7 5.32 7 6 7 C6.52814219 12.91519254 5.88919954 16.43161386 2.51171875 21.3671875 C0.32672424 23.72720741 -1.88871768 24.42115678 -5 25 C-5 25.66 -5 26.32 -5 27 C-7.39706123 27.10854617 -9.78915838 27.18753157 -12.1875 27.25 C-12.86103516 27.28351563 -13.53457031 27.31703125 -14.22851562 27.3515625 C-17.88290135 27.42286759 -19.82939545 27.10889652 -22.9375 25.125 C-25.01281376 22.98679795 -25.6872469 21.91902894 -26 19 C-26.66 19 -27.32 19 -28 19 C-28.33 16.69 -28.66 14.38 -29 12 C-28.67 12.99 -28.34 13.98 -28 15 C-27.34 15 -26.68 15 -26 15 C-26 13.68 -26 12.36 -26 11 C-25.34 11 -24.68 11 -24 11 C-24 11.99 -24 12.98 -24 14 C-22.67661368 14.68620031 -21.34050052 15.34786461 -20 16 C-19.2575 16.37125 -18.515 16.7425 -17.75 17.125 C-14.04887533 18.30263058 -10.84075979 18.69973357 -7 18 C-3.85932903 16.4481268 -3.85932903 16.4481268 -2 13 C-1.00417195 8.69343471 -0.4312547 4.39622331 0 0 Z " fill="#191410" transform="translate(57,52)"/>
<path d="M0 0 C1.07314453 0.00314209 1.07314453 0.00314209 2.16796875 0.00634766 C8.09455339 0.18409092 11.13636908 1.24631253 15.1875 5.5 C15.1875 6.16 15.1875 6.82 15.1875 7.5 C12.8775 7.17 10.5675 6.84 8.1875 6.5 C8.6825 7.2425 9.1775 7.985 9.6875 8.75 C11.1875 11.5 11.1875 11.5 11.1875 15.5 C9.8675 15.83 8.5475 16.16 7.1875 16.5 C7.1875 17.16 7.1875 17.82 7.1875 18.5 C0.6875 22.5 0.6875 22.5 -3.8125 22.5 C-4.1425 19.86 -4.4725 17.22 -4.8125 14.5 C-6.1325 14.83 -7.4525 15.16 -8.8125 15.5 C-9.03286864 11.64354879 -8.41605101 9.00776784 -6.8125 5.5 C-8.7925 6.16 -10.7725 6.82 -12.8125 7.5 C-12.46576851 4.98619669 -12.0396562 3.73398796 -10.25390625 1.89453125 C-6.89539958 -0.02384776 -3.76945808 -0.03204732 0 0 Z " fill="#EBE4AD" transform="translate(43.8125,42.5)"/>
<path d="M0 0 C1.40742022 2.81484045 0.66652164 4.56936113 0.0625 7.625 C-0.13214844 8.62789062 -0.32679687 9.63078125 -0.52734375 10.6640625 C-0.76130859 11.82035156 -0.76130859 11.82035156 -1 13 C-0.34 13 0.32 13 1 13 C1.1546875 11.824375 1.1546875 11.824375 1.3125 10.625 C2 8 2 8 5 6 C12.81969817 5.43129468 12.81969817 5.43129468 16 8 C16.75 10.625 16.75 10.625 17 13 C17.99 12.34 18.98 11.68 20 11 C20.99 11 21.98 11 23 11 C23 12.32 23 13.64 23 15 C21.68 15.33 20.36 15.66 19 16 C20.98 16.33 22.96 16.66 25 17 C24.67 17.66 24.34 18.32 24 19 C22.73542969 18.87431641 22.73542969 18.87431641 21.4453125 18.74609375 C20.34960938 18.64425781 19.25390625 18.54242188 18.125 18.4375 C17.03445312 18.33308594 15.94390625 18.22867188 14.8203125 18.12109375 C12.04847977 17.77360596 12.04847977 17.77360596 10 19 C7.25 18.6171875 7.25 18.6171875 4 17.875 C2.9275 17.64554688 1.855 17.41609375 0.75 17.1796875 C-2 16 -2 16 -3.25 13.5703125 C-3.4975 12.72210938 -3.745 11.87390625 -4 11 C-4.66 10.01 -5.32 9.02 -6 8 C-6.07905064 5.66800612 -6.08798769 3.33167378 -6 1 C-5.38125 1.20625 -4.7625 1.4125 -4.125 1.625 C-3.073125 1.810625 -3.073125 1.810625 -2 2 C-1.34 1.34 -0.68 0.68 0 0 Z " fill="#4E4150" transform="translate(16,24)"/>
<path d="M0 0 C0 1.65 0 3.3 0 5 C-0.99 5 -1.98 5 -3 5 C-2.98839844 5.76441406 -2.97679688 6.52882813 -2.96484375 7.31640625 C-2.89227265 15.93163293 -3.33511636 24.41587725 -4 33 C-5.98 33 -7.96 33 -10 33 C-9.95875 31.906875 -9.9175 30.81375 -9.875 29.6875 C-9.8509493 25.18200138 -10.6888437 21.00005884 -11.66015625 16.61328125 C-12.12711984 13.02249223 -11.61465578 10.22931156 -10 7 C-10.99 6.01 -11.98 5.02 -13 4 C-11.02144235 3.33152803 -9.04213695 2.66526889 -7.0625 2 C-5.96035156 1.62875 -4.85820313 1.2575 -3.72265625 0.875 C-1 0 -1 0 0 0 Z " fill="#442B21" transform="translate(80,38)"/>
<path d="M0 0 C3.63 0.33 7.26 0.66 11 1 C9.71034824 2.37562854 8.37310707 3.70766393 7 5 C6.34 5 5.68 5 5 5 C5 5.66 5 6.32 5 7 C4.34 7 3.68 7 3 7 C2.67 7.99 2.34 8.98 2 10 C1.34 10 0.68 10 0 10 C0.33 7.69 0.66 5.38 1 3 C-0.32 3.33 -1.64 3.66 -3 4 C-2.98839844 4.62003906 -2.97679687 5.24007812 -2.96484375 5.87890625 C-2.7446505 27.489301 -2.7446505 27.489301 -5 32 C-2.36 32.33 0.28 32.66 3 33 C2.505 31.515 2.505 31.515 2 30 C2.66 30 3.32 30 4 30 C4.2475 30.5775 4.495 31.155 4.75 31.75 C6.15453063 34.52082547 6.15453063 34.52082547 10 38 C3.07 38 -3.86 38 -11 38 C-11 37.67 -11 37.34 -11 37 C-8.03 37 -5.06 37 -2 37 C-2 36.34 -2 35.68 -2 35 C-4.64 34.01 -7.28 33.02 -10 32 C-9.505 31.525625 -9.01 31.05125 -8.5 30.5625 C-6.3010867 26.80602311 -6.60999856 23.26001576 -7 19 C-7.18046875 18.33097656 -7.3609375 17.66195312 -7.546875 16.97265625 C-8.05907368 14.74282578 -7.88070162 13.18277432 -7.5 10.9375 C-6.7244157 7.10472515 -6.7244157 7.10472515 -8 4 C-8.66 4 -9.32 4 -10 4 C-10 3.34 -10 2.68 -10 2 C-6.7 1.67 -3.4 1.34 0 1 C0 0.67 0 0.34 0 0 Z " fill="#6D4A3A" transform="translate(27,41)"/>
<path d="M0 0 C1.32 0 2.64 0 4 0 C3.67 2.31 3.34 4.62 3 7 C3.598125 6.505 4.19625 6.01 4.8125 5.5 C7.66580118 3.54345062 9.59804643 4 13 4 C12.67 6.97 12.34 9.94 12 13 C12.99 13 13.98 13 15 13 C15.33 15.64 15.66 18.28 16 21 C15.67 20.34 15.34 19.68 15 19 C14.34 19 13.68 19 13 19 C13 19.66 13 20.32 13 21 C12.01 21 11.02 21 10 21 C8.95023036 17.85069107 8.89868405 15.61185544 8.9375 12.3125 C8.94652344 11.31863281 8.95554687 10.32476562 8.96484375 9.30078125 C8.97644531 8.54152344 8.98804688 7.78226563 9 7 C8.34 7 7.68 7 7 7 C6.67 8.32 6.34 9.64 6 11 C5.01 11 4.02 11 3 11 C2.68903383 17.47270316 2.49644519 22.30672343 6 28 C6 28.66 6 29.32 6 30 C3.36 29.67 0.72 29.34 -2 29 C-1.8613598 24.7289011 -1.71286099 20.45820108 -1.5625 16.1875 C-1.52318359 14.97255859 -1.48386719 13.75761719 -1.44335938 12.50585938 C-1.38051758 10.76079102 -1.38051758 10.76079102 -1.31640625 8.98046875 C-1.27974854 7.90692139 -1.24309082 6.83337402 -1.20532227 5.72729492 C-1 3 -1 3 0 0 Z " fill="#825845" transform="translate(24,44)"/>
<path d="M0 0 C1.65 0.33 3.3 0.66 5 1 C5 1.66 5 2.32 5 3 C5.66 3 6.32 3 7 3 C7.33 2.01 7.66 1.02 8 0 C9.65 0 11.3 0 13 0 C13.33 0.99 13.66 1.98 14 3 C14.99 2.67 15.98 2.34 17 2 C17.33 3.98 17.66 5.96 18 8 C17.01 8 16.02 8 15 8 C15 7.34 15 6.68 15 6 C13.68 6 12.36 6 11 6 C11 7.32 11 8.64 11 10 C13.97 10.495 13.97 10.495 17 11 C17 11.33 17 11.66 17 12 C15.02 12.33 13.04 12.66 11 13 C11 13.33 11 13.66 11 14 C7.7 14 4.4 14 1 14 C1 13.67 1 13.34 1 13 C-1.97 12.67 -4.94 12.34 -8 12 C-4 10 -4 10 0 10 C0 8.68 0 7.36 0 6 C-0.99 5.67 -1.98 5.34 -3 5 C-2.34 4.67 -1.68 4.34 -1 4 C-0.34786708 1.97536745 -0.34786708 1.97536745 0 0 Z " fill="#747677" transform="translate(39,29)"/>
<path d="M0 0 C5.61 0 11.22 0 17 0 C17 0.66 17 1.32 17 2 C17.61875 2.28875 18.2375 2.5775 18.875 2.875 C21 4 21 4 23 6 C23.1953125 8.8203125 23.1953125 8.8203125 23.125 12.125 C23.10695313 13.22070312 23.08890625 14.31640625 23.0703125 15.4453125 C23.04710938 16.28835937 23.02390625 17.13140625 23 18 C22.34 17.34 21.68 16.68 21 16 C21 15.01 21 14.02 21 13 C19.35 13 17.7 13 16 13 C16 13.66 16 14.32 16 15 C12.53688175 13.84562725 12.19172001 13.12735136 10.25 10.1875 C7.29987089 6.05880173 4.54510821 4.18165194 0 2 C0 1.34 0 0.68 0 0 Z " fill="#331D19" transform="translate(58,8)"/>
<path d="M0 0 C0.66 0 1.32 0 2 0 C2.33 4.62 2.66 9.24 3 14 C3.99 14 4.98 14 6 14 C6 13.34 6 12.68 6 12 C6.66 12 7.32 12 8 12 C8 12.66 8 13.32 8 14 C11.57266536 13.0893206 14.59395663 12.24916297 17.75 10.3125 C18.4925 9.879375 19.235 9.44625 20 9 C20.99 9.33 21.98 9.66 23 10 C21.88333826 13.34998521 21.25305075 13.79340222 18.4375 15.6875 C17.47650391 16.34298828 17.47650391 16.34298828 16.49609375 17.01171875 C16.00238281 17.33785156 15.50867188 17.66398437 15 18 C16.32 18.66 17.64 19.32 19 20 C12.23047703 20.22947535 7.20235759 19.81699777 2 15 C2 14.01 2 13.02 2 12 C1.34 12 0.68 12 0 12 C0 13.32 0 14.64 0 16 C-1.32 16.33 -2.64 16.66 -4 17 C-5.50156874 13.99686252 -5.09281204 11.20932478 -5.0625 7.875 C-5.05347656 6.59367187 -5.04445313 5.31234375 -5.03515625 3.9921875 C-5.02355469 3.00476562 -5.01195313 2.01734375 -5 1 C-4.67 1.99 -4.34 2.98 -4 4 C-3.01 3.67 -2.02 3.34 -1 3 C-0.67 2.01 -0.34 1.02 0 0 Z " fill="#6A5730" transform="translate(31,51)"/>
<path d="M0 0 C0.66 0.33 1.32 0.66 2 1 C2.09287747 8.45852442 2.16385431 15.91692317 2.20724869 23.37590981 C2.2280811 26.83984499 2.25631739 30.30338313 2.30175781 33.76708984 C2.35372585 37.75353159 2.37298133 41.73981525 2.390625 45.7265625 C2.41127014 46.96427399 2.43191528 48.20198547 2.45318604 49.47720337 C2.45602798 60.39585208 2.45602798 60.39585208 -2 65 C-2.66 65 -3.32 65 -4 65 C-4 65.66 -4 66.32 -4 67 C-7.63233102 68.21077701 -10.95121987 68.12444164 -14.73046875 68.09765625 C-15.48088943 68.0962413 -16.23131012 68.09482635 -17.00447083 68.09336853 C-19.3988546 68.0877756 -21.79314453 68.07522444 -24.1875 68.0625 C-25.81184761 68.05748408 -27.43619668 68.05292134 -29.06054688 68.04882812 C-33.04040069 68.03780848 -37.02018444 68.02054873 -41 68 C-41 67.67 -41 67.34 -41 67 C-37.7 67 -34.4 67 -31 67 C-31 66.34 -31 65.68 -31 65 C-30.29391602 64.98018066 -29.58783203 64.96036133 -28.86035156 64.93994141 C-25.65653006 64.84459585 -22.45335199 64.73495487 -19.25 64.625 C-17.58324219 64.57859375 -17.58324219 64.57859375 -15.8828125 64.53125 C-14.81289062 64.49257812 -13.74296875 64.45390625 -12.640625 64.4140625 C-11.65610352 64.3826416 -10.67158203 64.3512207 -9.65722656 64.31884766 C-6.99147799 63.99897742 -5.29383595 63.35631379 -3 62 C-3 60.35 -3 58.7 -3 57 C-1.02 56.505 -1.02 56.505 1 56 C0.67 37.52 0.34 19.04 0 0 Z " fill="#847C77" transform="translate(81,14)"/>
<path d="M0 0 C0.66 0 1.32 0 2 0 C2 0.99 2 1.98 2 3 C2.5775 3.268125 3.155 3.53625 3.75 3.8125 C6 5 6 5 7.75 6.5625 C11.07155174 8.6846025 14.09220436 8.67435036 18 9 C18.12375 9.639375 18.2475 10.27875 18.375 10.9375 C18.58125 11.618125 18.7875 12.29875 19 13 C19.66 13.33 20.32 13.66 21 14 C21 14.66 21 15.32 21 16 C18.60293877 16.10854617 16.21084162 16.18753157 13.8125 16.25 C13.13896484 16.28351563 12.46542969 16.31703125 11.77148438 16.3515625 C8.11709865 16.42286759 6.17060455 16.10889652 3.0625 14.125 C0.98718624 11.98679795 0.3127531 10.91902894 0 8 C-0.66 8 -1.32 8 -2 8 C-2.33 5.69 -2.66 3.38 -3 1 C-2.67 1.99 -2.34 2.98 -2 4 C-1.34 4 -0.68 4 0 4 C0 2.68 0 1.36 0 0 Z " fill="#15110F" transform="translate(31,63)"/>
<path d="M0 0 C2.89648251 2.59158961 3.87307907 4.2226093 4.5 8.0625 C4 11 4 11 2.375 13.375 C-0.6037896 15.4131192 -2.46322336 15.32152515 -6 15 C-6 14.34 -6 13.68 -6 13 C-6.99 12.67 -7.98 12.34 -9 12 C-10.01661577 7.62855218 -10.16888759 4.99531924 -8 1 C-5.12529507 -0.43735246 -3.18105412 -0.38172649 0 0 Z " fill="#24164E" transform="translate(38,13)"/>
<path d="M0 0 C0.74958984 0.00902344 1.49917969 0.01804687 2.27148438 0.02734375 C4.11862654 0.05087422 5.96560412 0.08674439 7.8125 0.125 C7.8125 0.785 7.8125 1.445 7.8125 2.125 C6.42044237 3.04172088 5.02501338 3.95372072 3.61328125 4.83984375 C0.31197253 7.19587535 -2.40294991 10.19216026 -5.1875 13.125 C-5.5175 12.135 -5.8475 11.145 -6.1875 10.125 C-7.321875 10.62 -8.45625 11.115 -9.625 11.625 C-13.1875 13.125 -13.1875 13.125 -14.1875 13.125 C-14.51271241 8.4636221 -14.00701666 5.88435554 -11.1875 2.125 C-7.39586973 -0.40275351 -4.37875969 -0.09943035 0 0 Z " fill="#221716" transform="translate(23.1875,7.875)"/>
<path d="M0 0 C0.33 0 0.66 0 1 0 C1.12117187 1.07121094 1.24234375 2.14242188 1.3671875 3.24609375 C1.53597601 4.64328752 1.70527313 6.04041991 1.875 7.4375 C1.95363281 8.14455078 2.03226563 8.85160156 2.11328125 9.58007812 C2.33927676 11.39673432 2.66300727 13.20062522 3 15 C3.66 15.33 4.32 15.66 5 16 C5.19222407 20.09292917 5.3709507 24.18620091 5.53710938 28.28027344 C5.59555965 29.67333833 5.65771628 31.0662528 5.72363281 32.45898438 C5.81766015 34.45920227 5.89732059 36.46007932 5.9765625 38.4609375 C6.02893066 39.66540527 6.08129883 40.86987305 6.13525391 42.11083984 C6 45 6 45 4 47 C4 46.01 4 45.02 4 44 C2.68 44 1.36 44 0 44 C0 29.48 0 14.96 0 0 Z " fill="#59453D" transform="translate(7,28)"/>
<path d="M0 0 C3.97724872 0.46791161 5.52534846 1.39965416 8.1875 4.375 C8.8125 7.3125 8.8125 7.3125 8.1875 10.375 C5.70147551 13.73844489 4.27324477 15.17557749 0.125 15.9375 C-3.4410474 15.25463986 -4.66513505 14.26568358 -6.8125 11.375 C-6.8125 10.385 -6.8125 9.395 -6.8125 8.375 C-4.5025 8.705 -2.1925 9.035 0.1875 9.375 C-1.9510485 7.2364515 -2.94525314 6.94844937 -5.8125 6.375 C-5.01701832 2.39759158 -4.32665226 0.57688697 0 0 Z " fill="#1433EA" transform="translate(53.8125,12.625)"/>
<path d="M0 0 C1.07314453 0.00314209 1.07314453 0.00314209 2.16796875 0.00634766 C8.09455339 0.18409092 11.13636908 1.24631253 15.1875 5.5 C15.1875 6.16 15.1875 6.82 15.1875 7.5 C12.8775 7.17 10.5675 6.84 8.1875 6.5 C7.8575 7.49 7.5275 8.48 7.1875 9.5 C6.1975 8.84 5.2075 8.18 4.1875 7.5 C1.67165109 7.25849227 1.67165109 7.25849227 -1 7.375 C-2.35158203 7.40207031 -2.35158203 7.40207031 -3.73046875 7.4296875 C-4.76107422 7.46449219 -4.76107422 7.46449219 -5.8125 7.5 C-6.1425 8.16 -6.4725 8.82 -6.8125 9.5 C-6.8125 8.18 -6.8125 6.86 -6.8125 5.5 C-8.7925 6.16 -10.7725 6.82 -12.8125 7.5 C-12.46576851 4.98619669 -12.0396562 3.73398796 -10.25390625 1.89453125 C-6.89539958 -0.02384776 -3.76945808 -0.03204732 0 0 Z " fill="#E2D6C0" transform="translate(43.8125,42.5)"/>
<path d="M0 0 C0.33 0.66 0.66 1.32 1 2 C0.0625 4.625 0.0625 4.625 -1 7 C3.455 6.505 3.455 6.505 8 6 C8 6.99 8 7.98 8 9 C13.445 10.485 13.445 10.485 19 12 C19 12.99 19 13.98 19 15 C18.34 15 17.68 15 17 15 C16.67 15.99 16.34 16.98 16 18 C15.34 18 14.68 18 14 18 C13.505 15.525 13.505 15.525 13 13 C8.32517708 11.50405667 3.64398011 11.45200663 -1 13 C-1.33 14.65 -1.66 16.3 -2 18 C-2.66 18 -3.32 18 -4 18 C-3.65226572 11.36906706 -3.03910346 5.946072 0 0 Z " fill="#B9BDBD" transform="translate(19,19)"/>
<path d="M0 0 C0.66 0 1.32 0 2 0 C2 12.21 2 24.42 2 37 C0.02 37.495 0.02 37.495 -2 38 C-2 39.65 -2 41.3 -2 43 C-2.33 43 -2.66 43 -3 43 C-3 38.05 -3 33.1 -3 28 C-2.01 27.67 -1.02 27.34 0 27 C0 18.09 0 9.18 0 0 Z " fill="#5F4E47" transform="translate(80,33)"/>
<path d="M0 0 C0.99 0.66 1.98 1.32 3 2 C3.40843923 4.71203652 3.13336867 7.2437142 3 10 C-1.29 9.67 -5.58 9.34 -10 9 C-9.6875 5.625 -9.6875 5.625 -9 2 C-5.53001271 -0.31332486 -4.07490752 -0.33957563 0 0 Z " fill="#020249" transform="translate(68,30)"/>
<path d="M0 0 C2.69082872 0.17635452 5.32851446 0.61835921 8 1 C8.33 2.32 8.66 3.64 9 5 C7.68 4.67 6.36 4.34 5 4 C5.02320313 4.59167969 5.04640625 5.18335938 5.0703125 5.79296875 C5.20402796 11.64779586 4.87634036 15.52055024 1.25 20.3125 C-1.64284949 22.48213712 -3.46835953 22.32105822 -7 22 C-2.375 17.125 -2.375 17.125 1 16 C1 15.01 1 14.02 1 13 C0.34 12.34 -0.32 11.68 -1 11 C0.32 10.67 1.64 10.34 3 10 C1.80100302 6.9168649 0.52299523 3.93720508 -1 1 C-0.67 0.67 -0.34 0.34 0 0 Z " fill="#947F65" transform="translate(52,48)"/>
<path d="M0 0 C3.63 0.33 7.26 0.66 11 1 C9.71034824 2.37562854 8.37310707 3.70766393 7 5 C6.34 5 5.68 5 5 5 C5 5.66 5 6.32 5 7 C4.34 7 3.68 7 3 7 C2.67 7.99 2.34 8.98 2 10 C1.34 10 0.68 10 0 10 C0.33 7.69 0.66 5.38 1 3 C-0.32 3.33 -1.64 3.66 -3 4 C-3.12375 4.639375 -3.2475 5.27875 -3.375 5.9375 C-3.58125 6.948125 -3.7875 7.95875 -4 9 C-4.14566406 9.75925781 -4.29132812 10.51851562 -4.44140625 11.30078125 C-4.60511719 12.10902344 -4.76882812 12.91726562 -4.9375 13.75 C-5.09089844 14.52859375 -5.24429687 15.3071875 -5.40234375 16.109375 C-5.59957031 16.73328125 -5.79679687 17.3571875 -6 18 C-6.66 18.33 -7.32 18.66 -8 19 C-7.91621094 18.16855469 -7.83242188 17.33710937 -7.74609375 16.48046875 C-7.64425781 15.39378906 -7.54242187 14.30710937 -7.4375 13.1875 C-7.33308594 12.10855469 -7.22867187 11.02960937 -7.12109375 9.91796875 C-6.82422391 6.93517546 -6.82422391 6.93517546 -8 4 C-8.66 4 -9.32 4 -10 4 C-10 3.34 -10 2.68 -10 2 C-6.7 1.67 -3.4 1.34 0 1 C0 0.67 0 0.34 0 0 Z " fill="#4C3D35" transform="translate(27,41)"/>
<path d="M0 0 C0.66 0 1.32 0 2 0 C2.06058594 0.74765625 2.12117188 1.4953125 2.18359375 2.265625 C2.26738281 3.25046875 2.35117187 4.2353125 2.4375 5.25 C2.51871094 6.22453125 2.59992187 7.1990625 2.68359375 8.203125 C2.95074584 10.56461753 3.35371968 12.71901065 4 15 C3.34 15 2.68 15 2 15 C2 14.01 2 13.02 2 12 C1.34 12 0.68 12 0 12 C0 13.32 0 14.64 0 16 C-1.32 16.33 -2.64 16.66 -4 17 C-5.50156874 13.99686252 -5.09281204 11.20932478 -5.0625 7.875 C-5.05347656 6.59367187 -5.04445313 5.31234375 -5.03515625 3.9921875 C-5.02355469 3.00476562 -5.01195313 2.01734375 -5 1 C-4.67 1.99 -4.34 2.98 -4 4 C-3.01 3.67 -2.02 3.34 -1 3 C-0.67 2.01 -0.34 1.02 0 0 Z " fill="#504136" transform="translate(31,51)"/>
<path d="M0 0 C1.65 0 3.3 0 5 0 C6.2477363 3.7432089 6.47734765 7.08245718 6 11 C4.625 12.75 4.625 12.75 3 14 C1.82425289 16.09989652 1.82425289 16.09989652 1 18 C0.01 18 -0.98 18 -2 18 C-2.33 16.02 -2.66 14.04 -3 12 C-2.01 12.495 -2.01 12.495 -1 13 C-1 13.99 -1 14.98 -1 16 C-0.34 16 0.32 16 1 16 C0.76603516 14.51886719 0.76603516 14.51886719 0.52734375 13.0078125 C0.33269531 11.72648437 0.13804688 10.44515625 -0.0625 9.125 C-0.25972656 7.84882813 -0.45695312 6.57265625 -0.66015625 5.2578125 C-1 2 -1 2 0 0 Z " fill="#634741" transform="translate(74,21)"/>
<path d="M0 0 C0.66 0 1.32 0 2 0 C4 3 4 3 4 7 C4.66 7 5.32 7 6 7 C6.36923077 14.50769231 6.36923077 14.50769231 4.5 17 C4.005 17.33 3.51 17.66 3 18 C1 17 1 17 0 14 C-0.66 13.67 -1.32 13.34 -2 13 C-1.34 8.71 -0.68 4.42 0 0 Z " fill="#27211C" transform="translate(57,52)"/>
<path d="M0 0 C3.5625 -0.25 3.5625 -0.25 7 0 C8 1 8 1 8.125 3.9375 C8 7 8 7 7 9 C4.03 9 1.06 9 -2 9 C-2.25 3.375 -2.25 3.375 0 0 Z " fill="#360C65" transform="translate(21,30)"/>
<path d="M0 0 C0.66 0.33 1.32 0.66 2 1 C3.67654729 0.72057545 5.34608154 0.39171753 7 0 C6.67 2.97 6.34 5.94 6 9 C6.99 9 7.98 9 9 9 C9.33 11.64 9.66 14.28 10 17 C9.67 16.34 9.34 15.68 9 15 C8.34 15 7.68 15 7 15 C7 15.66 7 16.32 7 17 C6.01 17 5.02 17 4 17 C2.95023036 13.85069107 2.89868405 11.61185544 2.9375 8.3125 C2.94652344 7.31863281 2.95554688 6.32476562 2.96484375 5.30078125 C2.97644531 4.54152344 2.98804688 3.78226563 3 3 C1.02 3.99 1.02 3.99 -1 5 C-0.67 3.35 -0.34 1.7 0 0 Z " fill="#9B8250" transform="translate(30,48)"/>
<path d="M0 0 C4.50534863 2.19179122 6.16250657 4.35791133 8 9 C8 9.99 8 10.98 8 12 C5.29120665 13.35439668 2.99066732 13.06501451 0 13 C0 10.36 0 7.72 0 5 C-0.99 4.67 -1.98 4.34 -3 4 C-2.34 3.67 -1.68 3.34 -1 3 C-0.34 3.33 0.32 3.66 1 4 C0.67 2.68 0.34 1.36 0 0 Z " fill="#D0D2D5" transform="translate(62,12)"/>
<path d="M0 0 C1.43088528 2.86177057 0.59991697 4.93375773 0 8 C1.98 8 3.96 8 6 8 C4.25 10 4.25 10 2 12 C0.68 12 -0.64 12 -2 12 C-2.33 12.66 -2.66 13.32 -3 14 C-5.01920337 12.69593116 -7.01924973 11.36176581 -9 10 C-9 9.67 -9 9.34 -9 9 C-7.35 8.67 -5.7 8.34 -4 8 C-5.32 7.67 -6.64 7.34 -8 7 C-8 5.68 -8 4.36 -8 3 C-6.68 3 -5.36 3 -4 3 C-4 3.66 -4 4.32 -4 5 C-3.01 5 -2.02 5 -1 5 C-0.67 3.35 -0.34 1.7 0 0 Z " fill="#5D5956" transform="translate(58,32)"/>
<path d="M0 0 C0.35882213 3.22939919 0.27258004 4.61209763 -1.625 7.3125 C-4.60457419 9.42956587 -6.42236811 9.32523926 -10 9 C-10 8.34 -10 7.68 -10 7 C-10.99 6.67 -11.98 6.34 -13 6 C-5.8 0 -5.8 0 0 0 Z " fill="#684BAF" transform="translate(42,19)"/>
<path d="M0 0 C0 0.66 0 1.32 0 2 C-2.5 3.625 -2.5 3.625 -5 5 C-4.67 8.3 -4.34 11.6 -4 15 C-8.455 15.495 -8.455 15.495 -13 16 C-11.48221311 9.83399077 -7.79206781 0 0 0 Z " fill="#CFD1D2" transform="translate(31,10)"/>
<path d="M0 0 C1.65 0 3.3 0 5 0 C5.33 0.99 5.66 1.98 6 3 C6.99 2.67 7.98 2.34 9 2 C9.33 3.98 9.66 5.96 10 8 C9.01 8 8.02 8 7 8 C7 7.34 7 6.68 7 6 C5.68 6 4.36 6 3 6 C3 6.66 3 7.32 3 8 C2.01 7.67 1.02 7.34 0 7 C0 6.34 0 5.68 0 5 C-1.98 5 -3.96 5 -6 5 C-5.34 4.67 -4.68 4.34 -4 4 C-3.67 3.01 -3.34 2.02 -3 1 C-3 1.66 -3 2.32 -3 3 C-2.34 3 -1.68 3 -1 3 C-0.67 2.01 -0.34 1.02 0 0 Z " fill="#8B9194" transform="translate(47,29)"/>
<path d="M0 0 C0.66 0.33 1.32 0.66 2 1 C2.59355614 3.64860427 2.74209269 6.29197322 3 9 C0.51245214 10.24377393 -1.22655301 10.13306235 -4 10.125 C-4.886875 10.12757812 -5.77375 10.13015625 -6.6875 10.1328125 C-9 10 -9 10 -11 9 C-11 8.34 -11 7.68 -11 7 C-10.34 7 -9.68 7 -9 7 C-8.67 6.01 -8.34 5.02 -8 4 C-7.67 4.66 -7.34 5.32 -7 6 C-4.36 5.67 -1.72 5.34 1 5 C0.67 3.35 0.34 1.7 0 0 Z " fill="#C2C6C5" transform="translate(69,19)"/>
<path d="M0 0 C0.33 0.99 0.66 1.98 1 3 C1.99 3.33 2.98 3.66 4 4 C4 5.32 4 6.64 4 8 C4.515625 7.835 5.03125 7.67 5.5625 7.5 C8.73363876 6.84951 11.77218334 6.9379266 15 7 C15 7.66 15 8.32 15 9 C8.5 13 8.5 13 4 13 C3.67 10.36 3.34 7.72 3 5 C1.68 5.33 0.36 5.66 -1 6 C-1.042721 4.33388095 -1.04063832 2.66617115 -1 1 C-0.67 0.67 -0.34 0.34 0 0 Z " fill="#E0CF98" transform="translate(36,52)"/>
<path d="M0 0 C0.33 1.32 0.66 2.64 1 4 C-0.32 4.99 -1.64 5.98 -3 7 C-3 6.01 -3 5.02 -3 4 C-4.7015625 4.7425 -4.7015625 4.7425 -6.4375 5.5 C-10 7 -10 7 -11 7 C-11 5.02 -11 3.04 -11 1 C-3.57142857 -1.42857143 -3.57142857 -1.42857143 0 0 Z " fill="#2F1514" transform="translate(20,14)"/>
<path d="M0 0 C2.475 0.495 2.475 0.495 5 1 C5 1.66 5 2.32 5 3 C5.78375 3.144375 6.5675 3.28875 7.375 3.4375 C10 4 10 4 12 5 C12 5.66 12 6.32 12 7 C6.06 7.495 6.06 7.495 0 8 C0 5.36 0 2.72 0 0 Z " fill="#F5F3E2" transform="translate(40,52)"/>
<path d="M0 0 C2.2477975 2.05233685 3.0022242 3.00667261 4 6 C4.06740865 7.56118428 4.08514456 9.1250252 4.0625 10.6875 C4.05347656 11.49574219 4.04445313 12.30398437 4.03515625 13.13671875 C4.02355469 13.75160156 4.01195313 14.36648437 4 15 C3.34 15 2.68 15 2 15 C0.98133771 13.34467377 -0.01810813 11.67739862 -1 10 C-3.7238399 8.63808005 -5.98096827 8.93838711 -9 9 C-9.99 9 -10.98 9 -12 9 C-9.41073669 6.41073669 -7.97294721 6.62601957 -4.375 6.375 C-3.37210938 6.30023437 -2.36921875 6.22546875 -1.3359375 6.1484375 C-0.17964844 6.07496094 -0.17964844 6.07496094 1 6 C0.67 4.02 0.34 2.04 0 0 Z " fill="#9297A2" transform="translate(71,22)"/>
<path d="M0 0 C0.33 0 0.66 0 1 0 C1.33 13.86 1.66 27.72 2 42 C2.99 42 3.98 42 5 42 C5 43.65 5 45.3 5 47 C4.505 45.515 4.505 45.515 4 44 C2.68 44 1.36 44 0 44 C0 29.48 0 14.96 0 0 Z " fill="#66605E" transform="translate(7,28)"/>
<path d="M0 0 C0.66 0.33 1.32 0.66 2 1 C2.625 4.0625 2.625 4.0625 3 7 C3.28875 6.38125 3.5775 5.7625 3.875 5.125 C5 3 5 3 7 1 C7 1.66 7 2.32 7 3 C7.78375 3.103125 8.5675 3.20625 9.375 3.3125 C12 4 12 4 14 7 C11.36 6.34 8.72 5.68 6 5 C6.99 7.31 7.98 9.62 9 12 C7.906875 11.835 6.81375 11.67 5.6875 11.5 C2.12474127 10.93281816 2.12474127 10.93281816 -1 11 C-0.9278125 10.37351562 -0.855625 9.74703125 -0.78125 9.1015625 C-0.6884375 8.28429688 -0.595625 7.46703125 -0.5 6.625 C-0.4071875 5.81289063 -0.314375 5.00078125 -0.21875 4.1640625 C0.03352351 2.03087175 0.03352351 2.03087175 0 0 Z " fill="#C1C4CD" transform="translate(41,16)"/>
<path d="M0 0 C0.33 0 0.66 0 1 0 C1 2.64 1 5.28 1 8 C1.66 8 2.32 8 3 8 C3.18175781 8.93972656 3.18175781 8.93972656 3.3671875 9.8984375 C3.53476563 10.71570312 3.70234375 11.53296875 3.875 12.375 C4.03742187 13.18710937 4.19984375 13.99921875 4.3671875 14.8359375 C4.86658932 17.18673923 4.86658932 17.18673923 7 19 C7 19.99 7 20.98 7 22 C6.01 22 5.02 22 4 22 C3.34 23.32 2.68 24.64 2 26 C0.6786742 17.2580141 -0.33165588 8.862582 0 0 Z " fill="#3C352E" transform="translate(7,17)"/>
<path d="M0 0 C1.40742022 2.81484045 0.66652164 4.56936113 0.0625 7.625 C-0.13214844 8.62789062 -0.32679687 9.63078125 -0.52734375 10.6640625 C-0.76130859 11.82035156 -0.76130859 11.82035156 -1 13 C-3.5 10.9375 -3.5 10.9375 -6 8 C-6.3125 4.1875 -6.3125 4.1875 -6 1 C-5.38125 1.20625 -4.7625 1.4125 -4.125 1.625 C-3.073125 1.810625 -3.073125 1.810625 -2 2 C-1.34 1.34 -0.68 0.68 0 0 Z " fill="#6E5548" transform="translate(16,24)"/>
<path d="M0 0 C2.97 0.33 5.94 0.66 9 1 C8.34 2.32 7.68 3.64 7 5 C6.86002773 7.78824758 6.8111087 10.46827116 6.875 13.25 C6.88853516 14.36761719 6.88853516 14.36761719 6.90234375 15.5078125 C6.92581642 17.33868059 6.96168475 19.16938238 7 21 C6.67 21 6.34 21 6 21 C5.49395076 18.60530271 4.99500483 16.20948283 4.5 13.8125 C4.35691406 13.13896484 4.21382813 12.46542969 4.06640625 11.77148438 C3.31930158 8.12490207 2.82647718 4.72351043 3 1 C2.01 0.67 1.02 0.34 0 0 Z " fill="#5E4135" transform="translate(62,43)"/>
<path d="M0 0 C0.99 0 1.98 0 3 0 C3 5.61 3 11.22 3 17 C2.01 17.33 1.02 17.66 0 18 C0 12.06 0 6.12 0 0 Z " fill="#593E32" transform="translate(77,43)"/>
<path d="M0 0 C2.97 0.33 5.94 0.66 9 1 C9.33 1.99 9.66 2.98 10 4 C10.99 4.33 11.98 4.66 13 5 C9.50875983 7.32749345 8.10777749 7.50299316 4 7 C1.625 5.1875 1.625 5.1875 0 3 C0 2.01 0 1.02 0 0 Z " fill="#487D89" transform="translate(47,21)"/>
<path d="M0 0 C5.61 0 11.22 0 17 0 C17 0.33 17 0.66 17 1 C13.04 1 9.08 1 5 1 C5.33 1.66 5.66 2.32 6 3 C6.99 2.67 7.98 2.34 9 2 C11.48046875 2.55859375 11.48046875 2.55859375 14.1875 3.4375 C15.53908203 3.86869141 15.53908203 3.86869141 16.91796875 4.30859375 C17.60503906 4.53675781 18.29210937 4.76492187 19 5 C19 5.33 19 5.66 19 6 C16.48776344 6.06978435 14.31411014 6.0831468 11.875 5.4375 C9.79116759 4.77876382 9.79116759 4.77876382 7 6 C4.48301368 4.92745123 2.33194455 3.45196548 0 2 C0 1.34 0 0.68 0 0 Z " fill="#362D2B" transform="translate(58,8)"/>
<path d="M0 0 C2.02054804 1.64169528 4.02043058 3.30911778 6 5 C6 5.33 6 5.66 6 6 C-0.93 6 -7.86 6 -15 6 C-15 5.67 -15 5.34 -15 5 C-12.03 5 -9.06 5 -6 5 C-6 4.34 -6 3.68 -6 3 C-4.02 2.67 -2.04 2.34 0 2 C0 1.34 0 0.68 0 0 Z " fill="#493A34" transform="translate(31,73)"/>
<path d="M0 0 C-2.55068845 2.35448165 -3.71017358 2.98327924 -7.25 3.1875 C-8.1575 3.125625 -9.065 3.06375 -10 3 C-10 3.66 -10 4.32 -10 5 C-10.66 5 -11.32 5 -12 5 C-13.88391785 8.26545761 -14.49287967 11.28111761 -15 15 C-15.33 15 -15.66 15 -16 15 C-16.24954005 13.56589632 -16.47392642 12.12739928 -16.6875 10.6875 C-16.81511719 9.88699219 -16.94273438 9.08648437 -17.07421875 8.26171875 C-17 6 -17 6 -15.70703125 4.20703125 C-14 3 -14 3 -11 3 C-11 2.34 -11 1.68 -11 1 C-7.32589215 -0.17571451 -3.83070817 -0.07366746 0 0 Z " fill="#EFF0F0" transform="translate(42,9)"/>
<path d="M0 0 C1.8871875 0.061875 1.8871875 0.061875 3.8125 0.125 C3.8125 0.455 3.8125 0.785 3.8125 1.125 C7.4425 1.455 11.0725 1.785 14.8125 2.125 C14.4825 3.115 14.1525 4.105 13.8125 5.125 C13.1525 5.125 12.4925 5.125 11.8125 5.125 C11.8125 4.465 11.8125 3.805 11.8125 3.125 C9.22827541 3.23918667 6.64570487 3.36592362 4.0625 3.5 C2.96808594 3.54640625 2.96808594 3.54640625 1.8515625 3.59375 C-1.92692656 3.7998494 -4.96696668 4.04012843 -8.1875 6.125 C-7.875 4.25 -7.875 4.25 -7.1875 2.125 C-4.09861478 0.06574319 -3.47814073 -0.1140374 0 0 Z " fill="#C1B8B1" transform="translate(19.1875,4.875)"/>
<path d="M0 0 C6.6 0 13.2 0 20 0 C19.01 0.99 18.02 1.98 17 3 C16.67 3.66 16.34 4.32 16 5 C15.01 4.34 14.02 3.68 13 3 C10.48415109 2.75849227 10.48415109 2.75849227 7.8125 2.875 C6.46091797 2.90207031 6.46091797 2.90207031 5.08203125 2.9296875 C4.05142578 2.96449219 4.05142578 2.96449219 3 3 C2.67 3.66 2.34 4.32 2 5 C2 3.68 2 2.36 2 1 C1.34 0.67 0.68 0.34 0 0 Z " fill="#C3AE92" transform="translate(35,47)"/>
<path d="M0 0 C5.28 1.32 10.56 2.64 16 4 C12.33286823 5.83356588 11.25243203 6.2585055 7.4375 6.1875 C6.67308594 6.18105469 5.90867187 6.17460938 5.12109375 6.16796875 C3 6 3 6 0 5 C0 3.35 0 1.7 0 0 Z " fill="#281F1D" transform="translate(10,38)"/>
<path d="M0 0 C0.99 0 1.98 0 3 0 C3.33 1.65 3.66 3.3 4 5 C4.99 4.34 5.98 3.68 7 3 C7.99 3 8.98 3 10 3 C10 4.32 10 5.64 10 7 C3.375 8.125 3.375 8.125 0 7 C0 4.69 0 2.38 0 0 Z " fill="#4F5153" transform="translate(29,32)"/>
<path d="M0 0 C1.58294782 -0.05437607 3.16644256 -0.09296271 4.75 -0.125 C5.63171875 -0.14820312 6.5134375 -0.17140625 7.421875 -0.1953125 C10.1135858 0.00860498 11.69904974 0.63448279 14 2 C13.34 2 12.68 2 12 2 C12 2.66 12 3.32 12 4 C8.7 4 5.4 4 2 4 C1.34 2.68 0.68 1.36 0 0 Z " fill="#2A1F1C" transform="translate(13,74)"/>
<path d="M0 0 C10.97592998 -0.63019694 10.97592998 -0.63019694 15.25 2 C15.8275 2.66 16.405 3.32 17 4 C16.67 5.32 16.34 6.64 16 8 C15.79632813 7.37609375 15.59265625 6.7521875 15.3828125 6.109375 C13.38282509 3.05854675 11.37537926 2.99476154 7.875 2.25 C6.77929688 2.00765625 5.68359375 1.7653125 4.5546875 1.515625 C3.71164063 1.34546875 2.86859375 1.1753125 2 1 C1.67 1.66 1.34 2.32 1 3 C0.67 2.01 0.34 1.02 0 0 Z " fill="#150C0B" transform="translate(63,9)"/>
<path d="M0 0 C1.32 0 2.64 0 4 0 C4.33 0.99 4.66 1.98 5 3 C6.010625 3.66 7.02125 4.32 8.0625 5 C9.031875 5.66 10.00125 6.32 11 7 C11 7.99 11 8.98 11 10 C7.44849408 9.69558521 6.02861198 9.02406007 3.25 6.6875 C1.21365935 4.25520422 0.3422216 3.07999437 0 0 Z " fill="#948B85" transform="translate(7,72)"/>
<path d="M0 0 C-0.66 1.32 -1.32 2.64 -2 4 C-5.96 4 -9.92 4 -14 4 C-13.67 3.01 -13.34 2.02 -13 1 C-8.61414671 0.29826347 -4.44209357 -0.10834375 0 0 Z " fill="#2F2422" transform="translate(77,74)"/>
<path d="M0 0 C0.99 0.33 1.98 0.66 3 1 C2 4 2 4 0.07421875 5.203125 C-0.71339844 5.54859375 -1.50101563 5.8940625 -2.3125 6.25 C-3.09238281 6.60578125 -3.87226562 6.9615625 -4.67578125 7.328125 C-7.24607227 8.0711335 -8.51383429 7.88750996 -11 7 C-9.23754778 5.8000962 -7.46473019 4.61540483 -5.6875 3.4375 C-4.70136719 2.77621094 -3.71523438 2.11492188 -2.69921875 1.43359375 C-1.80847656 0.96050781 -0.91773438 0.48742188 0 0 Z " fill="#56421F" transform="translate(51,60)"/>
<path d="M0 0 C8.25 0 16.5 0 25 0 C25 0.33 25 0.66 25 1 C23.02 1.33 21.04 1.66 19 2 C19 2.33 19 2.66 19 3 C15.7 3 12.4 3 9 3 C9 2.67 9 2.34 9 2 C6.03 1.67 3.06 1.34 0 1 C0 0.67 0 0.34 0 0 Z " fill="#978B81" transform="translate(31,40)"/>
<path d="M0 0 C5.63281599 -0.2396943 10.54538831 0.61470179 16 2 C16 2.99 16 3.98 16 5 C15.34 5 14.68 5 14 5 C13.67 5.99 13.34 6.98 13 8 C12.34 8 11.68 8 11 8 C10.67 6.35 10.34 4.7 10 3 C6.7 2.34 3.4 1.68 0 1 C0 0.67 0 0.34 0 0 Z " fill="#9898A4" transform="translate(22,29)"/>
<path d="M0 0 C0.33 1.32 0.66 2.64 1 4 C0.071875 4.28875 -0.85625 4.5775 -1.8125 4.875 C-5.09791667 5.8875 -5.09791667 5.8875 -8 8 C-8 5.69 -8 3.38 -8 1 C-5.29120665 -0.35439668 -2.99066732 -0.06501451 0 0 Z " fill="#27272B" transform="translate(38,13)"/>
<path d="M0 0 C0.66 0.33 1.32 0.66 2 1 C1.66009204 4.05917167 1.14301602 5.80401508 -0.6875 8.3125 C-3.62424881 10.45553291 -5.44517748 10.32316568 -9 10 C-4.375 5.125 -4.375 5.125 -1 4 C-0.26676204 1.98491642 -0.26676204 1.98491642 0 0 Z " fill="#8F7848" transform="translate(54,60)"/>
<path d="M0 0 C0.33 0 0.66 0 1 0 C1.08131463 1.43655854 1.13933559 2.8744483 1.1875 4.3125 C1.22230469 5.11300781 1.25710937 5.91351563 1.29296875 6.73828125 C0.93801608 9.47851584 0.10633718 10.29171079 -2 12 C-1.01 12.66 -0.02 13.32 1 14 C-1.64 14 -4.28 14 -7 14 C-7.33 14.66 -7.66 15.32 -8 16 C-7.70100785 12.41209425 -7.23013399 11.21833224 -4.5625 8.6875 C-2 7 -2 7 0 7 C0 4.69 0 2.38 0 0 Z " fill="#56382B" transform="translate(20,60)"/>
<path d="M0 0 C4.875 0.875 4.875 0.875 6 2 C7.34747084 2.23075082 8.70377565 2.41153063 10.0625 2.5625 C11.361875 2.706875 12.66125 2.85125 14 3 C13.67 3.99 13.34 4.98 13 6 C3.11655941 5.38756458 3.11655941 5.38756458 0 2 C0 1.34 0 0.68 0 0 Z " fill="#030303" transform="translate(35,69)"/>
<path d="M0 0 C0.99 0 1.98 0 3 0 C2.67 3.96 2.34 7.92 2 12 C0.68 11.67 -0.64 11.34 -2 11 C-2.33 10.34 -2.66 9.68 -3 9 C-2.34 9 -1.68 9 -1 9 C-1.20625 8.443125 -1.4125 7.88625 -1.625 7.3125 C-2.10695211 4.340462 -1.26565028 2.68020059 0 0 Z " fill="#725242" transform="translate(62,44)"/>
<path d="M0 0 C3 0.1875 3 0.1875 5 1.1875 C5 1.8475 5 2.5075 5 3.1875 C3.02 3.8475 1.04 4.5075 -1 5.1875 C-1 5.5175 -1 5.8475 -1 6.1875 C-2.65 6.1875 -4.3 6.1875 -6 6.1875 C-5.18094338 2.09221692 -4.51352241 0.28209515 0 0 Z " fill="#2C34B5" transform="translate(54,12.8125)"/>
<path d="M0 0 C0.66 0 1.32 0 2 0 C4 3 4 3 4 7 C4.66 7 5.32 7 6 7 C6 9.64 6 12.28 6 15 C5.67 15 5.34 15 5 15 C5 13.35 5 11.7 5 10 C4.34 10 3.68 10 3 10 C2.67 9.34 2.34 8.68 2 8 C1.01 8.99 0.02 9.98 -1 11 C-0.67 7.37 -0.34 3.74 0 0 Z " fill="#41372E" transform="translate(57,52)"/>
<path d="M0 0 C1.32 0 2.64 0 4 0 C3.67 2.31 3.34 4.62 3 7 C4.32 7.33 5.64 7.66 7 8 C6.67 8.99 6.34 9.98 6 11 C5.01 11 4.02 11 3 11 C3 10.01 3 9.02 3 8 C2.01 7.67 1.02 7.34 0 7 C-0.38133299 5.0085944 -0.71325582 3.00720923 -1 1 C-0.67 0.67 -0.34 0.34 0 0 Z " fill="#796458" transform="translate(24,44)"/>
<path d="M0 0 C0.66 0.33 1.32 0.66 2 1 C2 1.99 2 2.98 2 4 C2.99 4.33 3.98 4.66 5 5 C5.6875 7.0625 5.6875 7.0625 6 9 C5.34 9 4.68 9 4 9 C4 8.01 4 7.02 4 6 C3.34 6 2.68 6 2 6 C2 7.32 2 8.64 2 10 C0.68 10.33 -0.64 10.66 -2 11 C-2.28571429 3.57142857 -2.28571429 3.57142857 0 0 Z " fill="#322A23" transform="translate(29,57)"/>
<path d="M0 0 C3.125 0.25 3.125 0.25 5 1.75 C5.37125 2.245 5.7425 2.74 6.125 3.25 C2.8078589 4.6716319 -0.31719804 5.64009109 -3.875 6.25 C-3.917721 4.58388095 -3.91563832 2.91617115 -3.875 1.25 C-2.875 0.25 -2.875 0.25 0 0 Z " fill="#0A0C8F" transform="translate(64.875,29.75)"/>
<path d="M0 0 C10.3625183 -0.18615302 20.66061606 0.39434571 31 1 C31 1.33 31 1.66 31 2 C26.38 2 21.76 2 17 2 C17 2.66 17 3.32 17 4 C15.865625 3.690625 14.73125 3.38125 13.5625 3.0625 C9.07538586 1.93068767 4.60292653 1.40488706 0 1 C0 0.67 0 0.34 0 0 Z " fill="#B9B3B0" transform="translate(41,6)"/>
<path d="M0 0 C1.65 0.33 3.3 0.66 5 1 C4.67 2.65 4.34 4.3 4 6 C0.7 6 -2.6 6 -6 6 C-6 5.34 -6 4.68 -6 4 C-4.02 3.34 -2.04 2.68 0 2 C0 1.34 0 0.68 0 0 Z " fill="#5D483F" transform="translate(58,73)"/>
<path d="M0 0 C1.32 0.33 2.64 0.66 4 1 C2.7260411 3.03833424 1.38938077 5.03852126 0 7 C-0.66 7 -1.32 7 -2 7 C-2 7.66 -2 8.32 -2 9 C-3.32 9.33 -4.64 9.66 -6 10 C-5.61121002 7.18127263 -5.29189635 6.22804402 -3 4.4375 C-2.34 3.963125 -1.68 3.48875 -1 3 C-0.67 2.01 -0.34 1.02 0 0 Z " fill="#978E89" transform="translate(79,72)"/>
<path d="M0 0 C0.33 0 0.66 0 1 0 C1 1.98 1 3.96 1 6 C1.66 6 2.32 6 3 6 C3 6.66 3 7.32 3 8 C0.36 8.33 -2.28 8.66 -5 9 C-4.1875 6.5625 -4.1875 6.5625 -3 4 C-2.01 3.67 -1.02 3.34 0 3 C0 2.01 0 1.02 0 0 Z " fill="#A4725B" transform="translate(64,65)"/>
<path d="M0 0 C0.99 0.33 1.98 0.66 3 1 C3.125 6.75 3.125 6.75 2 9 C0.68 9 -0.64 9 -2 9 C-1.125 2.25 -1.125 2.25 0 0 Z " fill="#9F08C7" transform="translate(26,30)"/>
<path d="M0 0 C0.33 0.66 0.66 1.32 1 2 C1.99 1.67 2.98 1.34 4 1 C4 1.66 4 2.32 4 3 C4.66 3.33 5.32 3.66 6 4 C5.360625 4.226875 4.72125 4.45375 4.0625 4.6875 C1.72806339 5.85250896 1.72806339 5.85250896 1.25 8.625 C1.1675 9.40875 1.085 10.1925 1 11 C0.34 11 -0.32 11 -1 11 C-0.67 7.37 -0.34 3.74 0 0 Z " fill="#A8AFB0" transform="translate(16,26)"/>
<path d="M0 0 C0.66 0.33 1.32 0.66 2 1 C3.67654729 0.72057545 5.34608154 0.39171753 7 0 C6.46930939 3.82097239 5.50298434 6.06171403 3 9 C3 7.02 3 5.04 3 3 C1.02 3.99 1.02 3.99 -1 5 C-0.67 3.35 -0.34 1.7 0 0 Z " fill="#94806D" transform="translate(30,48)"/>
<path d="M0 0 C0 1.65 0 3.3 0 5 C-4.29 5 -8.58 5 -13 5 C-10.24209864 3.62104932 -7.67820126 2.43955694 -4.8125 1.375 C-3.77029297 0.98441406 -3.77029297 0.98441406 -2.70703125 0.5859375 C-1 0 -1 0 0 0 Z " fill="#271E1D" transform="translate(80,38)"/>
<path d="M0 0 C0.66 0 1.32 0 2 0 C2 1.98 2 3.96 2 6 C5.3 6 8.6 6 12 6 C12 6.66 12 7.32 12 8 C7.71 7.67 3.42 7.34 -1 7 C-0.67 4.69 -0.34 2.38 0 0 Z " fill="#151322" transform="translate(59,32)"/>
<path d="M0 0 C0.33 0.66 0.66 1.32 1 2 C3.80980673 2.69227032 3.80980673 2.69227032 7.0625 3.125 C8.71958984 3.37636719 8.71958984 3.37636719 10.41015625 3.6328125 C11.26480469 3.75398438 12.11945312 3.87515625 13 4 C12.67 4.66 12.34 5.32 12 6 C6.39 5.34 0.78 4.68 -5 4 C-5 3.34 -5 2.68 -5 2 C-3.35 2 -1.7 2 0 2 C0 1.34 0 0.68 0 0 Z " fill="#705059" transform="translate(28,37)"/>
<path d="M0 0 C1.32 0.33 2.64 0.66 4 1 C4.33 2.65 4.66 4.3 5 6 C2.36 5.67 -0.28 5.34 -3 5 C-3 4.34 -3 3.68 -3 3 C-2.01 3 -1.02 3 0 3 C0 2.01 0 1.02 0 0 Z " fill="#AA7760" transform="translate(25,68)"/>
<path d="M0 0 C3.63 0.66 7.26 1.32 11 2 C11.33 3.65 11.66 5.3 12 7 C11.67 6.01 11.34 5.02 11 4 C9.35 4 7.7 4 6 4 C6 4.66 6 5.32 6 6 C2.26360784 4.75453595 1.81243487 3.36595047 0 0 Z " fill="#50332D" transform="translate(68,17)"/>
<path d="M0 0 C6.6 0 13.2 0 20 0 C20 0.66 20 1.32 20 2 C17.36 2.66 14.72 3.32 12 4 C12.33 3.01 12.66 2.02 13 1 C8.71 1 4.42 1 0 1 C0 0.67 0 0.34 0 0 Z " fill="#D3CDCB" transform="translate(21,6)"/>
<path d="M0 0 C1.32 0 2.64 0 4 0 C4.33 1.65 4.66 3.3 5 5 C2.69 5 0.38 5 -2 5 C-1.125 1.125 -1.125 1.125 0 0 Z " fill="#2A2B2C" transform="translate(43,34)"/>
<path d="M0 0 C1.65 0 3.3 0 5 0 C3.125 3.875 3.125 3.875 2 5 C0.00041636 5.04080783 -2.00045254 5.04254356 -4 5 C-4 4.34 -4 3.68 -4 3 C-2.68 2.67 -1.36 2.34 0 2 C0 1.34 0 0.68 0 0 Z " fill="#1F1D26" transform="translate(37,22)"/>
<path d="M0 0 C2.475 0.495 2.475 0.495 5 1 C5 1.66 5 2.32 5 3 C5.66 3 6.32 3 7 3 C6.67 3.99 6.34 4.98 6 6 C4.02 5.34 2.04 4.68 0 4 C0 2.68 0 1.36 0 0 Z " fill="#FBFAF0" transform="translate(40,52)"/>
<path d="M0 0 C1.8125 0.1875 1.8125 0.1875 4 1 C5.8125 3.4375 5.8125 3.4375 7 6 C6.67 6.66 6.34 7.32 6 8 C3.69 6.35 1.38 4.7 -1 3 C-0.67 2.01 -0.34 1.02 0 0 Z " fill="#C3BBB3" transform="translate(76,7)"/>
<path d="M0 0 C0.33 0 0.66 0 1 0 C1.33 3.63 1.66 7.26 2 11 C2.99 11 3.98 11 5 11 C5 12.65 5 14.3 5 16 C4.67 15.01 4.34 14.02 4 13 C2.68 13 1.36 13 0 13 C0 8.71 0 4.42 0 0 Z " fill="#655750" transform="translate(7,59)"/>
<path d="M0 0 C2.0625 0.4375 2.0625 0.4375 4 1 C0.93882432 3.62386487 0.26826873 4 -4 4 C-4.33 4.66 -4.66 5.32 -5 6 C-6.32 4.68 -7.64 3.36 -9 2 C-6.94921875 1.77213542 -4.8984375 1.54427083 -2.84765625 1.31640625 C-0.98859771 1.18113386 -0.98859771 1.18113386 0 0 Z " fill="#5C5049" transform="translate(60,40)"/>
<path d="M0 0 C1.60725635 3.21451269 1.05748185 6.43612536 1 10 C1.66 10 2.32 10 3 10 C3 10.66 3 11.32 3 12 C0.36 12 -2.28 12 -5 12 C-4.34 11.67 -3.68 11.34 -3 11 C-0.82460065 9.23727001 -0.82460065 9.23727001 -0.76953125 7.0546875 C-0.80933821 5.03538907 -0.90238723 3.01733053 -1 1 C-0.67 0.67 -0.34 0.34 0 0 Z " fill="#B1B7B3" transform="translate(28,17)"/>
<path d="M0 0 C2.5 0.3125 2.5 0.3125 5 1 C5.33 1.66 5.66 2.32 6 3 C4.625 4.5 4.625 4.5 3 6 C2.34 6 1.68 6 1 6 C0.34 4.35 -0.32 2.7 -1 1 C-0.67 0.67 -0.34 0.34 0 0 Z " fill="#BABEC2" transform="translate(43,26)"/>
<path d="M0 0 C0.99 0.66 1.98 1.32 3 2 C3 3.32 3 4.64 3 6 C2.01 6.33 1.02 6.66 0 7 C0 6.34 0 5.68 0 5 C-0.66 5 -1.32 5 -2 5 C-2.33 4.01 -2.66 3.02 -3 2 C-2.01 2 -1.02 2 0 2 C0 1.34 0 0.68 0 0 Z " fill="#E6D88C" transform="translate(52,52)"/>
<path d="M0 0 C0.33 1.98 0.66 3.96 1 6 C0.34 5.34 -0.32 4.68 -1 4 C-1.99 4 -2.98 4 -4 4 C-4.66 4.66 -5.32 5.32 -6 6 C-6 4.35 -6 2.7 -6 1 C-3 0 -3 0 0 0 Z " fill="#E3E4E2" transform="translate(69,18)"/>
<path d="M0 0 C1.60379341 -0.05416188 3.20811406 -0.09286638 4.8125 -0.125 C5.70582031 -0.14820313 6.59914063 -0.17140625 7.51953125 -0.1953125 C10 0 10 0 13 2 C10.29120665 3.35439668 7.99066732 3.06501451 5 3 C5 2.67 5 2.34 5 2 C3.35 1.67 1.7 1.34 0 1 C0 0.67 0 0.34 0 0 Z " fill="#F5F6F4" transform="translate(46,9)"/>
<path d="M0 0 C0.99 0.33 1.98 0.66 3 1 C2.71125 1.70125 2.4225 2.4025 2.125 3.125 C0.97866412 6.05452503 -0.02625654 9.00921653 -1 12 C-2.37520651 8.17998192 -1.74051523 4.92473073 -1 1 C-0.67 0.67 -0.34 0.34 0 0 Z " fill="#59392C" transform="translate(21,48)"/>
<path d="M0 0 C0.33 0 0.66 0 1 0 C1 2.64 1 5.28 1 8 C1.66 8 2.32 8 3 8 C3 10.31 3 12.62 3 15 C0.03090402 11.72698081 -0.34354794 9.61934238 -0.1875 5.25 C-0.16042969 4.26515625 -0.13335938 3.2803125 -0.10546875 2.265625 C-0.07066406 1.51796875 -0.03585938 0.7703125 0 0 Z " fill="#4A3C37" transform="translate(7,17)"/>
<path d="M0 0 C-1.32 1.32 -2.64 2.64 -4 4 C-4 3.01 -4 2.02 -4 1 C-4.99 1.66 -5.98 2.32 -7 3 C-7.99 2.67 -8.98 2.34 -10 2 C-6.27511755 -0.66063032 -4.42132508 -1.38955931 0 0 Z " fill="#3C1D1C" transform="translate(21,17)"/>
<path d="M0 0 C-3.69172595 3.53790403 -7.09390595 3.59115883 -12 4 C-11.67 3.01 -11.34 2.02 -11 1 C-7.50970582 -0.47666292 -3.72563614 -0.07164685 0 0 Z " fill="#F8F9F9" transform="translate(42,9)"/>
<path d="M0 0 C5.61 0 11.22 0 17 0 C16.67 0.99 16.34 1.98 16 3 C15.34 3 14.68 3 14 3 C14 2.34 14 1.68 14 1 C9.38 1 4.76 1 0 1 C0 0.67 0 0.34 0 0 Z " fill="#8E8581" transform="translate(17,7)"/>
<path d="M0 0 C2 2 2 2 2.1953125 4.8203125 C2.16050781 6.45613281 2.16050781 6.45613281 2.125 8.125 C2.10695313 9.22070312 2.08890625 10.31640625 2.0703125 11.4453125 C2.04710938 12.28835937 2.02390625 13.13140625 2 14 C1.34 13.67 0.68 13.34 0 13 C0.33 10.36 0.66 7.72 1 5 C0.34 5 -0.32 5 -1 5 C-0.67 3.35 -0.34 1.7 0 0 Z " fill="#5F4638" transform="translate(62,54)"/>
<path d="M0 0 C0.86625 0.3403125 0.86625 0.3403125 1.75 0.6875 C1.13125 0.77 0.5125 0.8525 -0.125 0.9375 C-2.42972859 1.48144438 -2.42972859 1.48144438 -3.3125 3.6875 C-3.7765625 4.6775 -3.7765625 4.6775 -4.25 5.6875 C-5.24 6.0175 -6.23 6.3475 -7.25 6.6875 C-6.87492618 3.96821483 -6.40781339 2.84531339 -4.4375 0.875 C-2.25 -0.3125 -2.25 -0.3125 0 0 Z " fill="#C1BCB6" transform="translate(38.25,43.3125)"/>
<path d="M0 0 C4.05606165 0.46800711 7.46588679 0.87953208 11 3 C4.25 4.125 4.25 4.125 2 3 C2 2.34 2 1.68 2 1 C1.34 0.67 0.68 0.34 0 0 Z " fill="#312620" transform="translate(15,40)"/>
<path d="M0 0 C0.99 0 1.98 0 3 0 C3 2.31 3 4.62 3 7 C2.01 7 1.02 7 0 7 C0 4.69 0 2.38 0 0 Z " fill="#1F1A20" transform="translate(29,32)"/>
<path d="M0 0 C0.99 0 1.98 0 3 0 C3.1875 2.875 3.1875 2.875 3 6 C2.01 6.66 1.02 7.32 0 8 C0 5.36 0 2.72 0 0 Z " fill="#834E3B" transform="translate(77,26)"/>
<path d="M0 0 C2.375 -0.1875 2.375 -0.1875 5 0 C5.66 0.99 6.32 1.98 7 3 C4.03 3 1.06 3 -2 3 C-1.34 2.67 -0.68 2.34 0 2 C0 1.34 0 0.68 0 0 Z " fill="#634E44" transform="translate(30,76)"/>
<path d="M0 0 C0.66 0.33 1.32 0.66 2 1 C2.40729228 3.32156597 2.74438677 5.6568787 3 8 C2.01 7.67 1.02 7.34 0 7 C0 6.34 0 5.68 0 5 C-0.99 5.33 -1.98 5.66 -3 6 C-3 4.35 -3 2.7 -3 1 C-2.67 1.99 -2.34 2.98 -2 4 C-1.34 4 -0.68 4 0 4 C0 2.68 0 1.36 0 0 Z " fill="#201A17" transform="translate(31,63)"/>
<path d="M0 0 C2.3125 0.1875 2.3125 0.1875 5 1 C6.8125 3.5625 6.8125 3.5625 8 6 C5 6 5 6 3.61328125 4.6875 C2.40885417 3.125 1.20442708 1.5625 0 0 Z " fill="#1975FC" transform="translate(52,19)"/>
<path d="M0 0 C0.66 0 1.32 0 2 0 C2 0.66 2 1.32 2 2 C3.32 2.33 4.64 2.66 6 3 C4.68 3 3.36 3 2 3 C2 3.66 2 4.32 2 5 C0.68 4.67 -0.64 4.34 -2 4 C-2 3.34 -2 2.68 -2 2 C-1.34 2 -0.68 2 0 2 C0 1.34 0 0.68 0 0 Z " fill="#897142" transform="translate(37,63)"/>
<path d="M0 0 C0.66 0.66 1.32 1.32 2 2 C2.99 2 3.98 2 5 2 C5 2.99 5 3.98 5 5 C3.35 5.33 1.7 5.66 0 6 C0 4.02 0 2.04 0 0 Z " fill="#BCA160" transform="translate(34,55)"/>
<path d="M0 0 C4.75 0.875 4.75 0.875 7 2 C7 2.66 7 3.32 7 4 C5.35 4 3.7 4 2 4 C1.34 2.68 0.68 1.36 0 0 Z " fill="#131617" transform="translate(49,23)"/>
<path d="M0 0 C0.33 0.66 0.66 1.32 1 2 C1.804375 2.144375 2.60875 2.28875 3.4375 2.4375 C6 3 6 3 8 6 C5.36 5.34 2.72 4.68 0 4 C0 2.68 0 1.36 0 0 Z " fill="#5FBBE7" transform="translate(47,17)"/>
<path d="M0 0 C2.97 0.99 5.94 1.98 9 3 C5 4 5 4 3 3 C2.67 3.99 2.34 4.98 2 6 C1.34 4.02 0.68 2.04 0 0 Z " fill="#40241E" transform="translate(70,15)"/>
<path d="M0 0 C0.99 0 1.98 0 3 0 C3 1.65 3 3.3 3 5 C1.68 4.67 0.36 4.34 -1 4 C-0.67 2.68 -0.34 1.36 0 0 Z " fill="#766E6A" transform="translate(62,44)"/>
<path d="M0 0 C0.33 0.66 0.66 1.32 1 2 C1.66 2.33 2.32 2.66 3 3 C2.01 4.485 2.01 4.485 1 6 C-0.32 5.67 -1.64 5.34 -3 5 C-3 4.34 -3 3.68 -3 3 C-2.34 3 -1.68 3 -1 3 C-0.67 2.01 -0.34 1.02 0 0 Z " fill="#B9C1C9" transform="translate(61,23)"/>
<path d="M0 0 C1.98 0 3.96 0 6 0 C5.67 0.99 5.34 1.98 5 3 C3.35 3 1.7 3 0 3 C0 2.01 0 1.02 0 0 Z " fill="#1E1615" transform="translate(71,74)"/>
<path d="M0 0 C4.455 1.98 4.455 1.98 9 4 C4.70600835 5.07349791 3.80504787 4.79682816 0 3 C0 2.01 0 1.02 0 0 Z " fill="#0F0B09" transform="translate(32,72)"/>
<path d="M0 0 C2.4375 0.375 2.4375 0.375 5 1 C5.33 1.66 5.66 2.32 6 3 C5.34 3.66 4.68 4.32 4 5 C2 3.625 2 3.625 0 2 C0 1.34 0 0.68 0 0 Z " fill="#0B0907" transform="translate(35,69)"/>
<path d="M0 0 C4.67692308 1.47692308 4.67692308 1.47692308 6.3125 4.125 C6.539375 4.74375 6.76625 5.3625 7 6 C5.1875 5.8125 5.1875 5.8125 3 5 C1.25 2.4375 1.25 2.4375 0 0 Z " fill="#2B2724" transform="translate(55,43)"/>
<path d="M0 0 C0.66 0.33 1.32 0.66 2 1 C1.34 2.98 0.68 4.96 0 7 C-0.99 6.67 -1.98 6.34 -3 6 C-1.125 1.125 -1.125 1.125 0 0 Z " fill="#540099" transform="translate(24,31)"/>
<path d="M0 0 C2 3 2 3 2 5 C0.02 5 -1.96 5 -4 5 C-2.68 3.35 -1.36 1.7 0 0 Z " fill="#D7D9DA" transform="translate(24,19)"/>
</svg>
