<?xml version="1.0" encoding="UTF-8"?>
<svg version="1.1" xmlns="http://www.w3.org/2000/svg" width="380" height="380">
<path d="M0 0 C125.4 0 250.8 0 380 0 C380 125.4 380 250.8 380 380 C254.6 380 129.2 380 0 380 C0 254.6 0 129.2 0 0 Z " fill="#6C0734" transform="translate(0,0)"/>
<path d="M0 0 C2.17446022 -0.08321646 4.3517407 -0.10637166 6.52764893 -0.08135986 C7.72044464 -0.11027313 8.91324036 -0.1391864 10.1421814 -0.16897583 C13.4000272 -0.23426725 16.65309312 -0.25003352 19.91143703 -0.23797512 C22.63993084 -0.23355766 25.36772205 -0.26173891 28.09605145 -0.28917432 C34.54024637 -0.35268767 40.98268432 -0.35748335 47.42706299 -0.32647705 C54.05237832 -0.29570836 60.67097701 -0.3676622 67.29508281 -0.49007106 C73.00192472 -0.59162413 78.70663558 -0.62654535 84.4143517 -0.60968328 C87.81526748 -0.60040926 91.2112743 -0.61579771 94.61135101 -0.69643402 C115.18029774 -1.08560026 115.18029774 -1.08560026 120.68791199 3.06895447 C124.25001092 6.99121815 126.45467678 11.34860445 128.49440765 16.19957733 C130.25298654 20.01883641 132.68505729 23.37566725 135.08721924 26.81219482 C135.90354657 28.02664705 136.7175178 29.24268781 137.52862549 30.46063232 C138.18733643 31.44289795 138.84604736 32.42516357 139.52471924 33.43719482 C141.52471924 36.43719482 141.52471924 36.43719482 141.38800049 38.35125732 C140.26832233 41.056724 138.7271048 42.6847661 136.71221924 44.81219482 C132.93937747 48.87755122 129.29571248 53.01678103 125.71221924 57.24969482 C121.15793523 62.6049248 116.47076205 67.81266319 111.68048096 72.95721436 C108.46723454 76.40855776 105.32364902 79.90566967 102.23956299 83.47235107 C100.15438652 85.86151682 98.02744509 88.2108656 95.89971924 90.56219482 C89.71167229 96.87689289 89.71167229 96.87689289 85.52471924 104.43719482 C86.12026611 104.69629639 86.71581299 104.95539795 87.32940674 105.22235107 C89.70164106 106.53509996 90.92890233 107.79501409 92.64971924 109.87469482 C95.54202234 113.29456394 98.50067308 116.63280396 101.52471924 119.93719482 C104.97429108 123.71975701 108.37936934 127.53283452 111.73565674 131.39813232 C114.58778614 134.64881256 117.50172945 137.84353465 120.41143799 141.04266357 C126.52471924 147.96954233 126.52471924 147.96954233 126.52471924 150.43719482 C118.78891688 150.79469955 111.05526787 151.03833541 103.31304932 151.20623779 C100.68496129 151.27627711 98.05741168 151.37154961 95.43121338 151.49334717 C72.36365258 152.53570135 72.36365258 152.53570135 65.82305908 147.25848389 C62.50138247 143.9751226 59.9344136 140.42753815 57.52471924 136.43719482 C53.56010369 138.25251614 51.308653 140.60540062 48.39971924 143.87469482 C47.53089111 144.84278076 46.66206299 145.8108667 45.76690674 146.80828857 C43.45419773 149.41525604 43.45419773 149.41525604 41.52471924 152.43719482 C40.86471924 152.43719482 40.20471924 152.43719482 39.52471924 152.43719482 C39.20567627 153.23383545 39.20567627 153.23383545 38.88018799 154.04656982 C37.00224326 157.35867984 34.44430101 159.9465185 31.83721924 162.68719482 C30.74270597 163.85444834 29.64895178 165.02241411 28.55596924 166.19110107 C28.03003174 166.75200439 27.50409424 167.31290771 26.96221924 167.89080811 C24.65850427 170.36902322 22.44539593 172.92181422 20.23175049 175.48016357 C18.18838493 177.82278633 16.10791065 180.12992905 14.02471924 182.43719482 C10.76750787 186.04653715 7.54671304 189.68297192 4.36065674 193.35516357 C2.96674678 194.93591678 1.5513506 196.49775446 0.12628174 198.05047607 C-1.0996167 199.38658936 -1.0996167 199.38658936 -2.35028076 200.74969482 C-3.49110107 201.98139404 -3.49110107 201.98139404 -4.65496826 203.23797607 C-6.66087479 205.39181431 -6.66087479 205.39181431 -7.47528076 208.43719482 C-10.28362288 208.10894704 -11.25717964 207.71172012 -13.04559326 205.46063232 C-13.55864014 204.58664795 -14.07168701 203.71266357 -14.60028076 202.81219482 C-17.49893499 198.0269165 -20.48877066 193.33531044 -23.60028076 188.68719482 C-24.00778564 188.07408447 -24.41529053 187.46097412 -24.83514404 186.82928467 C-25.43431641 185.93137207 -25.43431641 185.93137207 -26.04559326 185.01531982 C-26.43779053 184.42428467 -26.82998779 183.83324951 -27.23406982 183.2243042 C-28.09219717 181.98876285 -28.99360379 180.78258107 -29.9274292 179.60321045 C-33.43054259 175.13063641 -33.43054259 175.13063641 -33.63934326 171.89422607 C-31.98380201 168.39981182 -29.52657707 165.85241974 -26.85028076 163.12469482 C-25.74668129 161.96654049 -24.64381268 160.80768926 -23.54168701 159.64813232 C-23.00946533 159.09351318 -22.47724365 158.53889404 -21.92889404 157.96746826 C-20.1612038 156.10655418 -18.46487899 154.19243272 -16.78778076 152.24969482 C-14.32483295 149.40191142 -11.81824038 146.60021908 -9.28778076 143.81219482 C-5.67160845 139.80988885 -2.15515874 135.7344038 1.33721924 131.62469482 C5.90773469 126.25145921 10.607448 121.02241978 15.42388916 115.86883545 C18.08473168 113.01802808 20.66404669 110.12922136 23.14971924 107.12469482 C23.93346924 106.23781982 24.71721924 105.35094482 25.52471924 104.43719482 C26.18471924 104.43719482 26.84471924 104.43719482 27.52471924 104.43719482 C25.26932727 100.32486347 22.47815393 97.01219729 19.27471924 93.62469482 C18.27800266 92.55365952 17.28190752 91.48204555 16.28643799 90.40985107 C15.56786621 89.63858887 15.56786621 89.63858887 14.83477783 88.85174561 C10.94798264 84.65493395 7.25150393 80.28935148 3.53643799 75.94110107 C2.73194214 75.00016602 2.73194214 75.00016602 1.91119385 74.04022217 C0.83901431 72.78521386 -0.23183706 71.52906938 -1.3012085 70.27166748 C-1.79693359 69.69078369 -2.29265869 69.1098999 -2.80340576 68.51141357 C-3.24587646 67.99151855 -3.68834717 67.47162354 -4.14422607 66.93597412 C-5.48508312 65.38090492 -5.48508312 65.38090492 -7.14227295 63.87005615 C-8.47528076 62.43719482 -8.47528076 62.43719482 -8.47528076 60.43719482 C-1.16475739 60.25128181 6.14525115 60.10941508 13.45766544 60.02269745 C16.85383548 59.98106076 20.24838083 59.92466141 23.64361572 59.8336792 C27.55299965 59.7295831 31.4617415 59.69120954 35.37237549 59.65594482 C36.58305191 59.61465454 37.79372833 59.57336426 39.04109192 59.53082275 C47.34774924 59.5264224 47.34774924 59.5264224 50.89505005 62.27142334 C52.63773944 64.24886745 54.13646714 66.19994658 55.52471924 68.43719482 C59.36409405 66.66688665 61.52262196 64.49468434 64.33721924 61.31219482 C64.77590332 60.81864502 65.2145874 60.32509521 65.66656494 59.81658936 C66.95771561 58.36129936 68.24135498 56.89935596 69.52471924 55.43719482 C70.17182861 54.71531982 70.81893799 53.99344482 71.48565674 53.24969482 C75.75244585 48.46162379 79.56664995 43.52614106 83.52471924 38.43719482 C46.56471924 38.43719482 9.60471924 38.43719482 -28.47528076 38.43719482 C-26.95642829 34.64006364 -25.69496549 32.03165498 -23.46356201 28.74188232 C-22.86994873 27.86016357 -22.27633545 26.97844482 -21.66473389 26.07000732 C-21.04533936 25.1599292 -20.42594482 24.24985107 -19.78778076 23.31219482 C-18.57433224 21.51874137 -17.36209451 19.72446809 -16.15106201 17.92938232 C-15.61392578 17.13902588 -15.07678955 16.34866943 -14.52337646 15.53436279 C-12.47679386 12.58066306 -12.47679386 12.58066306 -11.16599941 9.7818737 C-8.29523736 4.39493624 -6.32845456 0.84606095 0 0 Z " fill="#FD3567" transform="translate(133.47528076171875,84.56280517578125)"/>
<path d="M0 0 C2.20930633 -0.03172679 4.41999664 -0.00296787 6.62818909 0.07402039 C8.44388649 0.07161095 8.44388649 0.07161095 10.29626465 0.06915283 C13.60040196 0.0754856 16.8968822 0.13041616 20.19966388 0.20746636 C23.65608066 0.27646379 27.11261143 0.28270994 30.5696106 0.29574585 C37.10814145 0.32987001 43.64463733 0.42003859 50.18227392 0.53059024 C57.62819714 0.6537542 65.07422014 0.7140739 72.52090919 0.76924002 C87.8320157 0.8840686 103.14109439 1.0774114 118.45069885 1.32279968 C118.04730286 1.7918573 117.64390686 2.26091492 117.22828674 2.7441864 C116.6945343 3.36567566 116.16078186 3.98716492 115.6108551 4.62748718 C115.08370911 5.2409198 114.55656311 5.85435242 114.01344299 6.4863739 C112.6187742 8.12528949 111.25061887 9.78211138 109.88819885 11.44779968 C107.53192528 14.22699416 105.02546885 16.74802969 102.45069885 19.32279968 C101.79069885 20.14779968 101.13069885 20.97279968 100.45069885 21.82279968 C98.28131363 24.53453121 95.90747468 26.86602385 93.45069885 29.32279968 C93.00734695 30.12652008 92.56399506 30.93024048 92.10720825 31.75831604 C89.39920516 35.96763813 86.96031052 38.75654988 82.03152084 39.86864471 C74.33017943 40.70051639 66.57947255 40.31806391 58.8530426 40.08061218 C56.33248585 40.03949262 53.81185251 40.00284474 51.29116821 39.97047424 C45.35102893 39.88344641 39.41297533 39.75158945 33.47429425 39.59760749 C26.70821131 39.42470407 19.94152148 39.30967476 13.17417514 39.19927812 C-0.73525926 38.97108615 -14.64238886 38.67095146 -28.54930115 38.32279968 C-27.17522824 34.77636478 -25.67530639 31.77914756 -23.5375824 28.62748718 C-22.94396912 27.74576843 -22.35035583 26.86404968 -21.73875427 25.95561218 C-21.11935974 25.04553406 -20.49996521 24.13545593 -19.86180115 23.19779968 C-18.64835262 21.40434622 -17.4361149 19.61007295 -16.2250824 17.81498718 C-15.68794617 17.02463074 -15.15080994 16.23427429 -14.59739685 15.41996765 C-12.54846412 12.46635228 -12.54846412 12.46635228 -11.24615669 9.65799427 C-8.36294804 4.21758616 -6.41254808 0.70073803 0 0 Z " fill="#E21D58" transform="translate(133.54930114746094,84.67720031738281)"/>
<path d="M0 0 C1.10332169 -0.00102219 2.20664337 -0.00204437 3.34339905 -0.00309753 C6.96951592 0.00175715 10.59307617 0.05610416 14.21875 0.11108398 C16.74079005 0.12414756 19.26284792 0.13410814 21.78491211 0.14109802 C27.73139628 0.16504136 33.67706799 0.22013807 39.62313557 0.29054445 C46.39694475 0.3689975 53.17079914 0.40732654 59.9449501 0.4424125 C73.87005196 0.51542839 87.79435107 0.63841982 101.71875 0.79467773 C99.92864889 4.46800088 97.81624889 7.87096775 95.59375 11.29467773 C95.19776611 11.90762695 94.80178223 12.52057617 94.39379883 13.15209961 C90.55972168 19.07159096 86.64831485 24.93819565 82.71875 30.79467773 C82.05555756 32.34271591 82.05555756 32.34271591 81.37896729 33.92202759 C78.2943756 37.25294075 77.64839634 37.255384 73.3024292 37.51620483 C70.97866413 37.5336393 68.65451054 37.51755516 66.33105469 37.47583008 C65.06250641 37.47670624 63.79395813 37.4775824 62.48696899 37.47848511 C59.01159949 37.48020644 55.53747288 37.44493735 52.06239223 37.40304136 C48.42961877 37.36552857 44.79681666 37.36200863 41.16387939 37.35488892 C34.28595697 37.33624143 27.40860689 37.28700657 20.53093648 37.22679198 C12.70036027 37.15972312 4.86975669 37.12673704 -2.96103525 37.09661937 C-19.06810853 37.03390674 -35.17460623 36.92837458 -51.28125 36.79467773 C-48.4728449 33.97275686 -45.67983345 31.19786928 -42.65625 28.60717773 C-39.31938291 25.71732491 -36.04165185 22.77058469 -32.78125 19.79467773 C-28.98994068 16.33804951 -25.19559217 12.89150063 -21.28405762 9.5708704 C-19.27427195 7.84110336 -19.27427195 7.84110336 -17.55554199 5.9678793 C-12.01515603 0.35677748 -7.68740376 -0.18822237 0 0 Z " fill="#E21D59" transform="translate(178.28125,256.205322265625)"/>
<path d="M0 0 C0.495 0.99 0.495 0.99 1 2 C41.26 2 81.52 2 123 2 C122.67 2.99 122.34 3.98 122 5 C122 4.34 122 3.68 122 3 C107.50838722 2.82620303 93.01794561 2.72888821 78.52525902 2.71759319 C71.79439555 2.71102128 65.06528672 2.6805738 58.33496094 2.59204102 C51.83087385 2.50896443 45.32938885 2.49009067 38.82484818 2.51441383 C36.35222941 2.51263152 33.87951378 2.48830068 31.40736008 2.44031334 C15.8497338 1.80953022 15.8497338 1.80953022 2.43477821 8.57158375 C0.21752805 10.77347481 -1.81536214 13.060392 -3.76423264 15.50191689 C-5.40287622 17.48839456 -7.26827611 19.11335233 -9.25 20.75 C-13.05846704 24.03541577 -16.78452929 27.4075889 -20.5078125 30.7890625 C-23.28576414 33.25351489 -26.14716284 35.6226357 -29 38 C13.24 38.33 55.48 38.66 99 39 C99 39.33 99 39.66 99 40 C54.78 40 10.56 40 -35 40 C-33.515 39.505 -33.515 39.505 -32 39 C-31.63621308 37.67465176 -31.30650865 36.33975421 -31 35 C-29.74414062 33.34350586 -29.74414062 33.34350586 -28.15625 31.71484375 C-27.57367432 31.10705078 -26.99109863 30.49925781 -26.39086914 29.87304688 C-25.76688232 29.23431641 -25.14289551 28.59558594 -24.5 27.9375 C-19.38209415 22.59165544 -14.58685354 17.16605837 -9.97265625 11.37890625 C-7.58944231 8.50489182 -5.02166952 5.90477508 -2.3125 3.33984375 C-0.87900567 2.01337071 -0.87900567 2.01337071 0 0 Z " fill="#B21649" transform="translate(158,254)"/>
<path d="M0 0 C40.92 0 81.84 0 124 0 C122.02 2.31 120.04 4.62 118 7 C117.154375 8.03125 116.30875 9.0625 115.4375 10.125 C113.08122643 12.90419447 110.57477 15.42523 108 18 C107.34 18.825 106.68 19.65 106 20.5 C103.83061478 23.21173153 101.45677583 25.54322417 99 28 C98.3503125 28.84949219 97.700625 29.69898437 97.03125 30.57421875 C91.30400756 37.80385402 91.30400756 37.80385402 87.1953125 38.421875 C84.68896939 38.15207036 82.40881557 37.73421101 80 37 C81.29397884 33.11806349 83.17953929 32.01611079 86.375 29.5 C90.19392047 26.51839629 90.19392047 26.51839629 93.7265625 23.21875 C95 22 95 22 97 22 C97 21.34 97 20.68 97 20 C98.54888502 18.58293498 100.16761534 17.24190504 101.8125 15.9375 C102.70582031 15.22464844 103.59914063 14.51179688 104.51953125 13.77734375 C105.66808594 12.86082031 106.81664062 11.94429687 108 11 C111.63 8.03 115.26 5.06 119 2 C79.73 1.67 40.46 1.34 0 1 C0 0.67 0 0.34 0 0 Z " fill="#BC184D" transform="translate(128,86)"/>
<path d="M0 0 C1.10332169 -0.00102219 2.20664337 -0.00204437 3.34339905 -0.00309753 C6.96951592 0.00175715 10.59307617 0.05610416 14.21875 0.11108398 C16.74079005 0.12414756 19.26284792 0.13410814 21.78491211 0.14109802 C27.73139628 0.16504136 33.67706799 0.22013807 39.62313557 0.29054445 C46.39694475 0.3689975 53.17079914 0.40732654 59.9449501 0.4424125 C73.87005196 0.51542839 87.79435107 0.63841982 101.71875 0.79467773 C101.38875 1.45467773 101.05875 2.11467773 100.71875 2.79467773 C100.15498185 2.78730339 99.5912137 2.77992905 99.01036167 2.77233124 C85.26289031 2.59529523 71.51561989 2.46361016 57.76725101 2.38018036 C51.11834903 2.3384734 44.4704904 2.28192619 37.82202148 2.19116211 C31.40288154 2.1040797 24.9845331 2.05636954 18.56484795 2.03565979 C16.11879456 2.02090622 13.6727833 1.99209491 11.22706795 1.94883728 C7.79374582 1.89054055 4.36367104 1.88277398 0.92993164 1.88647461 C-0.5784301 1.8433313 -0.5784301 1.8433313 -2.11726379 1.79931641 C-9.10433575 1.88051215 -12.495056 3.86292104 -17.41977787 8.783638 C-18.34120657 9.77910267 -18.34120657 9.77910267 -19.28125 10.79467773 C-20.92752038 12.48695116 -22.58602837 14.15082646 -24.28125 15.79467773 C-24.94125 15.79467773 -25.60125 15.79467773 -26.28125 15.79467773 C-26.61125 16.78467773 -26.94125 17.77467773 -27.28125 18.79467773 C-28.8723143 20.23269955 -30.5298515 21.59793108 -32.21875 22.91967773 C-37.76883146 27.34376099 -43.05284153 31.99724437 -48.28125 36.79467773 C-49.27125 36.46467773 -50.26125 36.13467773 -51.28125 35.79467773 C-50.44207031 35.1546582 -50.44207031 35.1546582 -49.5859375 34.50170898 C-42.89766048 29.28657337 -36.72677989 23.6452574 -30.546875 17.84545898 C-27.49183547 14.9798319 -24.39675632 12.17257117 -21.18981934 9.47687626 C-19.26136104 7.82890677 -19.26136104 7.82890677 -17.57385254 5.98618984 C-12.02357307 0.36532565 -7.70185242 -0.18857614 0 0 Z " fill="#CD1B52" transform="translate(178.28125,256.205322265625)"/>
<path d="M0 0 C0.33 0.66 0.66 1.32 1 2 C41.26 2 81.52 2 123 2 C122.67 2.99 122.34 3.98 122 5 C122 4.34 122 3.68 122 3 C106.95228291 2.87324787 91.90527823 2.81010014 76.85702896 2.82121754 C69.86855622 2.82492192 62.88126201 2.80836494 55.89306641 2.74291992 C49.14275966 2.67976112 42.39435058 2.67464158 35.64382172 2.70416832 C33.07471703 2.70606486 30.50552155 2.68884593 27.93668365 2.65177345 C12.45983292 1.85570922 12.45983292 1.85570922 -1.10257339 8.02546978 C-3.3169056 10.21873797 -5.18942076 12.46178656 -7 15 C-7.66 14.67 -8.32 14.34 -9 14 C-7.64002446 7.95566426 -4.14348206 4.36505864 0 0 Z " fill="#90103F" transform="translate(158,254)"/>
<path d="M0 0 C-1.41764368 4.51068443 -3.68296006 6.70685804 -7 10 C-7.76699219 10.96679688 -8.53398437 11.93359375 -9.32421875 12.9296875 C-15.61006342 20.76361623 -15.61006342 20.76361623 -19.87109375 21.48828125 C-22.37600431 21.21469527 -24.60994119 20.78821089 -27 20 C-27 19.67 -27 19.34 -27 19 C-26.15050781 18.79375 -25.30101562 18.5875 -24.42578125 18.375 C-20.12229677 16.64771775 -17.48438224 14.18786333 -14.1875 11 C-13.60291016 10.4534375 -13.01832031 9.906875 -12.41601562 9.34375 C-9.30728755 6.48656168 -9.30728755 6.48656168 -7 3 C-2.5 0 -2.5 0 0 0 Z " fill="#9C1742" transform="translate(235,103)"/>
<path d="M0 0 C0.556875 0.2475 1.11375 0.495 1.6875 0.75 C0.59888672 1.36101562 0.59888672 1.36101562 -0.51171875 1.984375 C-3.35493897 3.77675371 -5.65910821 5.72134071 -8.125 8 C-8.99511719 8.79664063 -9.86523438 9.59328125 -10.76171875 10.4140625 C-11.60347656 11.18492187 -12.44523437 11.95578125 -13.3125 12.75 C-15.96575555 15.09878361 -18.63981079 17.42337613 -21.3125 19.75 C-22.81281934 21.06213495 -24.31282601 22.37462751 -25.8125 23.6875 C-26.97916667 24.70833333 -28.14583333 25.72916667 -29.3125 26.75 C-29.96386719 24.94555664 -29.96386719 24.94555664 -30.3125 22.75 C-28.46620888 20.36471099 -26.67002854 18.31658281 -24.5625 16.1875 C-24.01078125 15.61064453 -23.4590625 15.03378906 -22.890625 14.43945312 C-20.39834485 11.84232946 -17.86027749 9.29257601 -15.3125 6.75 C-14.9825 8.07 -14.6525 9.39 -14.3125 10.75 C-13.64154297 10.06164062 -13.64154297 10.06164062 -12.95703125 9.359375 C-3.37571839 -0.36494253 -3.37571839 -0.36494253 0 0 Z " fill="#A61945" transform="translate(165.3125,257.25)"/>
<path d="M0 0 C-0.75 2.4375 -0.75 2.4375 -2 5 C-2.61875 5.15339844 -3.2375 5.30679688 -3.875 5.46484375 C-6.51008709 6.12845943 -7.41965663 7.14360888 -9.25 9.125 C-19.59493671 19.82436709 -19.59493671 19.82436709 -24.5 20.4375 C-25.325 20.293125 -26.15 20.14875 -27 20 C-27 19.67 -27 19.34 -27 19 C-26.15050781 18.79375 -25.30101562 18.5875 -24.42578125 18.375 C-20.12229677 16.64771775 -17.48438224 14.18786333 -14.1875 11 C-13.60291016 10.4534375 -13.01832031 9.906875 -12.41601562 9.34375 C-9.30728755 6.48656168 -9.30728755 6.48656168 -7 3 C-2.5 0 -2.5 0 0 0 Z " fill="#AF1948" transform="translate(235,103)"/>
<path d="M0 0 C0.33 0.99 0.66 1.98 1 3 C-0.2578125 4.8671875 -0.2578125 4.8671875 -2.125 6.875 C-2.77210938 7.57367188 -3.41921875 8.27234375 -4.0859375 8.9921875 C-4.71757812 9.65476563 -5.34921875 10.31734375 -6 11 C-6.48726563 11.53882813 -6.97453125 12.07765625 -7.4765625 12.6328125 C-8.75 14 -8.75 14 -11 16 C-11.99 16 -12.98 16 -14 16 C-13.15695312 15.09636719 -12.31390625 14.19273437 -11.4453125 13.26171875 C-10.33843161 12.07041474 -9.23166684 10.87900285 -8.125 9.6875 C-7.56941406 9.09259766 -7.01382812 8.49769531 -6.44140625 7.88476562 C-5.90644531 7.30791016 -5.37148438 6.73105469 -4.8203125 6.13671875 C-4.32805176 5.60780029 -3.83579102 5.07888184 -3.32861328 4.53393555 C-1.79418204 2.82718765 -1.79418204 2.82718765 0 0 Z " fill="#7A0D37" transform="translate(273,125)"/>
<path d="M0 0 C0.33 0.66 0.66 1.32 1 2 C-4.96583144 10.81548975 -4.96583144 10.81548975 -10 12 C-3.84965831 3.55353075 -3.84965831 3.55353075 0 0 Z " fill="#770C35" transform="translate(188,221)"/>
<path d="M0 0 C0.66 0.33 1.32 0.66 2 1 C0.02 3.31 -1.96 5.62 -4 8 C-4.99 7.34 -5.98 6.68 -7 6 C-4.69 4.02 -2.38 2.04 0 0 Z " fill="#CB1D51" transform="translate(248,87)"/>
<path d="M0 0 C0.66 0.33 1.32 0.66 2 1 C-0.31 3.31 -2.62 5.62 -5 8 C-5.33 7.01 -5.66 6.02 -6 5 C-4.02 3.35 -2.04 1.7 0 0 Z " fill="#96163F" transform="translate(147,269)"/>
</svg>
