<?xml version="1.0" encoding="utf-8"?>
<!-- Generator: Adobe Illustrator 23.0.1, SVG Export Plug-In . SVG Version: 6.00 Build 0)  -->
<!DOCTYPE svg PUBLIC "-//W3C//DTD SVG 1.1//EN" "http://www.w3.org/Graphics/SVG/1.1/DTD/svg11.dtd" [
	<!ENTITY ns_extend "http://ns.adobe.com/Extensibility/1.0/">
	<!ENTITY ns_ai "http://ns.adobe.com/AdobeIllustrator/10.0/">
	<!ENTITY ns_graphs "http://ns.adobe.com/Graphs/1.0/">
	<!ENTITY ns_vars "http://ns.adobe.com/Variables/1.0/">
	<!ENTITY ns_imrep "http://ns.adobe.com/ImageReplacement/1.0/">
	<!ENTITY ns_sfw "http://ns.adobe.com/SaveForWeb/1.0/">
	<!ENTITY ns_custom "http://ns.adobe.com/GenericCustomNamespace/1.0/">
	<!ENTITY ns_adobe_xpath "http://ns.adobe.com/XPath/1.0/">
]>
<svg version="1.1" id="psmix_x5F_app_x5F_RGB.svg" xmlns:x="&ns_extend;" xmlns:i="&ns_ai;" xmlns:graph="&ns_graphs;"
	 xmlns="http://www.w3.org/2000/svg" xmlns:xlink="http://www.w3.org/1999/xlink" x="0px" y="0px" viewBox="0 0 2850.4 2778"
	 style="enable-background:new 0 0 2850.4 2778;" xml:space="preserve">
<style type="text/css">
	.st0{fill-rule:evenodd;clip-rule:evenodd;fill:#001D26;}
	.st1{fill-rule:evenodd;clip-rule:evenodd;fill:#00C8FF;}
	.st2{fill:#CAF1FE;}
</style>
<metadata>
	<sfw  xmlns="&ns_sfw;">
		<slices></slices>
		<sliceSourceBounds  bottomLeftOrigin="true" height="2778" width="2850.4" x="-1305.2" y="-1272"></sliceSourceBounds>
	</sfw>
</metadata>
<g>
	<path class="st0" d="M497.4,89C163.8,89,86.7,287.3,86.7,620.9l1.2,1622.9c0,334.8,104.5,446.4,438.1,446.4H2315
		c333.6,0,446.4-111.6,446.4-445.2V560.3c0-334.8-124.7-471.3-458.3-471.3H497.4z"/>
	<path class="st1" d="M0,510.5v1759.4C0,2551.2,216.1,2778,497.4,2778h1843.7c281.4,0,509.3-226.8,509.3-508.1V508.1
		C2849.2,226.8,2621.3,0,2339.9,0H497.4C216.1,0,0,226.8,0,508.1V510.5z M2303.1,119.9c226.8,0,426.2,186.4,426.2,413.1v1689.4
		c0,226.8-184,435.7-410.8,435.7H530.7c-226.8,0-410.8-192.3-410.8-419.1V556.8c0-225.6,184-436.9,409.6-436.9
		C529.5,119.9,2303.1,119.9,2303.1,119.9z"/>
	<path class="st1" d="M1060.2,1709.5c0,4.7,2.4,7.1,7.1,7.1h95c4.7,0,7.1-2.4,7.1-7.1v-254.1c16.6,0,24.9,1.2,49.9,1.2
		c144.8,0,263.6-70,263.6-231.5c0-124.7-77.2-220.8-254.1-220.8c-62.9,0-122.3,1.2-162.6,3.6c-4.7,0-5.9,3.6-5.9,7.1
		C1060.2,1015,1060.2,1709.5,1060.2,1709.5z M1170.6,1106.5c11.9-1.2,35.6-2.4,61.7-2.4c85.5,0,137.7,41.6,137.7,122.3
		c0,100.9-71.2,127-147.2,127c-24.9,0-36.8,0-52.2-1.2C1170.6,1352.2,1170.6,1106.5,1170.6,1106.5z M1856.7,1304.7
		c5.9,2.4,9.5-1.2,9.5-5.9v-87.9c0-4.7-1.2-9.5-5.9-13.1c-21.4-9.5-62.9-17.8-117.5-17.8c-111.6,0-175.7,68.9-175.7,150.8
		c0,73.6,38,117.5,128.2,161.5c64.1,33.2,79.5,53.4,79.5,77.2c0,28.5-21.4,49.9-71.2,49.9c-42.7,0-93.8-11.9-134.2-38
		c-4.7-3.6-7.1-1.2-7.1,4.7v93.8c0,4.7,1.2,8.3,4.7,10.7c27.3,15.4,80.7,27.3,136.5,27.3c105.7,0,184-54.6,184-156.7
		c0-68.9-32.1-115.2-131.8-163.8c-67.7-34.4-79.5-51-79.5-73.6c0-21.4,16.6-46.3,67.7-46.3
		C1783.1,1277.4,1828.3,1288.1,1856.7,1304.7z"/>
	<path class="st2" d="M1424.6,2273.4c-41.6,0-81.9-15.4-114-46.3L586.5,1503c-62.9-62.9-62.9-165,0-226.8L1310.6,552
		c62.9-62.9,165-62.9,226.8,0l0,0l724.2,724.2c62.9,62.9,62.9,165,0,226.8l-724.2,724.2C1506.5,2258,1466.2,2273.4,1424.6,2273.4z
		 M1424.6,540.2c-32.1,0-64.1,11.9-89,36.8l-724.2,724.2c-48.7,48.7-48.7,128.2,0,176.9l724.2,724.2c48.7,48.7,128.2,48.7,176.9,0
		l724.2-724.2c48.7-48.7,48.7-128.2,0-176.9L1512.5,577C1488.7,552,1456.7,540.2,1424.6,540.2z"/>
</g>
</svg>
