<?xml version="1.0" encoding="utf-8"?>
<!-- Generator: Adobe Illustrator 24.2.0, SVG Export Plug-In . SVG Version: 6.00 Build 0)  -->
<svg version="1.1" id="Layer_1" xmlns="http://www.w3.org/2000/svg" xmlns:xlink="http://www.w3.org/1999/xlink" x="0px" y="0px"
	 width="256px" height="256px" viewBox="0 0 256 256" style="enable-background:new 0 0 256 256;" xml:space="preserve">
<style type="text/css">
	.st0{fill:#B30B00;}
	.st1{fill:#FFFFFF;}
</style>
<g>
	<path class="st0" d="M45.5,3.2h165.1c24.7,0,45.5,19.9,45.5,45.5v158.7c0,24.7-19.9,45.5-45.5,45.5H45.5
		C20.7,252.8,0,232.9,0,207.4V48.6C0,23.1,19.9,3.2,45.5,3.2z"/>
	<path class="st1" d="M204.2,147.5c-12-12.8-44.7-7.2-52.6-6.4c-11.2-11.2-19.1-23.9-22.3-28.7c4-12,7.2-25.5,7.2-38.3
		c0-12-4.8-23.9-17.5-23.9c-4.8,0-8.8,2.4-11.2,6.4c-5.6,9.6-3.2,28.7,5.6,48.6c-4.8,14.4-12.8,35.9-22.3,52.6
		c-12.8,4.8-40.7,17.5-43.1,31.9c-0.8,4,0.8,8.8,4,11.2c3.2,3.2,7.2,4,11.2,4c16.7,0,33.5-23.1,45.5-43.9c9.6-3.2,24.7-8,39.9-10.4
		c17.5,16,33.5,18.3,41.5,18.3c11.2,0,15.2-4.8,16.7-8.8C208.9,156.3,207.4,150.7,204.2,147.5z M193,155.5c-0.8,3.2-4.8,6.4-12,4.8
		c-8.8-2.4-16.7-6.4-23.1-12c5.6-0.8,19.1-2.4,28.7-0.8C189.8,148.3,193.8,150.7,193,155.5z M115.6,59.8c0.8-1.6,2.4-2.4,4-2.4
		c4,0,4.8,4.8,4.8,8.8c-0.8,9.6-2.4,19.9-5.6,28.7C112.4,77.4,113.2,64.6,115.6,59.8z M114.8,149.9c4-7.2,8.8-20.7,10.4-25.5
		c4,7.2,11.2,15.2,14.4,19.1C140.4,142.8,126,145.9,114.8,149.9z M87.7,168.3C76.6,185.8,66.2,197,59.8,197c-0.8,0-2.4,0-3.2-0.8
		c-0.8-1.6-1.6-3.2-0.8-4.8C56.6,185,69.4,176.2,87.7,168.3z"/>
</g>
</svg>
