<svg xmlns="http://www.w3.org/2000/svg" width="144" height="140" viewBox="0 0 108 105"><path d="M0 0h108v105H0V0m60.45 17.66c-4.78 1.4-7.94 5.77-9.08 10.45-2.8 10.01-10.81 18.35-20.84 21.22-4.09 1.03-7.85 3.69-9.54 7.63-3.17 6.28-.19 14.88 6.38 17.58 5.95 2.81 12.4-.24 18.58.16 7.99-.15 15.44 3.89 21.02 9.36 3.46 3.42 8.89 4.85 13.51 3.13 6.39-2.14 10.27-9.66 8.26-16.1-.83-3.61-3.7-6.12-5.87-8.94-4.71-5.93-7.22-13.57-6.8-21.15.02-4.67 2.45-9.25 1.07-13.91-1.62-7.09-9.75-11.91-16.69-9.43zm-7.06 25.97c7.38-3.1 16.32 2.69 17.09 10.51 1.19 7.04-4.29 14.19-11.39 14.85-6.66.72-13.11-4.54-13.96-11.13a13.1 13.1 0 0 1 8.26-14.23z" fill="#480101"/><path fill="#f5f5f5" d="M60.45 17.66c6.94-2.48 15.07 2.34 16.69 9.43 1.38 4.66-1.05 9.24-1.07 13.91-.42 7.58 2.09 15.22 6.8 21.15 2.17 2.82 5.04 5.33 5.87 8.94 2.01 6.44-1.87 13.96-8.26 16.1-4.62 1.72-10.05.29-13.51-3.13-5.58-5.47-13.03-9.51-21.02-9.36-6.18-.4-12.63 2.65-18.58-.16-6.57-2.7-9.55-11.3-6.38-17.58 1.69-3.94 5.45-6.6 9.54-7.63 10.03-2.87 18.04-11.21 20.84-21.22 1.14-4.68 4.3-9.05 9.08-10.45m-7.06 25.97a13.1 13.1 0 0 0-8.26 14.23c.85 6.59 7.3 11.85 13.96 11.13 7.1-.66 12.58-7.81 11.39-14.85-.77-7.82-9.71-13.61-17.09-10.51z"/></svg>