<svg xmlns="http://www.w3.org/2000/svg"  viewBox="0 0 48 48" width="240px" height="240px"><path fill="#fe651e" d="M42,12c0-3.3-2.7-6-6-6H12c-3.3,0-6,2.7-6,6v24c0,3.3,2.7,6,6,6h24c3.3,0,6-2.7,6-6V12z"/><path fill="#261c00" d="M40,36c0,2.2-1.8,4-4,4H12c-2.2,0-4-1.8-4-4V12c0-2.2,1.8-4,4-4h24c2.2,0,4,1.8,4,4V36z"/><path fill="#fe651e" d="M23,18v12c0,0.6-0.4,1-1,1h-8c-0.6,0-1-0.4-1-1V18c0-0.6,0.4-1,1-1h8C22.6,17,23,17.4,23,18z"/><path fill="#fe651e" d="M35,21v9c0,0.5-0.5,1-1,1h-8c-0.5,0-1-0.5-1-1V18c0-0.5,0.5-1,1-1h5v3c0,0.6,0.4,1,1,1H35z"/></svg>