<?xml version="1.0" encoding="UTF-8"?>
<svg id="_ÎÓÈ_1" data-name="—ÎÓÈ 1" xmlns="http://www.w3.org/2000/svg" viewBox="0 0 200 200">
  <defs>
    <style>
      .cls-1 {
        fill: #fff;
        fill-rule: evenodd;
        stroke-width: 0px;
      }
    </style>
  </defs>
  <g>
    <path class="cls-1" d="M131.66,72.28l.4,5.34c1.74.99,3.34,2.17,4.77,3.5l5.21-1.22,3.41,4.75-2.82,4.55c.81,1.79,1.42,3.68,1.8,5.63l4.93,2.07-.03,5.85-4.96,2.03c-.2.96-.45,1.91-.76,2.86-.31.95-.68,1.87-1.09,2.75l2.77,4.58-3.46,4.71-5.2-1.27c-1.47,1.34-3.08,2.49-4.8,3.45l-.45,5.34-5.57,1.78-3.46-4.08c-1.94.22-3.92.22-5.91-.03l-3.5,4.05-5.55-1.83-.4-5.33c-1.74-.99-3.34-2.17-4.77-3.5l-5.21,1.22-3.41-4.75,2.82-4.55c-.81-1.79-1.42-3.68-1.8-5.63l-4.93-2.08.03-5.85,4.95-2.03c.2-.96.45-1.91.76-2.86.31-.95.68-1.87,1.09-2.75l-2.77-4.58,3.46-4.71,5.2,1.27c1.47-1.34,3.08-2.49,4.8-3.45l.45-5.34,5.57-1.78,3.46,4.08c1.94-.22,3.92-.22,5.91.03l3.5-4.05,5.55,1.83h0ZM113.17,118.94c10.64,3.51,22.11-2.26,25.63-12.9,3.51-10.64-2.26-22.11-12.9-25.63-10.64-3.52-22.11,2.26-25.63,12.9-3.51,10.64,2.26,22.11,12.9,25.63Z"/>
    <path class="cls-1" d="M77.1,102.22l2.09,4.47c2.35.55,4.52,1.56,6.43,2.93l4.82-1.5,3.6,4.22-2.36,4.76c.84,1.92,1.35,4.02,1.48,6.23l4.59,3.12-1.06,5.45-5.77,1.25c-.91,1.63-2.06,3.11-3.41,4.39l.46,6.05-4.92,2.57-4.83-3.94c-.84.15-1.71.24-2.59.27-.88.03-1.75,0-2.6-.1l-4.56,4.25-5.07-2.24.07-6.07c-1.43-1.19-2.68-2.59-3.69-4.16l-5.84-.87-1.41-5.37,4.38-3.41c-.02-2.21.36-4.34,1.07-6.31l-2.66-4.6,3.32-4.45,4.91,1.18c1.81-1.49,3.92-2.64,6.23-3.34l1.79-4.59,5.55-.18h0ZM75.48,138.07c7.58-.25,13.52-6.59,13.27-14.16-.25-7.58-6.59-13.52-14.16-13.27-7.58.25-13.52,6.59-13.27,14.16.25,7.58,6.59,13.52,14.16,13.27Z"/>
  </g>
  <path class="cls-1" d="M161.62,38.72H38.38c-4.08,0-7.39,3.32-7.39,7.39v107.78c0,4.08,3.32,7.39,7.39,7.39h123.24c4.08,0,7.39-3.32,7.39-7.39V46.11c0-4.08-3.32-7.39-7.39-7.39ZM72,45.32c2.87,0,5.2,2.33,5.2,5.2s-2.33,5.2-5.2,5.2-5.2-2.33-5.2-5.2,2.33-5.2,5.2-5.2ZM57.65,45.32c2.87,0,5.2,2.33,5.2,5.2s-2.33,5.2-5.2,5.2-5.2-2.33-5.2-5.2,2.33-5.2,5.2-5.2ZM43.31,45.32c2.87,0,5.2,2.33,5.2,5.2s-2.33,5.2-5.2,5.2-5.2-2.33-5.2-5.2,2.33-5.2,5.2-5.2ZM162.65,153.89c0,.57-.46,1.03-1.03,1.03H38.38c-.57,0-1.03-.46-1.03-1.03V62.1h125.29v91.79Z"/>
</svg>