<?xml version="1.0" encoding="UTF-8" standalone="no"?>
<svg
   xmlns:dc="http://purl.org/dc/elements/1.1/"
   xmlns:cc="http://creativecommons.org/ns#"
   xmlns:rdf="http://www.w3.org/1999/02/22-rdf-syntax-ns#"
   xmlns:svg="http://www.w3.org/2000/svg"
   xmlns="http://www.w3.org/2000/svg"
   xmlns:sodipodi="http://sodipodi.sourceforge.net/DTD/sodipodi-0.dtd"
   xmlns:inkscape="http://www.inkscape.org/namespaces/inkscape"
   version="1.1"
   id="Ebene_1"
   x="0px"
   y="0px"
   viewBox="0 0 128 128"
   xml:space="preserve"
   sodipodi:docname="BWS.svg"
   width="128"
   height="128"
   inkscape:version="1.0.2 (e86c870879, 2021-01-15, custom)"><metadata
   id="metadata39"><rdf:RDF><cc:Work
       rdf:about=""><dc:format>image/svg+xml</dc:format><dc:type
         rdf:resource="http://purl.org/dc/dcmitype/StillImage" /><dc:title></dc:title></cc:Work></rdf:RDF></metadata><defs
   id="defs37" /><sodipodi:namedview
   pagecolor="#ffffff"
   bordercolor="#666666"
   borderopacity="1"
   objecttolerance="10"
   gridtolerance="10"
   guidetolerance="10"
   inkscape:pageopacity="0"
   inkscape:pageshadow="2"
   inkscape:window-width="2560"
   inkscape:window-height="1391"
   id="namedview35"
   showgrid="false"
   inkscape:zoom="5.1905253"
   inkscape:cx="119.95"
   inkscape:cy="97.099998"
   inkscape:window-x="0"
   inkscape:window-y="0"
   inkscape:window-maximized="1"
   inkscape:current-layer="Ebene_1" />
<style
   type="text/css"
   id="style2">
	.st0{fill:#FF5A00;}
	.st1{fill:#FFFFFF;}
	.st2{fill:#0076C7;}
	.st3{fill:#3FAFA1;}
</style>
<path
   class="st0"
   d="M 63.999926,0 C 28.611732,0 0,28.687059 0,64 0,99.388235 28.687026,128 63.999926,128 99.38812,128 127.99985,99.312941 127.99985,64 128.07515,28.611765 99.38812,0 63.999926,0 Z"
   id="path4"
   style="stroke-width:0.75294" />
<path
   class="st1"
   d="m 34.861136,78.832941 c -2.334115,0 -4.29176,-1.882353 -4.29176,-4.291765 0,-2.334117 1.882351,-4.291764 4.29176,-4.291764 2.334115,0 4.29176,1.882353 4.29176,4.291764 0,2.334118 -1.882351,4.291765 -4.29176,4.291765 z"
   id="path6"
   style="stroke-width:0.75294" />
<path
   class="st1"
   d="m 34.861136,67.162353 c -2.334115,0 -4.29176,-1.882353 -4.29176,-4.291765 0,-2.334117 1.882351,-4.291764 4.29176,-4.291764 2.334115,0 4.29176,1.882352 4.29176,4.291764 0,2.409412 -1.882351,4.291765 -4.29176,4.291765 z"
   id="path8"
   style="stroke-width:0.75294" />
<path
   class="st1"
   d="m 46.531711,78.832941 c -2.334115,0 -4.29176,-1.882353 -4.29176,-4.291765 0,-2.334117 1.882351,-4.291764 4.29176,-4.291764 2.334115,0 4.29176,1.882353 4.29176,4.291764 0,2.334118 -1.882351,4.291765 -4.29176,4.291765 z"
   id="path10"
   style="stroke-width:0.75294" />
<path
   class="st1"
   d="m 46.531711,67.162353 c -2.334115,0 -4.29176,-1.882353 -4.29176,-4.291765 0,-2.334117 1.882351,-4.291764 4.29176,-4.291764 2.334115,0 4.29176,1.882352 4.29176,4.291764 0,2.409412 -1.882351,4.291765 -4.29176,4.291765 z"
   id="path12"
   style="stroke-width:0.75294" />
<path
   class="st1"
   d="m 46.531711,55.491765 c -2.334115,0 -4.29176,-1.882353 -4.29176,-4.291765 0,-2.334118 1.882351,-4.291765 4.29176,-4.291765 2.334115,0 4.29176,1.882353 4.29176,4.291765 0,2.409412 -1.882351,4.291765 -4.29176,4.291765 z"
   id="path14"
   style="stroke-width:0.75294" />
<path
   class="st1"
   d="m 58.202286,67.162353 c -2.334115,0 -4.29176,-1.882353 -4.29176,-4.291765 0,-2.334117 1.882351,-4.291764 4.29176,-4.291764 2.334115,0 4.291759,1.882352 4.291759,4.291764 0,2.409412 -1.957644,4.291765 -4.291759,4.291765 z"
   id="path16"
   style="stroke-width:0.75294" />
<path
   class="st1"
   d="m 58.202286,55.491765 c -2.334115,0 -4.29176,-1.882353 -4.29176,-4.291765 0,-2.334118 1.882351,-4.291765 4.29176,-4.291765 2.334115,0 4.291759,1.882353 4.291759,4.291765 0,2.409412 -1.957644,4.291765 -4.291759,4.291765 z"
   id="path18"
   style="stroke-width:0.75294" />
<path
   class="st1"
   d="m 69.87286,67.162353 c -2.334114,0 -4.291759,-1.882353 -4.291759,-4.291765 0,-2.334117 1.88235,-4.291764 4.291759,-4.291764 2.334115,0 4.29176,1.882352 4.29176,4.291764 -0.07529,2.409412 -1.957645,4.291765 -4.29176,4.291765 z"
   id="path20"
   style="stroke-width:0.75294" />
<path
   class="st1"
   d="m 69.87286,55.491765 c -2.334114,0 -4.291759,-1.882353 -4.291759,-4.291765 0,-2.334118 1.88235,-4.291765 4.291759,-4.291765 2.334115,0 4.29176,1.882353 4.29176,4.291765 -0.07529,2.409412 -1.957645,4.291765 -4.29176,4.291765 z"
   id="path22"
   style="stroke-width:0.75294" />
<path
   class="st1"
   d="m 81.468141,78.832941 c -2.334115,0 -4.29176,-1.882353 -4.29176,-4.291765 0,-2.334117 1.882351,-4.291764 4.29176,-4.291764 2.334115,0 4.29176,1.882353 4.29176,4.291764 0,2.334118 -1.882351,4.291765 -4.29176,4.291765 z"
   id="path24"
   style="stroke-width:0.75294" />
<path
   class="st1"
   d="m 81.468141,67.162353 c -2.334115,0 -4.29176,-1.882353 -4.29176,-4.291765 0,-2.334117 1.882351,-4.291764 4.29176,-4.291764 2.334115,0 4.29176,1.882352 4.29176,4.291764 0,2.409412 -1.882351,4.291765 -4.29176,4.291765 z"
   id="path26"
   style="stroke-width:0.75294" />
<path
   class="st1"
   d="m 81.468141,55.491765 c -2.334115,0 -4.29176,-1.882353 -4.29176,-4.291765 0,-2.334118 1.882351,-4.291765 4.29176,-4.291765 2.334115,0 4.29176,1.882353 4.29176,4.291765 0,2.409412 -1.882351,4.291765 -4.29176,4.291765 z"
   id="path28"
   style="stroke-width:0.75294" />
<path
   class="st1"
   d="m 93.138716,78.832941 c -2.334115,0 -4.29176,-1.882353 -4.29176,-4.291765 0,-2.334117 1.882351,-4.291764 4.29176,-4.291764 2.334115,0 4.29176,1.882353 4.29176,4.291764 0,2.334118 -1.957645,4.291765 -4.29176,4.291765 z"
   id="path30"
   style="stroke-width:0.75294" />
<path
   class="st1"
   d="m 93.138716,67.162353 c -2.334115,0 -4.29176,-1.882353 -4.29176,-4.291765 0,-2.334117 1.882351,-4.291764 4.29176,-4.291764 2.334115,0 4.29176,1.882352 4.29176,4.291764 0,2.409412 -1.957645,4.291765 -4.29176,4.291765 z"
   id="path32"
   style="stroke-width:0.75294" />
</svg>
