<svg width="85" height="70" viewBox="0 0 85 70" fill="none" xmlns="http://www.w3.org/2000/svg">
<path fill-rule="evenodd" clip-rule="evenodd" d="M34.9625 69.8792C15.6538 69.8792 0 54.2124 0 34.8863C0 16.4835 14.1936 1.39912 32.2219 0C32.5852 0.07875 32.6254 0.474075 32.0978 1.8046L20.3621 40.0758C20.042 41.1613 20.0182 41.5389 21.4567 41.3073L33.524 39.9107C34.7447 39.7639 34.9366 40.0695 34.5915 41.2844C33.2651 46.0052 29.2816 60.1792 27.965 64.8629C27.8462 65.2154 27.8831 65.8665 28.4889 64.9878C32.6927 58.8207 49.5813 34.044 53.8041 27.8489C54.3466 27.05 54.4373 26.447 53.3611 26.5873L39.6725 28.0296C38.5457 28.2343 38.3729 27.7109 38.9245 26.7728C40.824 22.6763 46.3815 10.6908 48.8714 5.3207C49.6052 3.7282 49.7267 3.20443 51.212 3.89708C62.3375 9.75284 69.9255 21.4321 69.9255 34.8862C69.9251 54.2124 54.2718 69.8792 34.9625 69.8792Z" fill="#FAA140"/>
<rect x="45" y="51.9641" width="40" height="17" rx="3" fill="white"/>
<path d="M72.7838 59.0566C72.7838 59.2745 72.7837 59.4925 72.7838 59.7104C72.7845 61.5078 72.783 63.3051 72.7895 65.1025C72.7901 65.2718 72.7463 65.3387 72.5709 65.3377C71.8668 65.3342 71.1626 65.3387 70.4585 65.3444C70.2884 65.3458 70.2338 65.2763 70.2341 65.1052C70.2398 61.8992 70.2412 58.6933 70.2404 55.4874C70.2403 54.8823 70.1877 54.9767 70.7743 54.975C71.2364 54.9736 71.6988 54.9822 72.1606 54.9702C72.3445 54.9654 72.4732 55.012 72.595 55.159C73.5615 56.3262 74.5362 57.4864 75.5078 58.6493C75.5358 58.6829 75.5567 58.7224 75.5809 58.7591C75.6108 58.7724 75.6407 58.7857 75.6706 58.799C75.6991 58.7387 75.7163 58.6691 75.7575 58.6194C76.7067 57.4747 77.6599 56.3333 78.6081 55.1878C78.7331 55.0369 78.8634 54.9625 79.0728 54.9694C79.6297 54.9879 80.1877 54.9819 80.7451 54.9723C80.9286 54.9692 81.0007 55.0108 81 55.2142C80.9927 57.3337 80.9955 59.4532 80.9955 61.5728C80.9955 62.7243 80.996 63.8758 80.995 65.0273C80.9948 65.3311 80.9898 65.3328 80.689 65.335C80.0217 65.34 79.3544 65.3451 78.6872 65.3531C78.5285 65.355 78.4432 65.3061 78.444 65.126C78.452 63.197 78.4553 61.268 78.4587 59.339C78.4589 59.2453 78.4483 59.1517 78.4388 58.9926C78.2846 59.1705 78.1658 59.3025 78.0525 59.439C77.3515 60.2836 76.6526 61.1299 75.9509 61.974C75.7656 62.197 75.4647 62.2038 75.2762 61.9781C74.7503 61.3484 74.2329 60.7116 73.7115 60.0783C73.4244 59.7296 73.1359 59.3821 72.8479 59.0341C72.8265 59.0416 72.8052 59.0491 72.7838 59.0566Z" fill="#FAA140"/>
<path d="M63.379 61.1747C63.379 61.414 63.3784 61.6614 63.379 61.9088C63.3816 62.9945 63.382 64.0802 63.3901 65.1657C63.3914 65.3293 63.3069 65.3403 63.1825 65.3397C62.5883 65.337 61.994 65.3379 61.3998 65.3387C60.8614 65.3394 60.8549 65.34 60.8544 64.8039C60.8521 62.2656 60.8537 59.7272 60.854 57.1889C60.8541 56.5359 60.8583 55.883 60.8523 55.2302C60.8506 55.0415 60.8954 54.9621 61.1121 54.9642C62.5279 54.9778 63.9438 54.9703 65.3596 54.9796C66.2554 54.9855 67.0656 55.2431 67.7224 55.8762C68.7954 56.9105 68.8744 58.6165 68.0209 59.6571C67.8835 59.8247 67.7089 59.9655 67.5374 60.1007C67.3662 60.2357 67.1772 60.3482 66.993 60.4727C66.9936 60.4783 66.99 60.499 66.9971 60.5036C67.5987 60.9038 67.9145 61.5199 68.2061 62.1436C68.6618 63.1185 69.0927 64.105 69.5321 65.0875C69.6252 65.2957 69.5871 65.3423 69.3634 65.3412C68.6079 65.3374 67.8522 65.3315 67.0968 65.3419C66.896 65.3446 66.7938 65.275 66.7144 65.0936C66.2827 64.1078 65.8574 63.1185 65.3899 62.1497C65.2515 61.8628 65.0036 61.6167 64.7662 61.3944C64.6385 61.2747 64.4315 61.2063 64.2516 61.1837C63.9781 61.1492 63.6971 61.1747 63.379 61.1747ZM63.3795 59.1625C63.9557 59.1625 64.5042 59.1856 65.0495 59.1535C65.3604 59.1352 65.6395 58.9754 65.8144 58.697C66.2133 58.0621 65.9586 57.0366 65.02 56.9576C64.5386 56.917 64.0529 56.9198 63.5693 56.9225C63.5057 56.9229 63.389 57.0387 63.3878 57.1028C63.3745 57.7918 63.3795 58.4811 63.3795 59.1625Z" fill="#FAA140"/>
<path d="M60.3109 65.312C60.2016 65.3249 60.1035 65.3461 60.0053 65.3465C59.2792 65.35 58.5532 65.3474 57.8271 65.3516C57.6837 65.3524 57.5946 65.3019 57.5417 65.1642C57.3295 64.6109 57.1073 64.0614 56.8978 63.5071C56.8413 63.3573 56.7756 63.3065 56.5981 63.3076C55.2853 63.3163 53.9722 63.3079 52.6593 63.2956C52.4698 63.2939 52.3733 63.3458 52.3106 63.5362C52.13 64.0848 51.9306 64.6274 51.7236 65.1666C51.6946 65.2422 51.5826 65.3352 51.5078 65.3363C50.6873 65.3484 49.8667 65.3439 49 65.3439C49.0501 65.1847 49.0815 65.0616 49.1269 64.9441C49.6411 63.6128 50.1552 62.2814 50.6741 60.9519C51.0971 59.8684 51.5295 58.7885 51.9523 57.7049C52.2713 56.8875 52.5849 56.068 52.8935 55.2466C52.9686 55.0467 53.0639 54.9591 53.3045 54.9662C54.0962 54.9896 54.8891 54.981 55.6814 54.9714C55.8443 54.9694 55.9319 55.0106 55.9967 55.1643C56.392 56.1024 56.796 57.0367 57.1974 57.9722C57.6736 59.082 58.1509 60.1913 58.6261 61.3014C59.1791 62.5932 59.7306 63.8855 60.2818 65.1781C60.2954 65.21 60.2972 65.2469 60.3109 65.312ZM53.0923 61.4092C54.0992 61.4092 55.0536 61.4092 56.0443 61.4092C55.5272 60.1208 55.0231 58.8649 54.4959 57.5511C54.0165 58.8689 53.5579 60.1293 53.0923 61.4092Z" fill="#FAA140"/>
</svg>
