<svg xmlns="http://www.w3.org/2000/svg" xmlns:xlink="http://www.w3.org/1999/xlink" version="1.1" baseProfile="full" width="1005" height="296">
  <!--
  <rect
     height="293.33301"
     width="1002.67"
     stroke-opacity="1"
     stroke="#ffffff"
     stroke-linejoin="round"
     stroke-width="2.16267"
     fill="#F6F6F6"
     y="1.0813349"
     x="1.0813349" />
     -->
  <g transform="translate(-56.298666,-167.38966)">
		<defs>
			<rect id="SVG_CLIPPER1_" x="0" y="-0.373413" width="1122.52" height="793.707"/>
		</defs>
		<clipPath id="SVG_CLIPPER2_">
			<use xlink:href="#SVG_CLIPPER1_" overflow="visible"/>
		</clipPath>
		<g clip-path="url(#SVG_CLIPPER2_)">
			<path fill="#808285" fill-opacity="1" stroke-linejoin="round" d="M 115.457,420.295L 110.653,420.295L 110.653,402.736C 110.653,399.018 109.282,396.972 105.586,396.972C 102.475,396.972 99.0968,398.963 97.6715,400.22L 97.6715,420.295L 92.8675,420.295L 92.8675,393.358L 97.0901,393.358L 97.3528,396.554C 99.9941,394.458 103.371,392.78 107.119,392.78C 112.923,392.78 115.457,395.924 115.457,402.004L 115.457,420.295 Z "/>
			<path fill="#808285" fill-opacity="1" stroke-linejoin="round" d="M 138.725,408.084C 137.988,407.977 136.984,407.926 135.981,407.926C 132.236,407.926 127.221,408.293 127.221,412.905C 127.221,415.212 128.065,417.201 131.758,417.201C 134.558,417.201 137.248,415.735 138.725,414.164M 143.425,415.212C 143.425,416.68 143.688,417.308 145.058,417.308C 145.536,417.308 146.01,417.201 146.696,416.992L 146.906,419.983C 145.85,420.504 144.48,420.82 143.158,420.82C 140.469,420.82 139.254,419.353 138.992,417.621C 136.88,419.717 134.081,420.924 130.281,420.924C 123.421,420.924 122.258,416.312 122.258,413.693C 122.258,406.511 128.646,404.52 136.298,404.52C 137.144,404.52 137.936,404.572 138.673,404.624L 138.673,402.004C 138.673,398.599 137.725,396.501 133.292,396.501C 129.544,396.501 128.117,397.969 127.536,400.956L 123.314,400.169C 124.158,395.137 127.432,392.78 133.713,392.78C 140.414,392.78 143.425,395.348 143.425,402.056L 143.425,415.212 Z "/>
			<path fill="#808285" fill-opacity="1" stroke-linejoin="round" d="M 157.245,420.295L 146.901,393.358L 152.126,393.358L 160.097,415.524L 160.149,415.524L 168.011,393.358L 172.922,393.358L 162.734,420.295L 157.245,420.295 Z "/>
			<path fill="#808285" fill-opacity="1" stroke-linejoin="round" d="M 182.309,420.295L 177.509,420.295L 177.509,393.357L 182.309,393.357M 179.987,388.168C 177.824,388.168 176.609,386.909 176.609,384.707C 176.609,382.508 177.824,381.301 179.987,381.301C 182.153,381.301 183.42,382.508 183.42,384.707C 183.42,386.909 182.153,388.168 179.987,388.168 Z "/>
			<path fill="#808285" fill-opacity="1" stroke-linejoin="round" d="M 200.728,396.605C 196.928,396.605 193.865,398.231 193.865,402.372C 193.865,405.881 195.82,408.136 200.621,408.136C 204.58,408.136 207.272,406.091 207.272,402.476C 207.272,398.44 204.791,396.605 200.728,396.605 Z M 204.687,420.872L 195.872,420.346C 193.813,421.711 192.865,422.811 192.865,424.595C 192.865,426.845 194.709,428.368 200.832,428.368C 206.428,428.368 209.224,426.952 209.224,424.12C 209.224,422.181 208.38,421.133 204.687,420.872 Z M 208.432,395.244C 209.276,393.303 210.703,391.732 212.709,391.732C 213.553,391.732 214.291,391.889 215.084,392.151L 215.084,395.976C 213.447,395.873 211.284,396.134 209.909,396.553C 211.232,398.073 211.917,400.221 211.917,402.424C 211.917,408.504 207.061,412.066 200.832,412.066C 199.039,412.066 197.351,411.909 195.976,411.439C 195.239,412.118 194.288,412.855 194.288,413.955C 194.288,415.003 194.869,415.789 197.772,415.999L 205.32,416.521C 210.913,416.889 214.187,418.251 214.187,423.547C 214.187,430.148 207.061,432.141 200.253,432.141C 190.12,432.141 188.061,428.681 188.061,425.484C 188.061,422.443 190.224,420.346 192.443,419.299L 192.443,419.247C 190.595,418.514 189.487,417.467 189.487,415.525C 189.487,413.219 191.176,411.7 193.076,410.232C 190.595,408.923 189.065,406.145 189.065,402.685C 189.065,396.763 193.551,392.78 200.569,392.78C 203.895,392.78 206.639,393.461 208.432,395.244 Z "/>
			<path fill="#808285" fill-opacity="1" stroke-linejoin="round" d="M 233.919,408.084C 233.181,407.977 232.177,407.926 231.175,407.926C 227.429,407.926 222.415,408.293 222.415,412.905C 222.415,415.212 223.259,417.201 226.952,417.201C 229.752,417.201 232.441,415.735 233.919,414.164M 238.619,415.212C 238.619,416.68 238.881,417.308 240.252,417.308C 240.729,417.308 241.204,417.201 241.889,416.992L 242.1,419.983C 241.044,420.504 239.673,420.82 238.352,420.82C 235.663,420.82 234.448,419.353 234.185,417.621C 232.073,419.717 229.275,420.924 225.475,420.924C 218.615,420.924 217.452,416.312 217.452,413.693C 217.452,406.511 223.84,404.52 231.492,404.52C 232.337,404.52 233.129,404.572 233.867,404.624L 233.867,402.004C 233.867,398.599 232.919,396.501 228.485,396.501C 224.737,396.501 223.311,397.969 222.729,400.956L 218.508,400.169C 219.352,395.137 222.625,392.78 228.907,392.78C 235.608,392.78 238.619,395.348 238.619,402.056L 238.619,415.212 Z "/>
			<path fill="#808285" fill-opacity="1" stroke-linejoin="round" d="M 261.727,419.143C 260.409,420.034 257.613,420.923 255.079,420.923C 250.013,420.923 247.427,418.618 247.427,413.218L 247.427,397.182L 243.257,397.182L 243.257,393.357L 247.427,393.357L 247.427,385.546L 252.227,384.814L 252.227,393.357L 259.723,393.357L 259.723,397.182L 252.227,397.182L 252.227,412.59C 252.227,415.422 252.861,416.993 256.134,416.993C 257.771,416.993 259.723,416.311 260.883,415.683L 261.727,419.143 Z "/>
			<path fill="#808285" fill-opacity="1" stroke-linejoin="round" d="M 271.384,420.295L 266.58,420.295L 266.58,393.357L 271.384,393.357M 269.061,388.168C 266.897,388.168 265.683,386.909 265.683,384.707C 265.683,382.508 266.897,381.301 269.061,381.301C 271.224,381.301 272.491,382.508 272.491,384.707C 272.491,386.909 271.224,388.168 269.061,388.168 Z "/>
			<path fill="#808285" fill-opacity="1" stroke-linejoin="round" d="M 298.351,406.616C 298.351,399.172 295.711,396.711 291.013,396.711C 286.211,396.711 282.992,399.54 282.992,406.719C 282.992,413.847 285.525,417.099 290.803,417.099C 295.499,417.099 298.351,414.267 298.351,406.616 Z M 278.032,406.93C 278.032,398.231 282.569,392.78 291.225,392.78C 299.828,392.78 303.365,398.282 303.365,406.3C 303.365,415.16 299.669,420.924 290.54,420.924C 281.144,420.924 278.032,414.896 278.032,406.93 Z "/>
			<path fill="#808285" fill-opacity="1" stroke-linejoin="round" d="M 332.808,420.295L 328.004,420.295L 328.004,402.736C 328.004,399.018 326.633,396.972 322.937,396.972C 319.827,396.972 316.448,398.963 315.023,400.22L 315.023,420.295L 310.219,420.295L 310.219,393.358L 314.441,393.358L 314.704,396.554C 317.345,394.458 320.723,392.78 324.471,392.78C 330.275,392.78 332.808,395.924 332.808,402.004L 332.808,420.295 Z "/>
			<path fill="#808285" fill-opacity="1" stroke-linejoin="round" d="M 367.369,408.084C 366.629,407.977 365.628,407.926 364.625,407.926C 360.877,407.926 355.863,408.293 355.863,412.905C 355.863,415.212 356.707,417.201 360.403,417.201C 363.199,417.201 365.892,415.735 367.369,414.164M 372.065,415.212C 372.065,416.68 372.329,417.308 373.703,417.308C 374.177,417.308 374.651,417.201 375.34,416.992L 375.551,419.983C 374.495,420.504 373.121,420.82 371.803,420.82C 369.111,420.82 367.896,419.353 367.632,417.621C 365.521,419.717 362.725,420.924 358.925,420.924C 352.063,420.924 350.903,416.312 350.903,413.693C 350.903,406.511 357.288,404.52 364.94,404.52C 365.784,404.52 366.577,404.572 367.317,404.624L 367.317,402.004C 367.317,398.599 366.365,396.501 361.932,396.501C 358.184,396.501 356.761,397.969 356.18,400.956L 351.959,400.169C 352.803,395.137 356.073,392.78 362.355,392.78C 369.059,392.78 372.065,395.348 372.065,402.056L 372.065,415.212 Z "/>
			<path fill="#808285" fill-opacity="1" stroke-linejoin="round" d="M 403.57,420.295L 398.766,420.295L 398.766,402.736C 398.766,399.018 397.393,396.972 393.7,396.972C 390.585,396.972 387.208,398.963 385.782,400.22L 385.782,420.295L 380.981,420.295L 380.981,393.358L 385.204,393.358L 385.466,396.554C 388.104,394.458 391.482,392.78 395.23,392.78C 401.037,392.78 403.57,395.924 403.57,402.004L 403.57,420.295 Z "/>
			<path fill="#808285" fill-opacity="1" stroke-linejoin="round" d="M 429.054,399.227C 427.787,398.282 425.254,396.866 422.142,396.866C 416.917,396.866 415.017,401.007 415.017,407.246C 415.017,413.797 417.075,416.941 421.825,416.941C 424.621,416.941 427.365,415.315 429.054,413.638M 433.806,420.295L 429.794,420.295L 429.425,417.411L 429.373,417.359C 427.05,419.457 424.306,420.923 420.398,420.923C 414.225,420.923 410.054,417.047 410.054,407.246C 410.054,396.605 415.491,392.78 421.509,392.78C 424.621,392.78 427.209,393.777 429.109,395.295L 429.109,380.723L 433.806,380.723L 433.806,420.295 Z "/>
			<path fill="#808285" fill-opacity="1" stroke-linejoin="round" d="M 472.167,400.588L 467.837,401.534C 467.204,398.44 466.148,396.554 462.192,396.554C 458.233,396.554 456.967,398.282 456.967,400.327C 456.967,403.104 459.181,403.891 462.981,404.678C 467.944,405.726 472.641,406.719 472.641,412.748C 472.641,417.886 468.629,420.924 462.033,420.924C 455.804,420.924 452.059,418.515 451.215,413.115L 455.489,411.96C 456.227,414.844 457.441,417.15 462.244,417.15C 465.515,417.15 467.892,416.154 467.892,413.274C 467.892,410.283 465.675,409.762 461.981,409.026C 457.548,408.135 452.215,407.194 452.215,400.904C 452.215,395.454 456.756,392.78 462.244,392.78C 468.681,392.78 471.323,395.818 472.167,400.588 Z "/>
			<path fill="#808285" fill-opacity="1" stroke-linejoin="round" d="M 493.749,408.084C 493.009,407.977 492.008,407.926 491.005,407.926C 487.257,407.926 482.243,408.293 482.243,412.905C 482.243,415.212 483.087,417.201 486.783,417.201C 489.579,417.201 492.272,415.735 493.749,414.164M 498.445,415.212C 498.445,416.68 498.709,417.308 500.083,417.308C 500.557,417.308 501.031,417.201 501.72,416.992L 501.931,419.983C 500.875,420.504 499.501,420.82 498.183,420.82C 495.491,420.82 494.276,419.353 494.012,417.621C 491.901,419.717 489.105,420.924 485.305,420.924C 478.443,420.924 477.283,416.312 477.283,413.693C 477.283,406.511 483.668,404.52 491.32,404.52C 492.164,404.52 492.957,404.572 493.697,404.624L 493.697,402.004C 493.697,398.599 492.745,396.501 488.312,396.501C 484.564,396.501 483.141,397.969 482.56,400.956L 478.339,400.169C 479.183,395.137 482.453,392.78 488.735,392.78C 495.439,392.78 498.445,395.348 498.445,402.056L 498.445,415.212 Z "/>
			<path fill="#808285" fill-opacity="1" stroke-linejoin="round" d="M 512.161,420.295L 507.361,420.295L 507.361,393.357L 512.161,393.357M 509.84,388.168C 507.676,388.168 506.461,386.909 506.461,384.707C 506.461,382.508 507.676,381.301 509.84,381.301C 512.005,381.301 513.272,382.508 513.272,384.707C 513.272,386.909 512.005,388.168 509.84,388.168 Z "/>
			<rect x="520.499" y="380.724" fill="#808285" fill-opacity="1" stroke-linejoin="round" width="4.80402" height="39.5707"/>
			<path fill="#808285" fill-opacity="1" stroke-linejoin="round" d="M 538.441,420.295L 533.641,420.295L 533.641,393.357L 538.441,393.357M 536.119,388.168C 533.956,388.168 532.741,386.909 532.741,384.707C 532.741,382.508 533.956,381.301 536.119,381.301C 538.285,381.301 539.552,382.508 539.552,384.707C 539.552,386.909 538.285,388.168 536.119,388.168 Z "/>
			<path fill="#808285" fill-opacity="1" stroke-linejoin="round" d="M 569.367,420.295L 564.563,420.295L 564.563,402.736C 564.563,399.018 563.193,396.972 559.497,396.972C 556.386,396.972 553.007,398.963 551.582,400.22L 551.582,420.295L 546.778,420.295L 546.778,393.358L 551.001,393.358L 551.263,396.554C 553.905,394.458 557.282,392.78 561.03,392.78C 566.834,392.78 569.367,395.924 569.367,402.004L 569.367,420.295 Z "/>
			<path fill="#808285" fill-opacity="1" stroke-linejoin="round" d="M 587.569,396.605C 583.769,396.605 580.709,398.231 580.709,402.372C 580.709,405.881 582.661,408.136 587.465,408.136C 591.423,408.136 594.113,406.091 594.113,402.476C 594.113,398.44 591.635,396.605 587.569,396.605 Z M 591.527,420.872L 582.713,420.346C 580.657,421.711 579.706,422.811 579.706,424.595C 579.706,426.845 581.554,428.368 587.675,428.368C 593.269,428.368 596.069,426.952 596.069,424.12C 596.069,422.181 595.223,421.133 591.527,420.872 Z M 595.275,395.244C 596.121,393.303 597.546,391.732 599.55,391.732C 600.394,391.732 601.135,391.889 601.925,392.151L 601.925,395.976C 600.29,395.873 598.125,396.134 596.754,396.553C 598.073,398.073 598.758,400.221 598.758,402.424C 598.758,408.504 593.902,412.066 587.675,412.066C 585.879,412.066 584.191,411.909 582.821,411.439C 582.079,412.118 581.131,412.855 581.131,413.955C 581.131,415.003 581.713,415.789 584.613,415.999L 592.161,416.521C 597.757,416.889 601.027,418.251 601.027,423.547C 601.027,430.148 593.902,432.141 587.094,432.141C 576.961,432.141 574.902,428.681 574.902,425.484C 574.902,422.443 577.069,420.346 579.283,419.299L 579.283,419.247C 577.435,418.514 576.327,417.467 576.327,415.525C 576.327,413.219 578.017,411.7 579.917,410.232C 577.435,408.923 575.906,406.145 575.906,402.685C 575.906,396.763 580.391,392.78 587.413,392.78C 590.735,392.78 593.479,393.461 595.275,395.244 Z "/>
			<path fill="#808285" fill-opacity="1" stroke-linejoin="round" d="M 636.645,400.588L 632.316,401.534C 631.682,398.44 630.626,396.554 626.67,396.554C 622.712,396.554 621.445,398.282 621.445,400.327C 621.445,403.104 623.66,403.891 627.46,404.678C 632.422,405.726 637.12,406.719 637.12,412.748C 637.12,417.886 633.108,420.924 626.512,420.924C 620.282,420.924 616.537,418.515 615.693,413.115L 619.968,411.96C 620.705,414.844 621.92,417.15 626.722,417.15C 629.993,417.15 632.37,416.154 632.37,413.274C 632.37,410.283 630.153,409.762 626.46,409.026C 622.026,408.135 616.693,407.194 616.693,400.904C 616.693,395.454 621.234,392.78 626.722,392.78C 633.16,392.78 635.801,395.818 636.645,400.588 Z "/>
			<path fill="#808285" fill-opacity="1" stroke-linejoin="round" d="M 662.235,406.616C 662.235,399.172 659.598,396.711 654.902,396.711C 650.098,396.711 646.879,399.54 646.879,406.719C 646.879,413.847 649.413,417.099 654.69,417.099C 659.387,417.099 662.235,414.267 662.235,406.616 Z M 641.917,406.93C 641.917,398.231 646.457,392.78 655.113,392.78C 663.713,392.78 667.25,398.282 667.25,406.3C 667.25,415.16 663.557,420.924 654.425,420.924C 645.031,420.924 641.917,414.896 641.917,406.93 Z "/>
			<path fill="#808285" fill-opacity="1" stroke-linejoin="round" d="M 704.981,419.143C 703.662,420.034 700.866,420.923 698.333,420.923C 693.21,420.923 690.677,418.618 690.677,413.218L 690.677,397.182L 679.014,397.182L 679.014,420.295L 674.21,420.295L 674.21,397.182L 670.2,397.182L 670.2,393.357L 674.21,393.357L 674.21,389.006C 674.21,383.085 677.062,380.201 682.129,380.201C 684.24,380.201 686.088,380.673 686.985,381.091L 686.773,384.762C 685.666,384.394 684.24,384.133 683.025,384.133C 680.652,384.133 679.014,385.181 679.014,388.797L 679.014,393.357L 690.677,393.357L 690.677,385.546L 695.481,384.814L 695.481,393.357L 702.922,393.357L 702.922,397.182L 695.481,397.182L 695.481,412.59C 695.481,415.422 696.114,416.993 699.388,416.993C 701.022,416.993 702.977,416.311 704.085,415.683L 704.981,419.143 Z "/>
			<path fill="#808285" fill-opacity="1" stroke-linejoin="round" d="M 713.842,420.295L 705.342,393.358L 710.198,393.358L 716.798,415.263L 722.76,393.358L 727.72,393.358L 733.631,415.16L 733.686,415.16L 740.123,393.358L 744.768,393.358L 736.324,420.295L 730.731,420.295L 725.135,399.07L 725.083,399.07L 719.542,420.295L 713.842,420.295 Z "/>
			<path fill="#808285" fill-opacity="1" stroke-linejoin="round" d="M 763.444,408.084C 762.704,407.977 761.703,407.926 760.7,407.926C 756.952,407.926 751.937,408.293 751.937,412.905C 751.937,415.212 752.781,417.201 756.477,417.201C 759.273,417.201 761.967,415.735 763.444,414.164M 768.14,415.212C 768.14,416.68 768.404,417.308 769.777,417.308C 770.252,417.308 770.725,417.201 771.415,416.992L 771.625,419.983C 770.569,420.504 769.196,420.82 767.877,420.82C 765.185,420.82 763.971,419.353 763.707,417.621C 761.596,419.717 758.8,420.924 755,420.924C 748.137,420.924 746.977,416.312 746.977,413.693C 746.977,406.511 753.363,404.52 761.015,404.52C 761.859,404.52 762.652,404.572 763.392,404.624L 763.392,402.004C 763.392,398.599 762.44,396.501 758.007,396.501C 754.259,396.501 752.836,397.969 752.255,400.956L 748.033,400.169C 748.877,395.137 752.148,392.78 758.429,392.78C 765.133,392.78 768.14,395.348 768.14,402.056L 768.14,415.212 Z "/>
			<path fill="#808285" fill-opacity="1" stroke-linejoin="round" d="M 791.464,397.76C 788.086,397.286 784.075,398.65 781.86,400.694L 781.86,420.294L 777.056,420.294L 777.056,393.357L 781.068,393.357L 781.437,397.234C 783.812,394.038 786.664,392.78 790.464,392.78C 790.779,392.78 791.149,392.832 791.464,392.832L 791.464,397.76 Z "/>
			<path fill="#808285" fill-opacity="1" stroke-linejoin="round" d="M 812.416,404.152C 812.416,399.331 810.568,396.656 806.293,396.656C 802.705,396.656 799.22,398.808 798.957,404.152M 793.839,406.878C 793.839,397.024 799.643,392.78 806.609,392.78C 814.209,392.78 817.376,397.76 817.376,404.414C 817.376,405.462 817.324,406.668 817.164,407.926L 798.905,407.926C 799.116,414.792 802.176,416.94 806.505,416.94C 810.357,416.94 812.149,415.212 812.891,412.171L 817.112,413.115C 816.005,418.356 811.783,420.924 806.345,420.924C 796.739,420.924 793.839,414.267 793.839,406.878 Z "/>
			<path fill="#1A50A3" fill-opacity="1" stroke-linejoin="round" d="M 991.592,440.422C 915.191,434.881 861.659,454.615 846.105,418.683C 833.255,388.997 860.092,241.619 960.505,198.594C 1054.13,281.222 1028.39,326.57 991.592,440.422 Z "/>
			<path fill="#FFFFFF" fill-opacity="1" stroke-linejoin="round" d="M 928.071,406.67C 915.575,403.852 871.243,409.021 863.71,390.638C 857.486,375.452 869.218,319.841 933.873,270.224C 992.55,319.841 932.05,389.217 928.071,406.67 Z "/>
			<path fill="#FFFFFF" fill-opacity="1" stroke-linejoin="round" d="M 947.954,216.902L 938.69,267.273C 997.476,314.135 941.273,393.575 941.273,393.575L 979.414,383.626C 1015.63,245.255 947.954,216.902 947.954,216.902 Z "/>
			<path fill="none" stroke-width="2.328" stroke-linejoin="round" stroke="#FFFFFF" stroke-opacity="1" d="M 994.276,399.852C 978.1,396.268 895.762,421.368 877.664,421.405C 875.321,421.409 871.846,420.523 871.846,416.312C 872.505,407.32 873.956,406.671 873.956,406.671"/>
			<path fill="#1A50A3" fill-opacity="1" stroke-width="2.328" stroke-linejoin="round" d="M 151.503,284.329L 107.485,284.329L 107.485,325.155L 156.543,325.155L 156.543,337.419L 92.8672,337.419L 92.8672,224.182L 154.023,224.182L 154.023,236.446L 107.485,236.446L 107.485,272.233L 151.503,272.233L 151.503,284.329 Z "/>
			<path fill="#1A50A3" fill-opacity="1" stroke-width="2.328" stroke-linejoin="round" d="M 181.906,256.103L 193.498,273.575C 196.523,278.113 199.043,282.313 201.731,286.849L 202.235,286.849C 204.923,281.977 207.611,277.776 210.299,273.409L 221.725,256.103L 237.685,256.103L 209.963,295.417L 238.525,337.419L 221.725,337.419L 209.795,319.106C 206.603,314.402 203.915,309.866 201.059,304.994L 200.723,304.994C 198.035,309.866 195.179,314.234 192.155,319.106L 180.394,337.419L 164.098,337.419L 192.994,295.922L 165.441,256.103L 181.906,256.103 Z "/>
			<path fill="#1A50A3" fill-opacity="1" stroke-width="2.328" stroke-linejoin="round" d="M 267.419,304.322C 267.419,306.506 267.755,308.522 268.091,310.37C 270.779,320.619 279.684,327.675 290.268,327.675C 305.892,327.675 314.965,314.906 314.965,296.258C 314.965,279.961 306.397,266.015 290.772,266.015C 280.692,266.015 271.283,273.239 268.427,284.329C 267.923,286.177 267.419,288.361 267.419,290.377M 252.803,282.649C 252.803,272.233 252.465,263.831 252.129,256.103L 265.403,256.103L 266.075,270.047L 266.411,270.047C 272.459,260.135 282.035,254.255 295.308,254.255C 314.965,254.255 329.751,270.887 329.751,295.585C 329.751,324.819 311.941,339.267 292.788,339.267C 282.035,339.267 272.627,334.563 267.755,326.499L 267.419,326.499L 267.419,370.685L 252.803,370.685L 252.803,282.649 Z "/>
			<path fill="#1A50A3" fill-opacity="1" stroke-width="2.328" stroke-linejoin="round" d="M 399.97,288.865C 400.138,279.456 396.106,264.84 379.473,264.84C 364.521,264.84 357.967,278.616 356.791,288.865M 356.623,299.449C 356.959,319.442 369.727,327.674 384.513,327.674C 395.098,327.674 401.482,325.828 407.026,323.476L 409.546,334.06C 404.338,336.412 395.434,339.1 382.497,339.1C 357.463,339.1 342.51,322.634 342.51,298.105C 342.51,273.576 356.959,254.254 380.649,254.254C 407.194,254.254 414.25,277.609 414.25,292.561C 414.25,295.585 413.914,297.937 413.747,299.449L 356.623,299.449 Z "/>
			<path fill="#1A50A3" fill-opacity="1" stroke-width="2.328" stroke-linejoin="round" d="M 488.001,289.201C 488.001,287.353 487.833,284.833 487.329,282.985C 485.145,273.576 477.081,265.848 465.991,265.848C 450.702,265.848 441.63,279.288 441.63,297.265C 441.63,313.73 449.695,327.34 465.655,327.34C 475.569,327.34 484.641,320.786 487.329,309.698C 487.833,307.682 488.001,305.666 488.001,303.313M 502.786,218.133L 502.786,316.418C 502.786,323.644 502.954,331.876 503.458,337.42L 490.185,337.42L 489.513,323.308L 489.177,323.308C 484.641,332.38 474.727,339.268 461.455,339.268C 441.798,339.268 426.677,322.634 426.677,297.937C 426.509,270.888 443.31,254.256 463.135,254.256C 475.569,254.256 483.969,260.136 487.665,266.688L 488.001,266.688L 488.001,218.133L 502.786,218.133 Z "/>
			<path fill="#1A50A3" fill-opacity="1" stroke-width="2.328" stroke-linejoin="round" d="M 527.309,256.103L 542.093,256.103L 542.093,337.419L 527.309,337.419M 543.773,233.253C 543.941,238.293 540.245,242.327 534.365,242.327C 529.157,242.327 525.461,238.293 525.461,233.253C 525.461,228.045 529.325,224.013 534.701,224.013C 540.245,224.013 543.773,228.045 543.773,233.253 Z "/>
			<path fill="#1A50A3" fill-opacity="1" stroke-width="2.328" stroke-linejoin="round" d="M 584.429,232.75L 584.429,256.103L 605.598,256.103L 605.598,267.36L 584.429,267.36L 584.429,311.21C 584.429,321.291 587.285,327.003 595.517,327.003C 599.382,327.003 602.237,326.499 604.085,325.995L 604.758,337.083C 601.901,338.259 597.365,339.1 591.653,339.1C 584.765,339.1 579.221,336.916 575.692,332.883C 571.492,328.515 569.98,321.291 569.98,311.714L 569.98,267.36L 557.38,267.36L 557.38,256.103L 569.98,256.103L 569.98,236.614L 584.429,232.75 Z "/>
			<path fill="#1A50A3" fill-opacity="1" stroke-width="2.328" stroke-linejoin="round" d="M 622.225,256.103L 637.011,256.103L 637.011,337.419L 622.225,337.419M 638.691,233.253C 638.859,238.293 635.163,242.327 629.283,242.327C 624.075,242.327 620.379,238.293 620.379,233.253C 620.379,228.045 624.243,224.013 629.619,224.013C 635.163,224.013 638.691,228.045 638.691,233.253 Z "/>
			<path fill="#1A50A3" fill-opacity="1" stroke-width="2.328" stroke-linejoin="round" d="M 670.61,296.929C 670.61,314.739 680.859,328.179 695.307,328.179C 709.419,328.179 720.005,314.907 720.005,296.593C 720.005,282.817 713.117,265.344 695.643,265.344C 678.17,265.344 670.61,281.472 670.61,296.929 Z M 735.126,296.089C 735.126,326.163 714.293,339.268 694.635,339.268C 672.626,339.268 655.657,323.139 655.657,297.433C 655.657,270.216 673.467,254.255 695.979,254.255C 719.333,254.255 735.126,271.224 735.126,296.089 Z "/>
			<path fill="#1A50A3" fill-opacity="1" stroke-width="2.328" stroke-linejoin="round" d="M 753.769,278.112C 753.769,269.712 753.601,262.823 753.097,256.103L 766.202,256.103L 767.042,269.544L 767.378,269.544C 771.41,261.815 780.818,254.255 794.259,254.255C 805.517,254.255 822.989,260.975 822.989,288.864L 822.989,337.419L 808.203,337.419L 808.203,290.546C 808.203,277.44 803.331,266.52 789.387,266.52C 779.642,266.52 772.082,273.408 769.562,281.64C 768.89,283.488 768.554,286.008 768.554,288.528L 768.554,337.419L 753.769,337.419L 753.769,278.112 Z "/>
		</g>
	</g>
</svg>
