<svg xmlns="http://www.w3.org/2000/svg" xmlns:xlink="http://www.w3.org/1999/xlink" version="1.1" baseProfile="full" width="296" height="296">
  <g transform="translate(-785.0,-167.38966)">
		<g clip-path="url(#SVG_CLIPPER2_)">
			<path fill="#1A50A3" fill-opacity="1" stroke-linejoin="round" d="M 991.592,440.422C 915.191,434.881 861.659,454.615 846.105,418.683C 833.255,388.997 860.092,241.619 960.505,198.594C 1054.13,281.222 1028.39,326.57 991.592,440.422 Z "/>
			<path fill="#FFFFFF" fill-opacity="1" stroke-linejoin="round" d="M 928.071,406.67C 915.575,403.852 871.243,409.021 863.71,390.638C 857.486,375.452 869.218,319.841 933.873,270.224C 992.55,319.841 932.05,389.217 928.071,406.67 Z "/>
			<path fill="#FFFFFF" fill-opacity="1" stroke-linejoin="round" d="M 947.954,216.902L 938.69,267.273C 997.476,314.135 941.273,393.575 941.273,393.575L 979.414,383.626C 1015.63,245.255 947.954,216.902 947.954,216.902 Z "/>
			<path fill="none" stroke-width="2.328" stroke-linejoin="round" stroke="#FFFFFF" stroke-opacity="1" d="M 994.276,399.852C 978.1,396.268 895.762,421.368 877.664,421.405C 875.321,421.409 871.846,420.523 871.846,416.312C 872.505,407.32 873.956,406.671 873.956,406.671"/>
		</g>
	</g>
</svg>
