<?xml version="1.0" encoding="UTF-8"?>
<svg xmlns="http://www.w3.org/2000/svg" width="75" height="31">
        <path d="M71.124.17H3.894C2 .17.495 1.68.495 3.587v23.848c0 1.906 1.504 3.418 3.398 3.418h67.23c1.895 0 3.395-1.512 3.395-3.418V3.587C74.6 1.68 73.02.17 71.124.17zm-42.027 23.2h-7.902v-6.758h-5.293v6.758h-7.9V7.642H15.9v6.754h5.293V7.642h7.902V23.38zm12.164 0h-7.898V7.642h7.898V23.38zm16.906.078h-12.88V7.642h12.88c4.504 0 8.6 3.418 8.6 7.95 0 4.45-4.105 7.867-8.6 7.867zM52.7 8.902V21.86c3.242 0 5.137.555 5.137-6.437 0-7.074-2.2-6.52-5.137-6.52zm0 0"></path>
</svg>