<?xml version="1.0" encoding="utf-8"?>
<!-- Generator: Adobe Illustrator 25.2.0, SVG Export Plug-In . SVG Version: 6.00 Build 0)  -->
<svg version="1.1" id="Artwork" xmlns="http://www.w3.org/2000/svg" xmlns:xlink="http://www.w3.org/1999/xlink" x="0px" y="0px"
	 viewBox="0 0 284 56" style="enable-background:new 0 0 284 56;" xml:space="preserve">
<style type="text/css">
	.st0{fill:#FFFFFF;}
	.st1{fill:#008A44;}
	.st2{fill:#3AF23A;}
	.st3{fill:#006446;}
	.st4{fill:#00C425;}
</style>
<g>
	<path class="st0" d="M270,22.5l-9.8,9l9.8,9v5.2h-0.3l-14.6-13.3V45h-4.2V6.8h4.2v23.9l14.6-13.2h0.4v5H270z M78.9,45h21.6v-4.3
		H83.3V8.1h-4.4V45z M115.5,17.5c-6.6,0-12.7,5.4-12.7,14.1c0,8.4,5.5,14,13.5,14c3.5,0,6.8-0.9,9.8-3V38c-3.1,2.6-6.5,3.7-9.6,3.7
		c-4.8,0-9-3-9.4-8.5h20.2c0-0.5,0.2-1.7,0.2-2.2C127.4,22.1,122,17.5,115.5,17.5z M115.5,21.3c3.7,0,7.6,2.4,7.7,8.2H107
		C107.3,25,110.7,21.3,115.5,21.3z M186.6,17.5c-3.6,0-6.2,1.9-7.7,4.7c-1.3-3-3.7-4.7-7.5-4.7c-3.3,0-5.8,1.9-7.2,4.5H164l-0.5-4
		h-3.3v27h4.3V28c0-3.3,2-6.4,5.8-6.4c3.6,0,5.2,2.1,5.2,6V45h4.3V27.7c0-3.1,2.1-6.1,5.7-6.1c3.7,0,5.3,2.1,5.3,6V45h4.3V27
		C195.2,21.4,192.5,17.5,186.6,17.5z M212.5,17.5c-6.4,0-12.4,5.4-12.4,14.1c0,8.5,6,14,12.4,14c4,0,7.8-1.9,9.9-5.6h0.1l0.5,5h3.5
		V18H223l-0.5,5h-0.1C220.4,19.4,216.6,17.5,212.5,17.5z M213.3,21.5c5.1,0,8.9,4.1,8.9,10s-3.8,10-8.9,10c-5,0-8.9-4-8.9-10
		C204.4,25.5,208.3,21.5,213.3,21.5z M244.8,17.7c-2.3,0-5.9,1.1-7.7,4.6l0,0l-0.4-4.3h-3.4v27h4.3V29.5c0-6.2,5-8.2,9.2-7.3v-4.3
		C246,17.8,245.5,17.7,244.8,17.7z M154.7,17.4h-0.3l-11.3,11.2l-11.2-11.2h-0.3v5.4l8.7,8.7l-8.7,8.6v5.5h0.3L143,34.4l11.3,11.3
		h0.4v-5.5l-8.7-8.7l8.7-8.8V17.4z M272.1,7.1V6.5h4.5v0.6h-1.9v4.5H274V7.1H272.1z M278.8,6.5l1.9,4.3l1.9-4.3h0.9v5.1H283V7.3l0,0
		l-1.9,4.2h-0.6l-1.9-4.2l0,0v4.2H278v-5H278.8z"/>
	<polygon class="st1" points="55.7,45.2 55.7,0.4 44.8,0.4 27.9,17.3 	"/>
	<polygon class="st2" points="0,11.3 0,56.1 10.9,56.1 27.8,39.1 	"/>
	<polygon class="st3" points="10.9,56.1 55.7,56.1 55.7,45.2 38.8,28.2 	"/>
	<polygon class="st4" points="44.8,0.4 0,0.4 0,11.3 16.9,28.2 	"/>
</g>
</svg>
