<?xml version="1.0" encoding="UTF-8" standalone="no"?>
<!-- Created with Inkscape (http://www.inkscape.org/) -->

<svg
   width="276.04562mm"
   height="275.01562mm"
   viewBox="0 0 276.04562 275.01563"
   version="1.1"
   id="svg5"
   xml:space="preserve"
   xmlns:xlink="http://www.w3.org/1999/xlink"
   xmlns="http://www.w3.org/2000/svg"
   xmlns:svg="http://www.w3.org/2000/svg"><defs
     id="defs2"><linearGradient
       id="linearGradient37611"><stop
         style="stop-color:#8362f6;stop-opacity:1;"
         offset="0"
         id="stop37607" /><stop
         style="stop-color:#4f37f3;stop-opacity:1;"
         offset="1"
         id="stop37609" /></linearGradient><linearGradient
       id="linearGradient36568"><stop
         style="stop-color:#a367f6;stop-opacity:1;"
         offset="0"
         id="stop36564" /><stop
         style="stop-color:#814df3;stop-opacity:1;"
         offset="1"
         id="stop36566" /></linearGradient><linearGradient
       id="linearGradient34214"><stop
         style="stop-color:#d891f9;stop-opacity:1;"
         offset="0"
         id="stop34210" /><stop
         style="stop-color:#c681f8;stop-opacity:1;"
         offset="1"
         id="stop34212" /></linearGradient><linearGradient
       id="linearGradient33378"><stop
         style="stop-color:#bb77f6;stop-opacity:1;"
         offset="0"
         id="stop33374" /><stop
         style="stop-color:#a865f4;stop-opacity:1;"
         offset="1"
         id="stop33376" /></linearGradient><linearGradient
       id="linearGradient32128"><stop
         style="stop-color:#e9a8f7;stop-opacity:1;"
         offset="0"
         id="stop32124" /><stop
         style="stop-color:#d38ef7;stop-opacity:1;"
         offset="1"
         id="stop32126" /></linearGradient><linearGradient
       id="linearGradient31223"><stop
         style="stop-color:#7250db;stop-opacity:1;"
         offset="0"
         id="stop31219" /><stop
         style="stop-color:#a357db;stop-opacity:1;"
         offset="1"
         id="stop31221" /></linearGradient><linearGradient
       xlink:href="#linearGradient31223"
       id="linearGradient31225"
       x1="363.33548"
       y1="211.98798"
       x2="461.39578"
       y2="210.61124"
       gradientUnits="userSpaceOnUse"
       gradientTransform="matrix(1.8753106,-0.43287583,0.43287583,1.8753106,-334.16252,-79.8192)" /><linearGradient
       xlink:href="#linearGradient32128"
       id="linearGradient32130"
       x1="384.91492"
       y1="144.6554"
       x2="454.75183"
       y2="163.36813"
       gradientUnits="userSpaceOnUse" /><linearGradient
       xlink:href="#linearGradient33378"
       id="linearGradient33380"
       x1="461.9863"
       y1="143.00386"
       x2="501.31244"
       y2="153.54128"
       gradientUnits="userSpaceOnUse" /><linearGradient
       xlink:href="#linearGradient34214"
       id="linearGradient34216"
       x1="373.62949"
       y1="178.51173"
       x2="404.18277"
       y2="178.51173"
       gradientUnits="userSpaceOnUse" /><linearGradient
       xlink:href="#linearGradient36568"
       id="linearGradient36570"
       x1="416.56924"
       y1="178.78699"
       x2="508.50436"
       y2="178.78699"
       gradientUnits="userSpaceOnUse" /><linearGradient
       xlink:href="#linearGradient37611"
       id="linearGradient37613"
       x1="369.77591"
       y1="211.54233"
       x2="480.97888"
       y2="211.54233"
       gradientUnits="userSpaceOnUse" /></defs><g
     id="layer1"
     transform="translate(-361.40429,-86.326265)"><path
       id="rect31164"
       style="opacity:1;fill:url(#linearGradient31225);fill-opacity:1;stroke-width:15.114;stroke-linecap:round;stroke-linejoin:round"
       d="M 376.57133,136.95923 593.72994,86.832757 c 10.49582,-2.422737 20.89595,4.076528 23.31869,14.572343 l 5.82309,25.22688 c 2.42274,10.49582 -4.07653,20.89595 -14.57234,23.31869 l -217.15861,50.12647 c -10.49581,2.42274 -20.82257,-4.09374 -23.31868,-14.57234 l -5.85771,-24.59045 c -2.59809,-10.90633 4.11114,-21.53238 14.60695,-23.95512 z" /><g
       id="g38734"
       transform="matrix(1.9246224,0,0,1.9246224,-334.16252,-79.8192)"><g
         id="g38721"><path
           id="rect30646-58"
           style="fill:url(#linearGradient32130);fill-opacity:1;stroke-width:7.85299;stroke-linecap:round;stroke-linejoin:round"
           d="m 361.4043,122.62813 v 31.31902 c 0,5.71484 4.60082,10.31565 10.31565,10.31565 h 133.11281 v -18.91926 -1.89808 c 0,-5.58741 -4.3202,-10.12786 -9.81594,-10.47895 v -0.0227 H 371.71995 c -5.71483,0 -10.31565,-4.60082 -10.31565,-10.31565 z" /><path
           id="rect30646-58-0"
           style="fill:url(#linearGradient33380);fill-opacity:1;stroke-width:7.85299;stroke-linecap:round;stroke-linejoin:round"
           d="m 455.69002,132.94378 v 31.31902 h 49.14274 v -18.91926 -1.89808 c 0,-5.5874 -4.32021,-10.12786 -9.81594,-10.47895 v -0.0227 z" /></g><g
         id="g38725"><path
           id="rect30646-5"
           style="fill:url(#linearGradient36570);fill-opacity:1;stroke-width:7.85299;stroke-linecap:round;stroke-linejoin:round"
           d="m 361.4043,153.94715 v 33.79638 c 0,3.05677 1.31683,5.7939 3.41581,7.67964 H 504.83276 V 164.2628 H 371.71995 c -5.71484,0 -10.31565,-4.60081 -10.31565,-10.31565 z" /><path
           id="rect30646-5-2"
           style="fill:url(#linearGradient34216);fill-opacity:1;stroke-width:7.85299;stroke-linecap:round;stroke-linejoin:round"
           d="m 361.4043,153.94715 v 33.79638 c 0,3.05677 1.31684,5.7939 3.41581,7.67964 H 410.6323 V 164.2628 h -38.91235 c -5.71483,0 -10.31565,-4.60082 -10.31565,-10.31565 z" /></g><path
         id="rect30646"
         style="opacity:1;fill:url(#linearGradient37613);fill-opacity:1;stroke-width:7.85299;stroke-linecap:round;stroke-linejoin:round"
         d="m 361.4043,185.10752 v 33.79638 c 0,5.71486 4.6008,10.31565 10.31565,10.31565 h 122.79716 c 5.71485,0 10.31565,-4.60079 10.31565,-10.31565 V 195.42317 H 371.71995 c -5.71485,0 -10.31565,-4.6008 -10.31565,-10.31565 z" /></g></g></svg>
