<svg viewBox="0 0 64 64" fill="none" xmlns="http://www.w3.org/2000/svg">
<path d="M63.9973 32.0004C63.9693 57.0668 55.1464 63.8929 31.9987 63.999C8.85094 64.1051 -0.00828597 55.6462 3.88646e-06 32.0004C0.00829374 8.35451 8.67336 -0.1389 31.9987 0.00171403C55.3239 0.142328 64.0253 6.93393 63.9973 32.0004Z" fill="white"/>
<path d="M50.7181 43.5148H13.8819C13.0559 43.5148 12.4778 42.9367 12.4778 42.1108V15.5985C12.4778 14.6074 13.3037 13.7815 14.2948 13.7815H50.2226C51.2963 13.7815 52.1222 14.6074 52.1222 15.5985V42.1108C52.1222 42.9367 51.5441 43.5148 50.7181 43.5148Z" fill="url(#paint0_linear)"/>
<g filter="url(#filter0_d)">
<path d="M52.8656 43.5149H11.7344C10.7433 43.5149 10 42.7716 10 41.7804V41.0371H54.6V41.7804C54.6 42.7716 53.8567 43.5149 52.8656 43.5149Z" fill="#184F85"/>
</g>
<g filter="url(#filter1_d)">
<rect x="19.2" y="20" width="19.6" height="19" rx="3" fill="#1787CC"/>
</g>
<g filter="url(#filter2_d)">
<path d="M38.9074 24.5185H19.0852V20.6367C19.0852 20.0585 19.5807 19.563 20.1589 19.563H37.8337C38.4118 19.563 38.9074 20.0585 38.9074 20.6367V24.5185Z" fill="#50E6FF"/>
<path d="M19.0852 24.5186L28.9963 22.8667L38.9074 24.5186L28.9963 26.1704L19.0852 24.5186Z" fill="#50E6FF"/>
<path d="M19.0852 47.6445L28.9963 45.9927L38.9074 47.6445L28.9963 49.2964L19.0852 47.6445Z" fill="#184F85"/>
<path d="M38.9074 35.5034L28.9963 37.5682L19.0852 35.5034V24.5186H38.9074V35.5034Z" fill="#35C1F1"/>
<path d="M38.9074 42.6889L28.9963 44.7538L19.0852 42.6889V34.4297H38.9074V42.6889Z" fill="#1B9DE2"/>
<path d="M38.9074 42.689H19.0852V47.6445H38.9074V42.689Z" fill="#006CBF"/>
<path d="M24.8667 22.8667C25.3228 22.8667 25.6926 22.4969 25.6926 22.0408C25.6926 21.5846 25.3228 21.2148 24.8667 21.2148C24.4105 21.2148 24.0407 21.5846 24.0407 22.0408C24.0407 22.4969 24.4105 22.8667 24.8667 22.8667Z" fill="#0C63AD"/>
<path d="M33.2085 22.8666H28.1703C27.6748 22.8666 27.3444 22.4537 27.3444 22.0407C27.3444 21.6277 27.6748 21.2974 28.0878 21.2974H33.1259C33.5389 21.2974 33.8692 21.6277 33.8692 22.0407C33.9518 22.4537 33.6215 22.8666 33.2085 22.8666Z" fill="#0C63AD"/>
<path d="M19.0852 47.6445H38.9074V51.5264C38.9074 52.1045 38.4118 52.6001 37.8337 52.6001H20.1589C19.5807 52.6001 19.0852 52.1045 19.0852 51.5264V47.6445Z" fill="#184F85"/>
</g>
<defs>
<filter id="filter0_d" x="8" y="40.0371" width="48.6" height="6.47778" filterUnits="userSpaceOnUse" color-interpolation-filters="sRGB">
<feFlood flood-opacity="0" result="BackgroundImageFix"/>
<feColorMatrix in="SourceAlpha" type="matrix" values="0 0 0 0 0 0 0 0 0 0 0 0 0 0 0 0 0 0 127 0"/>
<feOffset dy="1"/>
<feGaussianBlur stdDeviation="1"/>
<feColorMatrix type="matrix" values="0 0 0 0 0 0 0 0 0 0 0 0 0 0 0 0 0 0 0.18 0"/>
<feBlend mode="normal" in2="BackgroundImageFix" result="effect1_dropShadow"/>
<feBlend mode="normal" in="SourceGraphic" in2="effect1_dropShadow" result="shape"/>
</filter>
<filter id="filter1_d" x="15.2" y="15" width="27.6" height="27" filterUnits="userSpaceOnUse" color-interpolation-filters="sRGB">
<feFlood flood-opacity="0" result="BackgroundImageFix"/>
<feColorMatrix in="SourceAlpha" type="matrix" values="0 0 0 0 0 0 0 0 0 0 0 0 0 0 0 0 0 0 127 0"/>
<feOffset dy="-1"/>
<feGaussianBlur stdDeviation="2"/>
<feColorMatrix type="matrix" values="0 0 0 0 0 0 0 0 0 0 0 0 0 0 0 0 0 0 0.18 0"/>
<feBlend mode="normal" in2="BackgroundImageFix" result="effect1_dropShadow"/>
<feBlend mode="normal" in="SourceGraphic" in2="effect1_dropShadow" result="shape"/>
</filter>
<filter id="filter2_d" x="18.0852" y="19.563" width="21.8222" height="35.0371" filterUnits="userSpaceOnUse" color-interpolation-filters="sRGB">
<feFlood flood-opacity="0" result="BackgroundImageFix"/>
<feColorMatrix in="SourceAlpha" type="matrix" values="0 0 0 0 0 0 0 0 0 0 0 0 0 0 0 0 0 0 127 0"/>
<feOffset dy="1"/>
<feGaussianBlur stdDeviation="0.5"/>
<feColorMatrix type="matrix" values="0 0 0 0 0 0 0 0 0 0 0 0 0 0 0 0 0 0 0.18 0"/>
<feBlend mode="normal" in2="BackgroundImageFix" result="effect1_dropShadow"/>
<feBlend mode="normal" in="SourceGraphic" in2="effect1_dropShadow" result="shape"/>
</filter>
<linearGradient id="paint0_linear" x1="43.3669" y1="47.9853" x2="21.1713" y2="9.54144" gradientUnits="userSpaceOnUse">
<stop stop-color="#0C63AD"/>
<stop offset="1" stop-color="#1B9DE2"/>
</linearGradient>
</defs>
</svg>
