<svg xmlns="http://www.w3.org/2000/svg"  viewBox="0 0 48 48" width="240px" height="240px"><linearGradient id="lCXgru7~phCRx1P4mSbeEa" x1="6.968" x2="36.942" y1="6.968" y2="36.942" gradientUnits="userSpaceOnUse"><stop offset="0" stop-color="#fede00"/><stop offset="1" stop-color="#ffd000"/></linearGradient><path fill="url(#lCXgru7~phCRx1P4mSbeEa)" d="M32,42H8c-1.105,0-2-0.895-2-2V8c0-1.105,0.895-2,2-2h32c1.105,0,2,0.895,2,2v24L32,42z"/><linearGradient id="lCXgru7~phCRx1P4mSbeEb" x1="33.2" x2="39.98" y1="33.2" y2="39.98" gradientUnits="userSpaceOnUse"><stop offset="0" stop-color="#e5a505"/><stop offset=".116" stop-color="#eaa804"/><stop offset=".595" stop-color="#f8b301"/><stop offset="1" stop-color="#fdb700"/></linearGradient><path fill="url(#lCXgru7~phCRx1P4mSbeEb)" d="M40,42H24l18-18v16C42,41.105,41.105,42,40,42z"/><linearGradient id="lCXgru7~phCRx1P4mSbeEc" x1="24.595" x2="33.244" y1="24.595" y2="33.244" gradientUnits="userSpaceOnUse"><stop offset="0" stop-color="#4b4b4b"/><stop offset="1" stop-color="#3b3b3b"/></linearGradient><path fill="url(#lCXgru7~phCRx1P4mSbeEc)" d="M26,24h16L24,42V26C24,24.895,24.895,24,26,24z"/></svg>