<svg xmlns="http://www.w3.org/2000/svg"  viewBox="0 0 48 48" width="240px" height="240px"><linearGradient id="b2he~2L6TGDVvfT~n2GR4a" x1="8.361" x2="30.308" y1="27.305" y2="43.482" gradientUnits="userSpaceOnUse"><stop offset="0" stop-color="#44d6f9"/><stop offset="1" stop-color="#0680d7"/></linearGradient><path fill="url(#b2he~2L6TGDVvfT~n2GR4a)" d="M31.776,38.16c0-5.606-18.238-5.605-22.169-14.546C9.221,25.109,9,26.583,9,28	c0,8.284,6.716,15,15,15c1.466,0,2.878-0.22,4.217-0.612C30.353,41.425,31.776,40.045,31.776,38.16z"/><linearGradient id="b2he~2L6TGDVvfT~n2GR4b" x1="11.576" x2="36.266" y1="18.633" y2="38.026" gradientUnits="userSpaceOnUse"><stop offset="0" stop-color="#a579dc"/><stop offset="1" stop-color="#624695"/></linearGradient><path fill="url(#b2he~2L6TGDVvfT~n2GR4b)" d="M31.776,38.16c0,1.884-1.423,3.265-3.559,4.228c3.562-1.042,6.571-3.371,8.499-6.445	c0.567-1.357,0.909-2.726,0.909-3.983c0-9.091-22.3-7.132-22.3-17.127c0-1.257,0.3-2.537,0.588-3.479	c-2.802,3.737-5.226,8.076-6.306,12.259C13.537,32.556,31.776,32.555,31.776,38.16z"/><linearGradient id="b2he~2L6TGDVvfT~n2GR4c" x1="22.456" x2="32.673" y1="4.15" y2="18.529" gradientUnits="userSpaceOnUse"><stop offset="0" stop-color="#fad402"/><stop offset=".357" stop-color="#f8c503"/><stop offset="1" stop-color="#f4a107"/></linearGradient><path fill="url(#b2he~2L6TGDVvfT~n2GR4c)" d="M26.975,3.23c-0.005-0.009-0.011-0.014-0.017-0.023C26.973,3.138,27,3.074,27,3	c0-0.552-0.448-1-1-1c-0.235,0-0.404,0.079-0.464,0.113c-1.213,0.67-2.603,1.729-4.046,3.046c-0.448,0.785-0.841,1.807-0.841,3.044	c0,5.414,9.676,5.485,15.12,10.763C31.679,13.615,25.349,10.334,26.975,3.23z"/><linearGradient id="b2he~2L6TGDVvfT~n2GR4d" x1="18.066" x2="38.121" y1="8.856" y2="33.262" gradientUnits="userSpaceOnUse"><stop offset="0" stop-color="#ec81a3"/><stop offset="1" stop-color="#dd386d"/></linearGradient><path fill="url(#b2he~2L6TGDVvfT~n2GR4d)" d="M15.912,11.355c-0.287,0.941-0.588,2.222-0.588,3.479c0,9.995,22.3,8.036,22.3,17.127	c0,1.257-0.342,2.626-0.909,3.983C38.16,33.64,39,30.92,39,28c0-3.791-1.389-6.622-3.231-9.033	c-5.444-5.278-15.12-5.349-15.12-10.763c0-1.237,0.393-2.26,0.841-3.044C19.64,6.847,17.701,8.969,15.912,11.355z"/></svg>