<svg width="1024" height="1024" viewBox="0 0 1024 1024" fill="none" xmlns="http://www.w3.org/2000/svg">
<path d="M485.053 997.105C752.94 997.105 970.105 779.94 970.105 512.053C970.105 244.165 752.94 27 485.053 27C217.165 27 0 244.165 0 512.053C0 779.94 217.165 997.105 485.053 997.105Z" fill="url(#paint0_radial_4_45)"/>
<path d="M899.746 598.597C892.551 559.23 871.354 523.584 839.879 497.907C808.4 472.23 768.641 458.158 727.579 458.158C686.517 458.158 646.758 472.23 615.279 497.907C583.804 523.584 562.607 559.23 555.412 598.597H552.766C520.514 598.597 489.583 611.073 466.776 633.278C443.97 655.483 431.158 685.604 431.158 717.009C431.158 748.413 443.97 778.53 466.776 800.74C489.583 822.944 520.514 835.421 552.766 835.421H902.392C934.643 835.421 965.578 822.944 988.381 800.74C1011.19 778.53 1024 748.413 1024 717.009C1024 685.604 1011.19 655.483 988.381 633.278C965.578 611.073 934.643 598.597 902.392 598.597H899.746Z" fill="url(#paint1_radial_4_45)"/>
<defs>
<radialGradient id="paint0_radial_4_45" cx="0" cy="0" r="1" gradientUnits="userSpaceOnUse" gradientTransform="translate(161.684 188.684) rotate(77.125) scale(967.481)">
<stop offset="0.260417" stop-color="#D7B307"/>
<stop offset="0.619792" stop-color="#F09701"/>
<stop offset="1" stop-color="#E46701"/>
</radialGradient>
<radialGradient id="paint1_radial_4_45" cx="0" cy="0" r="1" gradientUnits="userSpaceOnUse" gradientTransform="translate(700.632 539) rotate(85.6013) scale(351.351 552.125)">
<stop stop-color="#F8F8F8"/>
<stop offset="1" stop-color="#D2D2D2"/>
</radialGradient>
</defs>
</svg>
