<?xml version="1.0" encoding="UTF-8"?>
<svg version="1.1" xmlns="http://www.w3.org/2000/svg" width="3840" height="2160">
<path d="M0 0 C699.6 0 1399.2 0 2120 0 C2120 699.6 2120 1399.2 2120 2120 C1420.4 2120 720.8 2120 0 2120 C0 1420.4 0 720.8 0 0 Z " fill="#6A2996" transform="translate(860,20)"/>
<path d="M0 0 C26.4 0 52.8 0 80 0 C91.4597886 17.1896829 91.4597886 17.1896829 96.75 25.5625 C97.95569673 27.46356224 99.16142684 29.36460331 100.3671875 31.265625 C100.97014648 32.21759766 101.57310547 33.16957031 102.19433594 34.15039062 C105.0822784 38.70799803 107.97834027 43.2604297 110.875 47.8125 C111.73303223 49.16130249 111.73303223 49.16130249 112.60839844 50.53735352 C117.06045806 57.53247608 121.52818899 64.51749144 126 71.5 C132.78028179 82.08706986 139.53742103 92.68864146 146.28222656 103.29833984 C149.18673563 107.86646056 152.0934662 112.43316739 155 117 C158.4776344 122.46416289 161.95486755 127.92857802 165.4296875 133.39453125 C172.28069053 144.16929056 179.15203102 154.93078185 186.03857422 165.68286133 C190.94361131 173.34335773 195.830968 181.01492454 200.7109375 188.69140625 C205.12751396 195.63602308 209.56117548 202.56958619 214 209.5 C220.78032714 220.08704069 227.53742114 230.68864164 234.28222656 241.29833984 C237.18673563 245.86646056 240.0934662 250.43316739 243 255 C246.4776344 260.46416289 249.95486755 265.92857802 253.4296875 271.39453125 C260.28069053 282.16929056 267.15203102 292.93078185 274.03857422 303.68286133 C278.94361131 311.34335773 283.830968 319.01492454 288.7109375 326.69140625 C293.12751396 333.63602308 297.56117548 340.56958619 302 347.5 C308.78032714 358.08704069 315.53742114 368.68864164 322.28222656 379.29833984 C324.60246026 382.9475306 326.92413791 386.59580133 329.24609375 390.24389648 C330.41313956 392.0778024 331.57980772 393.91194869 332.74609375 395.74633789 C335.67958409 400.35944833 338.61905607 404.96854456 341.5703125 409.5703125 C360.78821204 439.57642409 360.78821204 439.57642409 365 448 C364.91697632 447.13000366 364.91697632 447.13000366 364.83227539 446.24243164 C363.27100129 429.05866869 362.73002838 411.88185961 362.44189453 394.63647461 C362.41068524 392.83398091 362.41068524 392.83398091 362.37884545 390.9950732 C361.79249429 356.16157619 361.85265602 321.32359139 361.86469954 286.48624903 C361.86701281 279.6189492 361.86725822 272.75165184 361.86618423 265.88435173 C361.866031 264.89352205 361.86587777 263.90269238 361.86571989 262.88183756 C361.86540008 260.86741647 361.86507587 258.85299537 361.8647473 256.83857428 C361.86192881 238.17171397 361.86512586 219.50485865 361.87054767 200.83799916 C361.87505113 184.83478671 361.87420397 168.83158148 361.86962891 152.82836914 C361.86428459 134.1261888 361.86216307 115.42401273 361.86524117 96.72183174 C361.86555967 94.73314822 361.86587404 92.7444647 361.86618423 90.75578117 C361.86633851 89.7777972 361.86649279 88.79981322 361.86665174 87.79219337 C361.86751446 80.908052 361.86606009 74.02391336 361.86370468 67.13977242 C361.86090985 58.79105334 361.86163982 50.44234367 361.86698543 42.09362567 C361.86962077 37.83789147 361.87062974 33.582173 361.86733627 29.3264389 C361.86437234 25.43839181 361.86596755 21.55037516 361.87131383 17.66233086 C361.8724371 16.25149183 361.87184879 14.84065027 361.86943804 13.42981286 C361.86642739 11.52292039 361.87009239 9.61602079 361.87415886 7.70913029 C361.87432121 6.64719332 361.87448356 5.58525635 361.87465084 4.49113947 C362 2 362 2 363 0 C370.93613787 -0.02312764 378.87226176 -0.04091723 386.80842495 -0.05181217 C390.49314498 -0.05704008 394.17784203 -0.06413605 397.86254883 -0.07543945 C401.41570831 -0.08627162 404.96884563 -0.09227753 408.52202034 -0.09487724 C409.88045666 -0.0967309 411.23889171 -0.10035038 412.59731865 -0.10573006 C414.49382223 -0.11294475 416.39034793 -0.11340809 418.28686523 -0.11352539 C419.36830307 -0.115746 420.44974091 -0.11796661 421.56394958 -0.12025452 C424 0 424 0 425 1 C425.0990026 3.79773408 425.13175266 6.57080427 425.12304783 9.36901951 C425.12420167 10.26163466 425.12535552 11.15424981 425.12654433 12.0739139 C425.12921887 15.10435285 425.12468199 18.13474006 425.12025452 21.16517639 C425.12069005 23.34393417 425.12156462 25.52269189 425.12284368 27.70144933 C425.1250922 33.71922758 425.12106251 39.7369882 425.11606562 45.7547642 C425.1117664 52.23265308 425.11320717 58.71054088 425.1139679 65.18843079 C425.11466667 76.42201527 425.11137794 87.65559434 425.10573006 98.88917732 C425.09981962 110.67511078 425.09596544 122.46104193 425.09487724 134.24697685 C425.0948085 134.97889921 425.09473976 135.71082157 425.09466894 136.4649234 C425.09433062 140.18175815 425.09402923 143.89859291 425.09374207 147.61542767 C425.09163983 173.964079 425.0848974 200.31272732 425.07543945 226.66137695 C425.06625991 252.26391585 425.0591739 277.86645393 425.05493164 303.46899414 C425.05480011 304.25772414 425.05466859 305.04645413 425.05453308 305.85908504 C425.05321459 313.77960057 425.05193877 321.70011611 425.05069422 329.62063165 C425.04815778 345.7566449 425.04533653 361.8926581 425.04234314 378.02867126 C425.04220585 378.77063213 425.04206856 379.51259299 425.04192711 380.27703751 C425.03272139 429.85135962 425.01685485 479.42567996 425 529 C415.2904258 529.11583031 405.58101585 529.20468288 395.87089157 529.25906086 C391.36208449 529.28515929 386.85374995 529.32056122 382.34521484 529.37719727 C377.99448247 529.43150921 373.64420468 529.46141868 369.29315948 529.47438622 C367.63290499 529.48362767 365.97267549 529.50167443 364.31261444 529.52865028 C361.98748449 529.56493208 359.66423449 529.56994607 357.33886719 529.56762695 C356.6519429 529.58560333 355.96501862 529.60357971 355.25727844 529.62210083 C351.59848468 529.58259464 350.26421823 529.26702842 347.64860535 526.62359619 C347.10456558 525.75780945 346.56052582 524.89202271 346 524 C345.1503064 522.74014282 345.1503064 522.74014282 344.28344727 521.45483398 C343.71682373 520.56094971 343.1502002 519.66706543 342.56640625 518.74609375 C341.92405029 517.73675781 341.28169434 516.72742187 340.61987305 515.6875 C339.94093994 514.615 339.26200684 513.5425 338.5625 512.4375 C337.1229735 510.17541032 335.6829215 507.91366367 334.2421875 505.65234375 C333.88221176 505.08675751 333.52223602 504.52117126 333.15135193 503.93844604 C329.86103773 498.77201709 326.53175473 493.63162227 323.1875 488.5 C322.65987061 487.68998535 322.13224121 486.8799707 321.58862305 486.04541016 C320.55609047 484.46038349 319.52345968 482.8754208 318.49072266 481.29052734 C314.75426613 475.54938174 311.03968149 469.79404158 307.32080078 464.04150391 C306.0265446 462.04102883 304.73038684 460.04180003 303.43359375 458.04296875 C297.96578342 449.61120263 292.53663707 441.15543695 287.125 432.6875 C280.628394 422.52343041 274.07629659 412.3971012 267.49072266 402.29052734 C263.75426613 396.54938174 260.03968149 390.79404158 256.32080078 385.04150391 C255.0265446 383.04102883 253.73038684 381.04180003 252.43359375 379.04296875 C246.96578342 370.61120263 241.53663707 362.15543695 236.125 353.6875 C229.62095923 343.51179856 223.0615479 333.37371812 216.46875 323.25537109 C209.67805326 312.82776862 202.94908382 302.36167044 196.25 291.875 C190.43479354 282.77314689 184.56313782 273.71052064 178.64990234 264.67211914 C173.32965492 256.52980922 168.08542119 248.34013342 162.85083008 240.14257812 C157.11201025 231.16044388 151.30979712 222.22079014 145.49072266 213.29052734 C141.75426613 207.54938174 138.03968149 201.79404158 134.32080078 196.04150391 C133.0265446 194.04102883 131.73038684 192.04180003 130.43359375 190.04296875 C124.96578342 181.61120263 119.53663707 173.15543695 114.125 164.6875 C109.17321964 156.94034092 104.20330986 149.20587426 99.1875 141.5 C98.65930664 140.68829346 98.13111328 139.87658691 97.58691406 139.0402832 C95.5773415 135.95361731 93.56684439 132.86756825 91.55224609 129.78417969 C65.67776319 90.1736398 65.67776319 90.1736398 61 75 C60.34 75 59.68 75 59 75 C59.309375 76.2375 59.61875 77.475 59.9375 78.75 C60.96674651 83.91045501 61.31736125 88.99147601 61.55889034 94.23426437 C61.60075195 95.11422346 61.64261355 95.99418255 61.68574369 96.90080707 C62.07924758 105.76964278 62.13698755 114.6257893 62.12025452 123.50177002 C62.12069208 125.26794664 62.12157038 127.03412319 62.12284368 128.80029941 C62.1250523 133.58938822 62.12111795 138.37845416 62.11606562 143.16754007 C62.11170836 148.35605772 62.11321125 153.54457429 62.1139679 158.73309326 C62.11448981 167.70128937 62.11137787 176.66947816 62.10573006 185.63767242 C62.09756982 198.60384699 62.09499522 211.57001804 62.09374207 224.53619489 C62.09155863 245.57784287 62.0849178 266.61948695 62.07543945 287.66113281 C62.06624698 308.08951803 62.05917514 328.51790219 62.05493164 348.94628906 C62.05466892 350.20752072 62.05440619 351.46875237 62.05413551 352.76820317 C62.05283038 359.09603669 62.05156669 365.42387021 62.05032361 371.75170374 C62.03997305 424.16780533 62.022097 476.58390216 62 529 C41.54 529 21.08 529 0 529 C0 354.43 0 179.86 0 0 Z " fill="#FEFDFE" transform="translate(1408,967)"/>
<path d="M0 0 C88.44 0 176.88 0 268 0 C268 18.81 268 37.62 268 57 C200.02 57 132.04 57 62 57 C62 114.75 62 172.5 62 232 C125.03 232 188.06 232 253 232 C253 250.48 253 268.96 253 288 C189.97 288 126.94 288 62 288 C62 348.72 62 409.44 62 472 C133.94 472 205.88 472 280 472 C280 490.81 280 509.62 280 529 C244.47407012 529.02202602 208.94814666 529.04049763 173.42221192 529.05106533 C169.2325651 529.05231611 165.04291829 529.05361042 160.85327148 529.05493164 C160.01915227 529.05519395 159.18503306 529.05545626 158.32563751 529.05572652 C144.80157075 529.06008346 131.27750821 529.06797113 117.75344396 529.0771528 C103.88705724 529.08648868 90.02067273 529.09205547 76.15428299 529.09408849 C67.59094627 529.09546386 59.02762151 529.09981516 50.46428847 529.10791647 C44.60023418 529.11318313 38.73618611 529.11480448 32.87212963 529.11350138 C29.48372668 529.11285787 26.09534469 529.11387692 22.70694542 529.11920547 C19.04200433 529.12413517 15.37711561 529.12300098 11.71217346 529.12025452 C10.62951173 529.12316736 9.54685 529.1260802 8.43138033 529.12908131 C7.45752192 529.12709026 6.4836635 529.12509921 5.48029423 529.12304783 C4.63313817 529.12342755 3.78598211 529.12380727 2.91315466 529.1241985 C1 529 1 529 0 528 C-0.0990026 525.20226592 -0.13175266 522.42919573 -0.12304783 519.63098049 C-0.12420167 518.73836534 -0.12535552 517.84575019 -0.12654433 516.9260861 C-0.12921887 513.89564715 -0.12468199 510.86525994 -0.12025452 507.83482361 C-0.12069005 505.65606583 -0.12156462 503.47730811 -0.12284368 501.29855067 C-0.1250922 495.28077242 -0.12106251 489.2630118 -0.11606562 483.2452358 C-0.1117664 476.76734692 -0.11320717 470.28945912 -0.1139679 463.81156921 C-0.11466667 452.57798473 -0.11137794 441.34440566 -0.10573006 430.11082268 C-0.09981962 418.32488922 -0.09596544 406.53895807 -0.09487724 394.75302315 C-0.0948085 394.02110079 -0.09473976 393.28917843 -0.09466894 392.5350766 C-0.09433062 388.81824185 -0.09402923 385.10140709 -0.09374207 381.38457233 C-0.09163983 355.035921 -0.0848974 328.68727268 -0.07543945 302.33862305 C-0.06625991 276.73608414 -0.0591908 251.13354607 -0.05493164 225.53100586 C-0.054661 223.92194162 -0.05439029 222.31287738 -0.05411953 220.70381314 C-0.05193086 207.63017734 -0.04988824 194.55654153 -0.04788104 181.48290571 C-0.03848797 120.98860095 -0.01841905 60.49430406 0 0 Z " fill="#FDFDFE" transform="translate(1972,967)"/>
<path d="M0 0 C1.27281374 -0.00260775 2.54562747 -0.00521549 3.85701132 -0.00790226 C5.28792173 -0.00573974 6.718832 -0.00348306 8.14974213 -0.0011425 C9.65544501 -0.00229334 11.16114761 -0.0038806 12.66684961 -0.00586975 C16.82424164 -0.01006826 20.9816109 -0.00797004 25.13900304 -0.00488353 C29.61484896 -0.00263176 34.09069082 -0.00610792 38.56653595 -0.00886345 C47.34255026 -0.01332254 56.11855605 -0.01234406 64.89457071 -0.00945081 C72.02364 -0.00719732 79.15270689 -0.00688402 86.28177643 -0.00797462 C87.29435907 -0.00812786 88.30694171 -0.00828109 89.35020867 -0.00843897 C91.40690641 -0.00875868 93.46360414 -0.00908289 95.52030188 -0.00941156 C114.83021306 -0.01226676 134.1401195 -0.0089787 153.45002991 -0.00361119 C170.03804671 0.00085688 186.62605651 0.00008096 203.21407318 -0.00452995 C222.45236943 -0.00987501 241.69066153 -0.01199206 260.92895842 -0.00891769 C262.97831694 -0.00859912 265.02767547 -0.00828475 267.077034 -0.00797462 C268.58973082 -0.00774321 268.58973082 -0.00774321 270.13298717 -0.00750712 C277.25790198 -0.00664176 284.38281417 -0.00810525 291.50772858 -0.01045418 C300.18428603 -0.01325162 308.86083442 -0.01251511 317.53739083 -0.00717343 C321.96880983 -0.00453566 326.40021371 -0.00353263 330.83163261 -0.00682259 C334.88161458 -0.009784 338.9315673 -0.00819536 342.98154658 -0.00284503 C344.45326066 -0.00172018 345.92497717 -0.00231352 347.39668971 -0.00472082 C349.38406164 -0.00772433 351.3714404 -0.00407173 353.35881042 0 C354.466672 0.00016235 355.57453357 0.0003247 356.7159667 0.00049198 C359.17940521 0.12584114 359.17940521 0.12584114 360.17940521 1.12584114 C360.17940521 19.60584114 360.17940521 38.08584114 360.17940521 57.12584114 C310.01940521 57.12584114 259.85940521 57.12584114 208.17940521 57.12584114 C208.18464203 71.38859261 208.18987885 85.65134407 208.19527435 100.34630013 C208.205997 130.82905225 208.21542518 161.3118042 208.22174835 191.79455757 C208.22195544 192.79033006 208.22195544 192.79033006 208.22216671 193.80621916 C208.22515926 208.23168777 208.2279295 222.65715642 208.23047054 237.08262512 C208.23171793 244.15635664 208.23301448 251.23008815 208.23433685 258.30381966 C208.23446761 259.00775981 208.23459837 259.71169996 208.23473309 260.43697162 C208.23899826 283.27433541 208.24651241 306.11169673 208.25570243 328.94905902 C208.26539212 353.07178282 208.27139881 377.19450507 208.27349371 401.31723076 C208.27486928 415.7767827 208.27922172 430.23632756 208.28732168 444.69587732 C208.29258709 454.59668949 208.29420998 464.49749796 208.29290659 474.39831143 C208.29226289 480.11981802 208.29328433 485.84131221 208.29861069 491.56281662 C208.30344307 496.79155387 208.30374493 502.02027025 208.30030411 507.24900842 C208.29987825 509.14941784 208.30117534 511.04982851 208.30428839 512.95023542 C208.30824972 515.51585376 208.30617027 518.08139484 208.30245304 520.64701176 C208.30639356 521.77654129 208.30639356 521.77654129 208.31041369 522.9288896 C208.29355101 528.01169534 208.29355101 528.01169534 207.17940521 529.12584114 C205.28241673 529.22499909 203.38171734 529.25383428 201.48213959 529.25523567 C199.65519562 529.25996391 199.65519562 529.25996391 197.79134369 529.26478767 C196.45194717 529.26299789 195.11255097 529.26094694 193.77315521 529.25865364 C192.40934481 529.25932674 191.04553453 529.26029681 189.68172455 529.26155281 C186.8201 529.26302952 183.95850661 529.26087611 181.09688568 529.25621223 C177.42121907 529.25051495 173.74562547 529.2537941 170.06996155 529.2597847 C167.25278418 529.26339105 164.43562423 529.26225139 161.61844635 529.25965691 C160.26280458 529.25898784 158.90716125 529.25981535 157.5515213 529.26213646 C155.65990477 529.26466415 153.76828272 529.26013128 151.87667084 529.25523567 C150.25903839 529.25404228 150.25903839 529.25404228 148.6087265 529.25282478 C146.17940521 529.12584114 146.17940521 529.12584114 145.17940521 528.12584114 C145.08057719 525.62386712 145.04762712 523.14949589 145.05635738 520.64701176 C145.05520354 519.85063391 145.0540497 519.05425606 145.05286089 518.23374555 C145.05018685 515.53067843 145.05472281 512.82766935 145.0591507 510.12460518 C145.05871515 508.18096101 145.05784056 506.2373169 145.05656153 504.2936731 C145.05431321 498.92578376 145.05834243 493.55791417 145.06333959 488.19002736 C145.06763911 482.41153151 145.06619802 476.63303687 145.06543732 470.85453987 C145.06491176 460.83396768 145.06806183 450.81340198 145.07367516 440.79283142 C145.08178593 426.30458572 145.08440494 411.81634317 145.08566315 397.32809544 C145.08776534 373.82455904 145.09450766 350.32102603 145.10396576 326.81749153 C145.11314541 303.97960109 145.12023136 281.14171157 145.12447357 258.30381966 C145.1246051 257.60025085 145.12473662 256.89668204 145.12487214 256.17179296 C145.12619062 249.10647123 145.12746644 242.04114948 145.128711 234.97582773 C145.13124743 220.58207096 145.13406868 206.18831425 145.13706207 191.79455757 C145.13726801 190.80178558 145.13726801 190.80178558 145.1374781 189.78895759 C145.14668372 145.56791706 145.16316869 101.34687969 145.17940521 57.12584114 C95.01940521 57.12584114 44.85940521 57.12584114 -6.82059479 57.12584114 C-6.82059479 0.00099953 -6.82059479 0.00099953 0 0 Z " fill="#FCFBFD" transform="translate(2305.8205947875977,966.8741588592529)"/>
<path d="M0 0 C9.9 0 19.8 0 30 0 C30 67.32 30 134.64 30 204 C21.75 204 13.5 204 5 204 C4.97677834 184.4579949 4.9589683 164.91599375 4.94818783 145.37397766 C4.94304759 136.29879281 4.93604856 127.22361672 4.92456055 118.1484375 C4.9145439 110.23176664 4.90813007 102.31510213 4.90591151 94.3984251 C4.90461618 90.21276245 4.90160585 86.02711797 4.89426994 81.84146118 C4.88739916 77.88854823 4.88540512 73.93566066 4.88689232 69.98274231 C4.88662089 68.5446102 4.88468219 67.1064771 4.88079453 65.66835022 C4.85530018 55.73640998 5.27820914 45.89998164 6 36 C5.61827385 37.0552034 5.2365477 38.1104068 4.84325409 39.19758606 C0.67142621 50.70575577 -4.23759562 61.83769209 -9.25 73 C-10.13823903 74.98778554 -11.02609 76.97574453 -11.91357422 78.96386719 C-17.98637555 92.55641002 -24.10445173 106.12869379 -30.22991943 119.6975708 C-36.42120674 133.41493132 -42.48476925 147.18568256 -48.51171875 160.97592163 C-54.82184234 175.40679089 -61.30989261 189.74088876 -68 204 C-71.96 204 -75.92 204 -80 204 C-85.13908871 194.1194025 -89.79221953 184.07836418 -94.23876953 173.86865234 C-98.26593566 164.63350274 -102.38433553 155.44185606 -106.52764893 146.2583313 C-114.70711646 128.12839064 -122.83342238 109.97577328 -130.88037109 91.78662109 C-132.38249628 88.39219567 -133.88866296 84.99959193 -135.39697266 81.60791016 C-137.47137582 76.94283225 -139.53950635 72.27501567 -141.60375977 67.60543823 C-142.39957473 65.80776199 -143.19737546 64.01096331 -143.99731445 62.21511841 C-145.11453966 59.70576743 -146.22410246 57.19315424 -147.33203125 54.6796875 C-147.65943802 53.94885452 -147.98684479 53.21802155 -148.32417297 52.46504211 C-150.72144469 46.9954985 -152.25108542 41.82971526 -154 36 C-154 91.44 -154 146.88 -154 204 C-161.59 204 -169.18 204 -177 204 C-177 137.01 -177 70.02 -177 1 C-166.44 1 -155.88 1 -145 1 C-135.33559765 22.28224772 -125.85226355 43.63444912 -116.48191833 65.04740906 C-113.80962463 71.15372094 -111.13147121 77.25743139 -108.44921875 83.359375 C-104.71677896 91.85042401 -100.98884574 100.34343738 -97.26416016 108.83789062 C-95.71828081 112.36321169 -94.17090753 115.8878723 -92.62255859 119.41210938 C-90.66002546 123.87967058 -88.70113038 128.34881162 -86.74465942 132.81903076 C-86.00975378 134.49668039 -85.27368728 136.17382207 -84.53634644 137.85040283 C-80.74394093 146.4758323 -77.03360486 155.07002399 -74 164 C-71.86129756 161.86129756 -71.3002053 160.53755302 -70.25 157.7421875 C-69.89881104 156.82832275 -69.54762207 155.91445801 -69.18579102 154.97290039 C-68.79447998 153.95059326 -68.40316895 152.92828613 -68 151.875 C-63.52282022 140.44736308 -58.62297215 129.24230484 -53.5625 118.0625 C-52.98894775 116.79511993 -52.98894775 116.79511993 -52.40380859 115.50213623 C-50.41524768 111.11176528 -48.4221258 106.72348462 -46.42626953 102.33642578 C-44.02580704 97.0595065 -41.6345844 91.77844094 -39.24609375 86.49609375 C-38.85436478 85.62975311 -38.4626358 84.76341248 -38.05903625 83.87081909 C-37.26780165 82.12087927 -36.47658765 80.37093014 -35.68539429 78.62097168 C-34.50231985 76.0051293 -33.31832193 73.38970688 -32.1340332 70.77441406 C-28.09366523 61.85076973 -24.06220512 52.92322284 -20.046875 43.98828125 C-19.64186768 43.08721649 -19.23686035 42.18615173 -18.81958008 41.25778198 C-16.89441332 36.97399513 -14.97057972 32.68961686 -13.04882812 28.40429688 C-8.78075503 18.89653785 -4.42980074 9.43362015 0 0 Z " fill="#FCFCFD" transform="translate(1587,704)"/>
<path d="M0 0 C13.29035741 12.11767882 19.06909927 30.97468174 20.24414062 48.43383789 C20.34110114 51.50466656 20.36816162 54.56443723 20.3515625 57.63671875 C20.34419067 59.26806763 20.34419067 59.26806763 20.33666992 60.93237305 C20.04109244 81.38481934 14.23839606 100.05443075 0.171875 115.4140625 C-15.49900956 129.90819565 -34.93772624 135.61608062 -55.9609375 135.38671875 C-75.42541541 134.31187308 -91.83422197 127.58502003 -105.38671875 113.39453125 C-120.2002108 96.08589866 -124.56070322 73.69114467 -122.9609375 51.38671875 C-120.99575602 31.53666192 -114.17874848 11.56448173 -98.53125 -1.66796875 C-69.26882439 -24.14490436 -28.1574279 -23.16537395 0 0 Z " fill="#FCFAFC" transform="translate(2376.9609375,776.61328125)"/>
<path d="M0 0 C14.2282785 13.35437272 20.47032098 32.4690634 21.1328125 51.58984375 C21.61631903 76.31256896 17.71997566 98.18678559 0.265625 116.83984375 C-14.82542959 131.32140502 -34.7041193 136.52834395 -55.15234375 136.16015625 C-74.23530141 135.10313782 -90.84983475 128.56564947 -104.125 114.5703125 C-119.63593132 96.1305348 -123.74211226 73.19123945 -121.87890625 49.71484375 C-119.57660794 30.64486339 -112.58795561 11.90298204 -97.71484375 -0.90234375 C-87.85908031 -8.40292475 -76.37011221 -13.74948808 -64.15234375 -15.83984375 C-63.42273437 -15.96875 -62.693125 -16.09765625 -61.94140625 -16.23046875 C-39.4923074 -19.40171692 -17.42650402 -14.8963401 0 0 Z " fill="#FCFAFC" transform="translate(2083.15234375,775.83984375)"/>
<path d="M0 0 C9.35224674 8.64571518 14.19230911 22.02888174 14.98950195 34.60473633 C15.39599977 54.76929557 15.59898478 74.4201032 1.0625 90.1875 C-8.43141472 99.04606669 -20.53810571 101.65858038 -33.1875 101.8125 C-45.4758616 101.20080058 -56.33632401 97.40145026 -65.37890625 88.84765625 C-77.2599145 75.47831436 -80.97638373 58.5037475 -80 41.0078125 C-78.72663609 25.4957776 -74.08346316 9.62219481 -62.1875 -1.1875 C-43.21500369 -14.93850588 -18.33865335 -14.70552391 0 0 Z " fill="#6A2996" transform="translate(2065.1875,790.1875)"/>
<path d="M0 0 C9.72647519 8.91780751 14.74468409 22.77995529 15.45092773 35.80249023 C16.10484627 55.05391591 15.38143265 73.547522 2.5625 89.0625 C-1.38077187 93.25731266 -5.43501535 95.94580121 -10.6875 98.25 C-11.36167969 98.55679688 -12.03585938 98.86359375 -12.73046875 99.1796875 C-24.22841668 103.70983584 -38.32307876 103.47114707 -49.78125 99.05859375 C-63.38243245 92.75602562 -71.49131746 83.16878639 -76.81640625 69.3125 C-82.63645991 49.0688351 -80.00245769 27.27808956 -69.9375 8.9375 C-63.76058834 -0.74437681 -54.91110346 -6.55320523 -43.89453125 -9.49609375 C-28.01051573 -12.74458776 -12.87001183 -10.12216616 0 0 Z " fill="#6A2996" transform="translate(2357.6875,789.75)"/>
<path d="M0 0 C1.71123047 -0.03867187 1.71123047 -0.03867187 3.45703125 -0.078125 C7.1875 0.25 7.1875 0.25 16.1875 3.25 C16.1875 10.18 16.1875 17.11 16.1875 24.25 C14.3725 23.755 12.5575 23.26 10.6875 22.75 C2.19456152 20.65912417 -4.74239607 20.43138761 -12.8125 24.25 C-19.31583291 29.16362931 -21.69502081 36.44041685 -22.8125 44.25 C-22.95424013 46.55795411 -23.05732059 48.86849346 -23.12890625 51.1796875 C-23.16701416 52.34226074 -23.20512207 53.50483398 -23.24438477 54.70263672 C-23.28748779 56.1620166 -23.33059082 57.62139648 -23.375 59.125 C-23.519375 63.78625 -23.66375 68.4475 -23.8125 73.25 C-12.5925 73.25 -1.3725 73.25 10.1875 73.25 C10.1875 79.85 10.1875 86.45 10.1875 93.25 C-1.0325 93.25 -12.2525 93.25 -23.8125 93.25 C-23.8125 134.5 -23.8125 175.75 -23.8125 218.25 C-31.4025 218.25 -38.9925 218.25 -46.8125 218.25 C-46.8125 177 -46.8125 135.75 -46.8125 93.25 C-55.0625 93.25 -63.3125 93.25 -71.8125 93.25 C-71.8125 86.65 -71.8125 80.05 -71.8125 73.25 C-63.5625 73.25 -55.3125 73.25 -46.8125 73.25 C-46.84730469 71.00703125 -46.88210937 68.7640625 -46.91796875 66.453125 C-46.94148079 64.23878243 -46.95963063 62.02445467 -46.97729492 59.81005859 C-46.99222112 58.29143879 -47.01256959 56.77286083 -47.03881836 55.25439453 C-47.29841756 39.83114803 -45.57291494 25.27888966 -34.5625 13.4375 C-24.8245422 4.47341964 -13.12342206 0.17674643 0 0 Z " fill="#FEFDFE" transform="translate(2489.8125,689.75)"/>
<path d="M0 0 C1.57672485 0.00519653 1.57672485 0.00519653 3.18530273 0.01049805 C14.15308331 0.1633797 23.09520962 1.96044698 33.25 6.3125 C33.25 14.2325 33.25 22.1525 33.25 30.3125 C30.3728125 28.9203125 30.3728125 28.9203125 27.4375 27.5 C18.60062407 23.43177482 9.96820029 20.90859779 0.25 20.3125 C-1.008125 20.23 -2.26625 20.1475 -3.5625 20.0625 C-11.38901115 20.18797513 -19.73142997 22.19671547 -25.75 27.3125 C-30.56389825 32.77692504 -31.1186938 36.08048243 -31.015625 43.26953125 C-30.63685064 47.60872579 -29.65006382 50.10525239 -26.75 53.3125 C-20.91394636 57.88734346 -14.58396669 60.92137063 -7.75 63.6875 C-5.90017969 64.46148477 -4.05123257 65.23755944 -2.203125 66.015625 C-1.28853516 66.39912109 -0.37394531 66.78261719 0.56835938 67.17773438 C16.17969856 73.78384367 30.75216604 80.3908271 38.48828125 96.41796875 C41.89227511 104.88431246 41.2823025 115.50428129 38.28515625 124.0078125 C32.79475855 136.23171682 23.47401881 143.34129828 11.25 148.3125 C-10.88231288 155.2745617 -34.97351493 153.70074253 -55.75 143.3125 C-55.75 135.0625 -55.75 126.8125 -55.75 118.3125 C-51.68108544 119.94006582 -47.99275032 121.72008589 -44.125 123.75 C-29.57651648 131.11819478 -13.72689712 133.33919765 2.25 129.3125 C7.59028219 127.45278512 11.13641466 125.16969313 14.25 120.3125 C15.94901108 115.21546675 16.1767424 109.43509062 14.63671875 104.24609375 C10.64277712 96.38137169 2.20844107 92.49633477 -5.625 89.4375 C-7.29743343 88.75657832 -8.96929435 88.07424901 -10.640625 87.390625 C-11.48560547 87.04837891 -12.33058594 86.70613281 -13.20117188 86.35351562 C-39.34848015 75.67419355 -39.34848015 75.67419355 -47.75 66.3125 C-48.7709375 65.260625 -48.7709375 65.260625 -49.8125 64.1875 C-56.52372436 54.22890901 -57.34940605 42.76499023 -55.16015625 31.1953125 C-51.745303 20.08523696 -42.65660467 11.89054317 -32.75 6.3125 C-22.18882969 1.48583334 -11.52722201 -0.06188988 0 0 Z " fill="#FBFAFC" transform="translate(2187.75,759.6875)"/>
<path d="M0 0 C0 13.86 0 27.72 0 42 C11.88 42 23.76 42 36 42 C36 48.6 36 55.2 36 62 C31.71632842 62.85673432 28.27442669 63.11606139 23.94921875 63.09765625 C23.29041214 63.0962413 22.63160553 63.09482635 21.95283508 63.09336853 C19.86434238 63.087805 17.77595989 63.07525947 15.6875 63.0625 C14.26497551 63.05748028 12.84244934 63.0529182 11.41992188 63.04882812 C7.94657923 63.03784757 4.47330039 63.02060835 1 63 C0.93035572 74.70945159 0.87711548 86.41885355 0.84456348 98.12847042 C0.82893673 103.56627174 0.80775308 109.00393088 0.77368164 114.44165039 C0.74098158 119.69362846 0.72312451 124.94547014 0.71536827 130.19754219 C0.70984386 132.19691679 0.69905613 134.19628429 0.68280983 136.19560051 C0.66089403 139.00548048 0.65803897 141.81480358 0.65942383 144.62475586 C0.648638 145.44331558 0.63785217 146.26187531 0.6267395 147.10523987 C0.6637047 154.0793413 1.95414931 160.32902826 6.25 165.9375 C12.10449951 170.32837463 18.90960777 170.76443291 26 170 C28.78329306 169.18663902 31.31891348 168.12887853 34 167 C34.99 167 35.98 167 37 167 C37.13481759 169.93902349 37.23399416 172.87189559 37.3125 175.8125 C37.35439453 176.64587891 37.39628906 177.47925781 37.43945312 178.33789062 C37.48601728 180.65678564 37.47174639 182.7280326 37 185 C34.66796875 187.00390625 34.66796875 187.00390625 32 188 C31.01 188.37125 30.02 188.7425 29 189.125 C16.54721776 192.30558074 2.5773518 191.88077208 -8.78515625 185.52734375 C-17.00412189 179.85959143 -21.51238288 171.06837332 -23.54624939 161.4045105 C-24.11736426 157.11941087 -24.17664683 152.91654465 -24.20532227 148.59814453 C-24.21522186 147.67067917 -24.22512146 146.74321381 -24.23532104 145.78764343 C-24.26679272 142.73605868 -24.2916366 139.68445839 -24.31640625 136.6328125 C-24.33698816 134.51146043 -24.35798496 132.39011234 -24.37937927 130.26876831 C-24.43447215 124.69575233 -24.48393766 119.12270012 -24.53222656 113.54962158 C-24.5825351 107.85856924 -24.63817228 102.16756926 -24.69335938 96.4765625 C-24.80078454 85.31775148 -24.9017714 74.15889577 -25 63 C-32.92 63 -40.84 63 -49 63 C-49 56.07 -49 49.14 -49 42 C-40.75 42 -32.5 42 -24 42 C-24 30.45 -24 18.9 -24 7 C-12.58552632 2.43421053 -12.58552632 2.43421053 -8.625 1.25 C-7.83351563 1.00765625 -7.04203125 0.7653125 -6.2265625 0.515625 C-4 0 -4 0 0 0 Z " fill="#FBFAFC" transform="translate(2556,721)"/>
<path d="M0 0 C1 1 1 1 1.11352539 3.22485352 C1.10567017 4.66235962 1.10567017 4.66235962 1.09765625 6.12890625 C1.09282227 7.68061523 1.09282227 7.68061523 1.08789062 9.26367188 C1.07532227 10.8965918 1.07532227 10.8965918 1.0625 12.5625 C1.05798828 13.65498047 1.05347656 14.74746094 1.04882812 15.87304688 C1.03699826 18.58208495 1.02051543 21.29101599 1 24 C-2.40271431 22.65906542 -5.65985336 21.18364726 -8.9375 19.5625 C-23.28857453 13.01639583 -37.0469216 12.58925956 -52 17 C-63.83586723 21.76489107 -72.52998034 30.5429771 -78 42 C-84.87941088 59.44107052 -85.98236418 80.74890831 -78.640625 98.23828125 C-73.0799693 109.97585088 -65.61989975 117.72364805 -53.25 122.375 C-39.94801186 126.95502586 -26.06065357 125.86793425 -13 121 C-9.64555968 119.27285157 -6.46638745 117.42915038 -3.29296875 115.390625 C-1 114 -1 114 1 114 C1 121.26 1 128.52 1 136 C-19.48489557 146.12989341 -41.0741027 148.97523789 -63.1875 142.3125 C-80.7362809 135.92040373 -92.45414176 124.15287727 -101.3125 108.0625 C-111.33687574 86.49629715 -110.26442774 60.7284788 -102.8671875 38.61328125 C-96.19513405 21.35873242 -84.44642277 8.47361368 -68 0 C-64.39006987 -1.58081908 -60.77655469 -2.87948377 -57 -4 C-55.93845703 -4.31904297 -55.93845703 -4.31904297 -54.85546875 -4.64453125 C-37.33772395 -9.44722657 -16.3424977 -8.22683558 0 0 Z " fill="#FBFAFC" transform="translate(1835,766)"/>
<path d="M0 0 C7.81482258 7.25495469 13.73733814 16.45540502 14.48046875 27.2734375 C14.84608764 40.45375241 12.56384544 50.9324632 3.2421875 60.8046875 C-5.24393686 69.37584316 -14.69380306 74.04837443 -26.9453125 74.1796875 C-39.17815605 73.96253643 -47.99215265 70.34247058 -56.7578125 61.8046875 C-64.54120304 53.64781373 -68.26829951 44.22286289 -68.8515625 32.98046875 C-68.49536851 20.91439724 -64.68132261 10.90289773 -56.5078125 2.0546875 C-40.19965057 -13.00993267 -17.41780481 -13.86516474 0 0 Z " fill="#FDFDFE" transform="translate(1284.7578125,1430.1953125)"/>
<path d="M0 0 C1.02867188 -0.01160156 1.02867188 -0.01160156 2.078125 -0.0234375 C6.69944713 -0.00579887 9.43481882 0.72827294 14 2.25 C14 10.17 14 18.09 14 26.25 C10.37 25.26 6.74 24.27 3 23.25 C-5.24629173 22.24743879 -12.72823885 23.05259346 -20 27.25 C-21.0035608 28.24642648 -22.00432582 29.24569281 -23 30.25 C-23.66 30.25 -24.32 30.25 -25 30.25 C-25.27070312 30.81847656 -25.54140625 31.38695312 -25.8203125 31.97265625 C-27.03761757 34.32261934 -28.43164599 36.47011936 -29.875 38.6875 C-36.00379773 48.80226398 -38.11834942 60.04916416 -38.20532227 71.73388672 C-38.22017166 72.9787812 -38.22017166 72.9787812 -38.23532104 74.24882507 C-38.26675812 76.97575079 -38.29162268 79.70269389 -38.31640625 82.4296875 C-38.33699116 84.32683754 -38.35798803 86.22398315 -38.37937927 88.12112427 C-38.43444119 93.10229902 -38.4839202 98.08351407 -38.53222656 103.0647583 C-38.58255787 108.15258347 -38.6381831 113.24035048 -38.69335938 118.328125 C-38.80074661 128.30203538 -38.90174484 138.27599547 -39 148.25 C-46.92 148.25 -54.84 148.25 -63 148.25 C-63 100.07 -63 51.89 -63 2.25 C-55.08 2.25 -47.16 2.25 -39 2.25 C-38.67 10.83 -38.34 19.41 -38 28.25 C-36.35 24.95 -34.7 21.65 -33 18.25 C-24.94933687 6.9581608 -14.04402116 -0.15839122 0 0 Z " fill="#FAF8FB" transform="translate(1933,759.75)"/>
<path d="M0 0 C7.92 0 15.84 0 24 0 C24 47.85 24 95.7 24 145 C16.08 145 8.16 145 0 145 C0 97.15 0 49.3 0 0 Z " fill="#FCFAFC" transform="translate(1666,763)"/>
<path d="M0 0 C4.85901474 2.29698879 7.66907123 5.15884024 10 10 C10.7971639 14.99447589 10.57907893 18.79729761 8.375 23.375 C5.02561758 27.07694899 2.48604424 29.63691157 -2.62109375 30.3828125 C-8.57344491 30.62510631 -12.41318667 30.128132 -17 26 C-20.72925434 21.69631284 -21.26886374 17.59572668 -21 12 C-19.78507367 7.55033233 -17.71834581 4.70082518 -14.4375 1.5 C-9.55375675 -0.63108796 -5.24808614 -0.7664865 0 0 Z " fill="#FAF9FC" transform="translate(1684,696)"/>
</svg>
