<svg width="32" height="32" viewBox="0 0 32 32" fill="none" xmlns="http://www.w3.org/2000/svg">
<path d="M16 30C8.27667 30 2 23.7233 2 16C2 8.27667 8.27667 2 16 2C17.0344 2 17.8667 2.83222 17.8667 3.86667C17.8667 4.90111 17.0344 5.73333 16 5.73333C10.3378 5.73333 5.73333 10.3378 5.73333 16C5.73333 21.6622 10.3378 26.2667 16 26.2667C17.0344 26.2667 17.8667 27.0989 17.8667 28.1333C17.8667 29.1678 17.0344 30 16 30Z" fill="#27AA27"/>
<path d="M16.0005 30C14.966 30 14.1338 29.1678 14.1338 28.1334C14.1338 27.0989 14.966 26.2667 16.0005 26.2667C19.0027 26.2667 21.8493 24.9523 23.8093 22.6656C25.396 20.8067 26.2671 18.4423 26.2671 16C26.2671 14.9656 27.0993 14.1334 28.1338 14.1334C29.1682 14.1334 30.0005 14.9656 30.0005 16C30.0005 19.3367 28.8105 22.5645 26.6405 25.0923C23.9805 28.2111 20.0993 30 16.0005 30Z" fill="#8EC741"/>
<path d="M25.9869 6.00556C25.7458 5.76445 25.388 5.67112 25.0613 5.77223L15.728 8.58001C15.308 8.70445 15.0358 9.10112 15.0669 9.53667C15.098 9.97223 15.4246 10.33 15.8524 10.3922L20.8146 11.1856L21.6158 16.1478C21.6858 16.5756 22.0435 16.9022 22.4791 16.9333C22.5024 16.9333 22.518 16.9333 22.5413 16.9333C22.9535 16.9333 23.3191 16.6611 23.4358 16.2644L26.228 6.93112C26.3135 6.60445 26.228 6.24667 25.9869 6.00556Z" fill="#33C2AF"/>
</svg>
