<svg viewBox="0 0 316.55 284.52" xmlns="http://www.w3.org/2000/svg"><g fill="#ff6c37"><path d="m0 282.07v-42.94a1.72 1.72 0 0 1 .61-1.31 2.27 2.27 0 0 1 1.56-.54h12.11a14.19 14.19 0 0 1 9.84 3.32q3.69 3.32 3.69 10.47v.58q0 7.16-3.76 10.51a14.53 14.53 0 0 1 -10 3.35h-8.61v16.56a1.55 1.55 0 0 1 -.8 1.4 3.69 3.69 0 0 1 -3.77 0 1.56 1.56 0 0 1 -.87-1.4zm5.36-21h8.67a8.31 8.31 0 0 0 6.24-2.28 9.31 9.31 0 0 0 2.22-6.79v-.78a9.35 9.35 0 0 0 -2.19-6.8 8.29 8.29 0 0 0 -6.24-2.26h-8.62z"/><path d="m46.56 270.44v-19.24q0-7.2 3.75-10.57a16.67 16.67 0 0 1 20 0q3.79 3.37 3.8 10.57v19.24q0 7.21-3.77 10.57a16.61 16.61 0 0 1 -20.07 0c-2.47-2.25-3.71-5.74-3.71-10.57zm5.38 0q0 9.06 8.36 9.07a8.26 8.26 0 0 0 6.23-2.26 9.44 9.44 0 0 0 2.2-6.81v-19.24a9.31 9.31 0 0 0 -2.2-6.8 8.26 8.26 0 0 0 -6.23-2.26c-5.58 0-8.36 3-8.36 9.06z"/><path d="m93.08 277.4a3.29 3.29 0 0 1 .74-2 2.06 2.06 0 0 1 1.55-1 2.57 2.57 0 0 1 1.47.81c.59.53 1.22 1.12 1.86 1.78a8.41 8.41 0 0 0 3 1.79 12.43 12.43 0 0 0 4.68.79 9.68 9.68 0 0 0 6.51-2 7.26 7.26 0 0 0 2.37-5.91 7.78 7.78 0 0 0 -2.16-5.72 14.51 14.51 0 0 0 -5.24-3.35c-2.06-.76-4.1-1.56-6.24-2.46a13.38 13.38 0 0 1 -5.27-4 11 11 0 0 1 -2.16-7 12.71 12.71 0 0 1 1.27-5.85 9 9 0 0 1 3.42-3.74 16.94 16.94 0 0 1 4.44-1.84 19.86 19.86 0 0 1 4.91-.58 25 25 0 0 1 7.58 1.14c2.4.78 3.62 1.84 3.62 3.12a3.79 3.79 0 0 1 -.64 1.92 1.9 1.9 0 0 1 -1.67 1 19.66 19.66 0 0 1 -2.87-1.13 14.15 14.15 0 0 0 -5.94-1.22 11.21 11.21 0 0 0 -6.24 1.56 5.63 5.63 0 0 0 -2.4 5.05 5.87 5.87 0 0 0 2.11 4.8 16.56 16.56 0 0 0 5.27 2.9c2.07.73 4.13 1.56 6.23 2.5a13.19 13.19 0 0 1 5.21 4.5 13.52 13.52 0 0 1 2.17 7.89c0 4.4-1.28 7.7-3.84 9.95a14.85 14.85 0 0 1 -10.15 3.35 18.14 18.14 0 0 1 -9.6-2.39c-2.68-1.54-3.99-3.06-3.99-4.66z"/><path d="m136.66 239.65a2.66 2.66 0 0 1 .51-1.66 1.54 1.54 0 0 1 1.4-.71h26a1.54 1.54 0 0 1 1.4.71 2.83 2.83 0 0 1 .51 1.66 2.91 2.91 0 0 1 -.51 1.74 1.55 1.55 0 0 1 -1.4.75h-10.2v39.93a1.57 1.57 0 0 1 -.8 1.4 3.69 3.69 0 0 1 -3.77 0 1.57 1.57 0 0 1 -.8-1.4v-39.93h-10.35a1.55 1.55 0 0 1 -1.4-.72 2.9 2.9 0 0 1 -.59-1.77z"/><path d="m184.7 282.07v-42.07a2.34 2.34 0 0 1 1.92-2.68 3 3 0 0 1 .84 0c1.7 0 3.12 1.12 4.29 3.39l10 19.23 10.11-19.23c1.23-2.27 2.65-3.39 4.27-3.39a2.33 2.33 0 0 1 2.66 1.93 1.89 1.89 0 0 1 0 .67v42.08a1.57 1.57 0 0 1 -.79 1.41 3.76 3.76 0 0 1 -3.78 0 1.57 1.57 0 0 1 -.79-1.41v-33.48l-9.65 18.14a2.3 2.3 0 0 1 -2.1 1.56 2.22 2.22 0 0 1 -2-1.56l-9.65-18.45v33.86a1.57 1.57 0 0 1 -.8 1.4 3.25 3.25 0 0 1 -1.81.59 3.37 3.37 0 0 1 -1.88-.51 1.56 1.56 0 0 1 -.84-1.48z"/><path d="m237.16 281.77a1.59 1.59 0 0 1 .13-.52l13.08-42.09c.37-1.23 1.45-1.85 3.25-1.85s2.89.62 3.26 1.85l13.12 42.3a.88.88 0 0 0 0 .23.31.31 0 0 1 0 .19 1.82 1.82 0 0 1 -1 1.56 4.2 4.2 0 0 1 -2.34.62 1.78 1.78 0 0 1 -1.92-1.2l-2.8-9.35h-16.8l-2.8 9.35a1.78 1.78 0 0 1 -2 1.23 4 4 0 0 1 -2.17-.64 1.83 1.83 0 0 1 -1.01-1.68zm9.28-12.8h14.29l-7.15-23.88z"/><path d="m288.53 282.07v-42.94c0-1.23.89-1.85 2.68-1.85a3.44 3.44 0 0 1 2.28.79 8.49 8.49 0 0 1 1.8 2.59l15.92 31.18v-32.74a1.56 1.56 0 0 1 .8-1.37 3.94 3.94 0 0 1 3.77 0 1.55 1.55 0 0 1 .79 1.37v43a1.56 1.56 0 0 1 -.79 1.4 3.38 3.38 0 0 1 -1.89.51 3.84 3.84 0 0 1 -3.38-2.43l-16.62-32.13v32.65a1.56 1.56 0 0 1 -.79 1.4 3.71 3.71 0 0 1 -3.78 0 1.56 1.56 0 0 1 -.79-1.43z"/><path d="m257.48 112.74a100 100 0 1 0 -111.91 86.45 100 100 0 0 0 111.91-86.45z"/></g><path d="m194.36 64.27-42.16 42.16-11.95-11.94c41.51-41.49 45.63-37.84 54.11-30.22z" fill="#fff"/><path d="m152.2 107.44a1 1 0 0 1 -.71-.3l-12-12a1 1 0 0 1 0-1.41c42.2-42.2 46.64-38.21 55.49-30.26a1 1 0 0 1 .33.72 1 1 0 0 1 -.29.74l-42.12 42.21a1 1 0 0 1 -.7.3zm-10.53-13 10.53 10.56 40.71-40.71c-7.39-6.53-12.41-8.56-51.24 30.2z" fill="#ff6c37"/><path d="m164.28 118.52-11.52-11.52 42.17-42.17c11.35 11.36-5.48 29.88-30.65 53.69z" fill="#fff"/><path d="m164.28 119.52h-.05a1.07 1.07 0 0 1 -.67-.31l-11.51-11.5a1.05 1.05 0 0 1 -.29-.71 1 1 0 0 1 .29-.71l42.17-42.16a1 1 0 0 1 1.41 0 12.57 12.57 0 0 1 3.91 9.33c-.16 11.09-12.79 25.18-34.57 45.78a1 1 0 0 1 -.69.28zm-10.1-12.52c6.45 6.46 9.06 9.06 10.12 10.12 16.84-16 33.08-32.39 33.24-43.68a10.34 10.34 0 0 0 -2.64-7.17z" fill="#ff6c37"/><path d="m140.54 94.78 8.51 8.5a.41.41 0 0 1 -.21.69l-17.55 3.78a1.65 1.65 0 0 1 -1.52-2.78l10.23-10.19a.41.41 0 0 1 .54 0z" fill="#fff"/><path d="m130.93 108.79a2.65 2.65 0 0 1 -1.86-4.53l10.18-10.19a1.42 1.42 0 0 1 2 0l8.5 8.51a1.4 1.4 0 0 1 -.7 2.37l-17.55 3.78a2.76 2.76 0 0 1 -.57.06zm9.32-12.89-9.77 9.77a.63.63 0 0 0 -.11.78.61.61 0 0 0 .71.32l16.49-3.55z" fill="#ff6c37"/><path d="m216.72 40.86a16.18 16.18 0 1 0 -2.85 25.52l-11.34-11.33z" fill="#fff"/><path d="m205.5 69.72a17.19 17.19 0 1 1 11.91-29.58 1 1 0 0 1 .31.71 1 1 0 0 1 -.29.72l-13.43 13.48 10.63 10.62a1 1 0 0 1 .28.83 1 1 0 0 1 -.48.74 17.21 17.21 0 0 1 -8.93 2.48zm0-32.34a15.16 15.16 0 1 0 6.71 28.76l-10.38-10.39a1 1 0 0 1 -.3-.7 1 1 0 0 1 .3-.71l13.44-13.44a15.19 15.19 0 0 0 -9.76-3.52z" fill="#ff6c37"/><path d="m217 41.08-.25-.22-14.22 14.19 11.34 11.33a16 16 0 0 0 3.13-2.38 16.2 16.2 0 0 0 0-22.92z" fill="#fff"/><path d="m213.87 67.38a1 1 0 0 1 -.71-.29l-11.33-11.34a1 1 0 0 1 -.3-.7 1 1 0 0 1 .3-.71l14.17-14.19a1 1 0 0 1 1.4 0l.26.23a17.15 17.15 0 0 1 -3.29 26.87 1 1 0 0 1 -.5.13zm-9.87-12.33 10 10.06a15.79 15.79 0 0 0 2.25-1.84 15.19 15.19 0 0 0 .46-21z" fill="#ff6c37"/><path d="m196.1 66a6.17 6.17 0 0 0 -8.71 0l-37.71 37.72 6.32 6.28 39.86-35a6.16 6.16 0 0 0 .24-9z" fill="#fff"/><path d="m156 111a1 1 0 0 1 -.71-.29l-6.29-6.28a1 1 0 0 1 0-1.42l37.68-37.71a7.18 7.18 0 0 1 10.13 0 7.15 7.15 0 0 1 -.34 10.43l-39.86 35a1 1 0 0 1 -.61.27zm-4.86-7.27 4.9 4.9 39.16-34.39a5.16 5.16 0 1 0 -7.05-7.52z" fill="#ff6c37"/><path d="m120.76 146.58a.91.91 0 0 0 -.47 1l1.69 7.22a2 2 0 0 1 -3.44 1.91l-10.93-10.93 35.89-35.88 12.35.19 8.43 8.42c-2.09 1.75-14.18 13.36-43.52 28.07z" fill="#fff"/><path d="m120 158.33a3 3 0 0 1 -2.14-.9l-10.96-10.94a1 1 0 0 1 -.29-.7 1 1 0 0 1 .29-.71l35.89-35.89a1 1 0 0 1 .72-.29l12.36.19a1 1 0 0 1 .69.29l8.42 8.43a1 1 0 0 1 .3.75 1 1 0 0 1 -.36.72l-.71.62c-10.58 9.29-25 18.55-42.93 27.53l1.68 7.15a3 3 0 0 1 -1.49 3.36 3.07 3.07 0 0 1 -1.47.39zm-11-12.54 10.25 10.21a1 1 0 0 0 1.76-1l-1.69-7.22a1.9 1.9 0 0 1 1-2.13c17.74-8.9 32-18.06 42.5-27.23l-7.38-7.38-11.53-.18z" fill="#ff6c37"/><path d="m99 154.38 8.59-8.59 12.77 12.77-20.4-1.4a1.63 1.63 0 0 1 -.96-2.78z" fill="#fff"/><path d="m120.38 159.56h-.06l-20.41-1.4a2.64 2.64 0 0 1 -1.6-4.49l8.59-8.59a1 1 0 0 1 1.42 0l12.77 12.77a1 1 0 0 1 .21 1.13 1 1 0 0 1 -.92.58zm-12.77-12.36-7.88 7.88a.62.62 0 0 0 -.16.66.63.63 0 0 0 .53.43l17.69 1.21z" fill="#ff6c37"/><path d="m139.86 114.53a1 1 0 0 1 -.71-1.7l9.72-9.72a1 1 0 0 1 1.42 0l6.26 6.27a1 1 0 0 1 .26 1 1 1 0 0 1 -.75.69l-16 3.45a.75.75 0 0 1 -.2.01zm9.72-9.3-6.58 6.61 10.87-2.35z" fill="#ff6c37"/><path d="m155.85 110.09-11 2.36a1.51 1.51 0 0 1 -1.39-2.55l6.08-6.08z" fill="#fff"/><g fill="#ff6c37"><path d="m144.56 113.48a2.51 2.51 0 0 1 -1.77-4.29l6.08-6.08a1 1 0 0 1 1.42 0l6.26 6.27a1 1 0 0 1 .26 1 1 1 0 0 1 -.75.69l-11 2.37a2.47 2.47 0 0 1 -.5.04zm5-8.25-5.38 5.37a.49.49 0 0 0 -.08.61.46.46 0 0 0 .56.26l9.16-2z"/><path d="m217.07 50.69a1.16 1.16 0 1 0 -2.07 1 3.49 3.49 0 0 1 -.43 3.76 1.16 1.16 0 0 0 .15 1.63 1.17 1.17 0 0 0 1.63-.16 5.79 5.79 0 0 0 .72-6.23z"/></g></svg>