<?xml version="1.0" encoding="UTF-8"?>
<svg id="b" xmlns="http://www.w3.org/2000/svg" width="73.28" height="73.28" viewBox="0 0 73.28 73.28">
<g id="c">
<path id="e" d="M36.64,14.2c-12.37,0-22.44,10.08-22.44,22.44s10.08,22.44,22.44,22.44,22.44-10.08,22.44-22.44c0-5.95-2.38-11.63-6.5-15.94-4.31-4.12-9.98-6.5-15.94-6.5Zm-6.23,17.59c-1.92,0-3.66-1.19-4.4-2.93-.73-1.74-.27-3.76,1.1-5.13s3.39-1.74,5.13-1.1c1.83,.82,2.93,2.47,2.93,4.4,0,2.66-2.11,4.76-4.76,4.76Z" fill="black"/>
<path id="f" d="M42.69,8.79c.64,1.1,.09,2.02-1.19,2.02h-9.71c-1.28,0-1.83-.92-1.19-2.02L35.45,.82c.64-1.1,1.74-1.1,2.38,0l4.86,7.97Z" fill="black"/>
<path id="g" d="M30.6,64.49c-.64-1.1-.09-2.02,1.19-2.02h9.71c1.28,0,1.83,.92,1.19,2.02l-4.86,7.97c-.64,1.1-1.74,1.1-2.38,0l-4.86-7.97Z" fill="black"/>
<path id="h" d="M64.49,42.69c-1.1,.64-2.02,.09-2.02-1.19v-9.71c0-1.28,.92-1.83,2.02-1.19l7.97,4.86c1.1,.64,1.1,1.74,0,2.38l-7.97,4.86Z" fill="black"/>
<path id="i" d="M8.79,30.6c1.1-.64,2.02-.09,2.02,1.19v9.71c0,1.28-.92,1.83-2.02,1.19L.82,37.83c-1.1-.64-1.1-1.74,0-2.38l7.97-4.86Z" fill="black"/>
</g>
</svg>