<?xml version="1.0" encoding="utf-8"?>
<!-- Generator: Adobe Illustrator 27.8.1, SVG Export Plug-In . SVG Version: 6.00 Build 0)  -->
<svg version="1.1" id="Layer_1" xmlns="http://www.w3.org/2000/svg" xmlns:xlink="http://www.w3.org/1999/xlink" x="0px" y="0px"
	 viewBox="0 0 150.9 150.9" style="enable-background:new 0 0 150.9 150.9;" xml:space="preserve">
<style type="text/css">
	.st0{fill-rule:evenodd;clip-rule:evenodd;fill:#1EBFBF;}
	.st1{fill-rule:evenodd;clip-rule:evenodd;fill:#FFFFFF;}
</style>
<g>
	<path class="st0" d="M95.7,27.9c-0.1,0-0.2,0-0.3,0h-22C58.9,28.7,52.9,37,51.2,41.5C44.8,60.8,38.8,98.3,38,103.6
		c-0.8,5.2-0.9,8.4-0.9,8.4c0,1.3,0.1,2.8,0.4,4.2c1.8,5.1,7.1,9.4,18.9,5.1c11.1-4.8,24.2-10.8,37.8-17.6
		c5.5-3.2,12.8-9.2,16.8-17.1c1.6-3.2,2.7-6.8,2.9-10.5c0-0.6,0-1.2,0-1.8c-0.1-9.1-0.2-18.6-0.8-27.8c0,0-0.5-5.9-0.8-8
		c-0.3-2.1-0.7-2.9-0.7-2.9c-1.9-4.1-5.6-6.2-9.5-7.2C100.2,28,98.1,28,95.7,27.9L95.7,27.9z M94.9,47.3c0-1-0.8-1.8-1.9-1.8H92
		c-12,0-21.8,9.5-21.8,21.3v9.9c0,6.1-5.1,11.1-11.4,11.1h-1c-1,0-1.9,0.8-1.9,1.8v6.5c0,1,0.8,1.8,1.9,1.8h1
		c12,0,21.8-9.5,21.8-21.3v-9.9c0-6.1,5.1-11.1,11.4-11.1H93c1.1,0,1.9-0.8,1.9-1.8C94.9,53.8,94.9,47.3,94.9,47.3z"/>
	<path class="st1" d="M94.9,47.3c0-1-0.8-1.8-1.9-1.8H92c-12,0-21.8,9.5-21.8,21.3v9.9c0,6.1-5.1,11.1-11.4,11.1h-1
		c-1,0-1.9,0.8-1.9,1.8v6.5c0,1,0.8,1.8,1.9,1.8h1c12,0,21.8-9.5,21.8-21.3v-9.9c0-6.1,5.1-11.1,11.4-11.1H93c1.1,0,1.9-0.8,1.9-1.8
		C94.9,53.8,94.9,47.3,94.9,47.3z"/>
</g>
</svg>
