<?xml version="1.0" encoding="UTF-8" standalone="no"?>
<!-- Created with Inkscape (http://www.inkscape.org/) -->

<svg
   version="1.1"
   id="svg2"
   width="158.90668"
   height="240.28"
   viewBox="0 0 158.90668 240.28"
   sodipodi:docname="logo.eps"
   xmlns:inkscape="http://www.inkscape.org/namespaces/inkscape"
   xmlns:sodipodi="http://sodipodi.sourceforge.net/DTD/sodipodi-0.dtd"
   xmlns="http://www.w3.org/2000/svg"
   xmlns:svg="http://www.w3.org/2000/svg">
  <defs
     id="defs6" />
  <sodipodi:namedview
     id="namedview4"
     pagecolor="#ffffff"
     bordercolor="#000000"
     borderopacity="0.25"
     inkscape:showpageshadow="2"
     inkscape:pageopacity="0.0"
     inkscape:pagecheckerboard="0"
     inkscape:deskcolor="#d1d1d1" />
  <g
     id="g8"
     inkscape:groupmode="layer"
     inkscape:label="ink_ext_XXXXXX"
     transform="matrix(1.3333333,0,0,-1.3333333,0,240.28)">
    <g
       id="g10"
       transform="scale(0.1)">
      <path
         d="M 431.82,37.4258 1168.8,14.3945 1122.73,924.098 1191.83,1756.07 852.129,1738.8 693.793,1802.13 0,1764.71 34.5469,944.25 0,0 431.82,37.4258"
         style="fill:#f14729;fill-opacity:1;fill-rule:nonzero;stroke:none"
         id="path12" />
      <path
         d="m 667.98,694.012 -62.703,-17.102 34.2,82.653 34.203,230.855 -42.75,8.547 51.3,71.245 63.911,240.19 -112.364,-23.58 c 0,0 59.25,108.48 122.121,179.12 l -82.218,63.13 c 0,0 -264.883,-116.68 -193.633,-495.73 l -54.754,9.59 52.512,-397.371 -44.395,-11.399 c 0,0 45.481,-92.801 109.168,-136.805 5.781,-3.992 -79.801,310.657 11.399,624.165 l 8.55,-19.95 c 0,0 -72.675,-334.172 0,-604.215 0,0 3.348,-6.41 39.684,-2.136 0,0 65.769,123.976 65.769,198.793"
         style="fill:#1e5cb3;fill-opacity:1;fill-rule:nonzero;stroke:none"
         id="path14" />
      <path
         d="m 200.926,409.457 h 12.871 v 26.84 c 5.676,0 11.129,0 16.586,0.871 v -27.711 h 19.199 v -5.016 h -19.199 v -66.769 c 0,-3.93 0,-9.82 8.289,-9.82 5.676,0 8.73,3.925 12.223,8.074 l 3.488,-2.403 c -4.145,-8.289 -14.836,-13.308 -23.567,-13.308 -15.707,0 -17.453,8.508 -17.453,18.984 v 65.242 h -12.437 v 5.016"
         style="fill:#ffffff;fill-opacity:1;fill-rule:nonzero;stroke:none"
         id="path16" />
      <path
         d="m 392.23,350.109 c -5.019,-15.492 -13.746,-29.023 -36.437,-29.894 -33.824,0 -44.078,28.148 -44.078,43.203 0,38.84 31.203,48.223 43.64,48.223 14.184,0 34.258,-6.547 34.258,-23.348 0,-5.891 -3.711,-11.566 -9.82,-11.566 -5.891,0 -10.254,3.929 -10.254,10.257 0,8.508 6.981,9.602 6.981,12 0,5.891 -13.747,8.293 -18.547,8.293 -20.946,0 -26.403,-15.273 -26.403,-43.859 0,-13.094 3.274,-23.129 4.582,-26.184 3.274,-7.203 10.039,-11.785 21.383,-12.437 12.656,-0.656 24.879,9.601 30.113,25.312 h 4.582"
         style="fill:#ffffff;fill-opacity:1;fill-rule:nonzero;stroke:none"
         id="path18" />
      <path
         d="m 452.613,323.051 v 5.019 h 16.805 v 140.301 h -16.805 v 5.02 h 9.383 c 8.074,0 16.582,0.437 24.442,1.964 V 328.07 h 16.8 v -5.019 h -50.625"
         style="fill:#ffffff;fill-opacity:1;fill-rule:nonzero;stroke:none"
         id="path20" />
      <path
         d="m 661.141,409.457 h 12.875 v 26.84 c 5.672,0 11.129,0 16.582,0.871 v -27.711 h 19.203 v -5.016 h -19.203 v -66.769 c 0,-3.93 0,-9.82 8.293,-9.82 5.672,0 8.726,3.925 12.218,8.074 l 3.493,-2.403 c -4.149,-8.289 -14.84,-13.308 -23.567,-13.308 -15.711,0 -17.457,8.508 -17.457,18.984 v 65.242 h -12.437 v 5.016"
         style="fill:#ffffff;fill-opacity:1;fill-rule:nonzero;stroke:none"
         id="path22" />
      <path
         d="m 824.082,404.441 v 5.016 h 35.785 v -5.016 h -13.312 l -30.11,-26.183 41.457,-50.188 h 9.164 v -5.019 h -41.457 v 5.019 h 10.911 l -36.442,44.293 36.875,31.422 v 0.656 z m -52.586,-81.39 v 5.019 h 11.344 v 140.301 h -11.344 v 5.02 h 3.926 c 8.074,0 16.586,0.437 24.437,1.964 V 328.07 h 13.094 v -5.019 h -41.457"
         style="fill:#ffffff;fill-opacity:1;fill-rule:nonzero;stroke:none"
         id="path24" />
      <path
         d="m 581.953,1149.75 c 0,0 -38.461,-171.492 -27.39,-449.527 3.316,-83.399 12.437,-160.059 23.578,-226.539 l 0.058,-0.004 c 7.246,-58.371 12.094,-79.504 30.985,-149.84 l -1.102,-45.363 c 0,0 -151.25,482.921 -26.129,871.273"
         style="fill:#ffffff;fill-opacity:1;fill-rule:nonzero;stroke:none"
         id="path26" />
      <path
         d="m 674.801,1298.44 c 0,0 34.015,16.94 82.777,23.11 0,0 53.305,-97.7 -77.879,-264.51 0,0 78.262,174.69 59.805,229.42 0,0 -20.641,12.83 -64.703,11.98"
         style="fill:#ffffff;fill-opacity:1;fill-rule:nonzero;stroke:none"
         id="path28" />
      <path
         d="m 658.68,1005.18 c 0,0 30.547,-7.075 45.215,4.8 0,0 -28.899,-112.757 -21.325,-174.785 7.578,-62.023 -47.074,-101.73 -47.074,-101.73 0,0 46.555,58.902 31.922,106.879 -10.148,33.254 1.203,118.367 14.004,145.39 0,0 -11.953,1.676 -22.742,19.446"
         style="fill:#ffffff;fill-opacity:1;fill-rule:nonzero;stroke:none"
         id="path30" />
      <path
         d="m 628.477,708.086 c 0,0 50.48,6.043 55.785,31.543 0,0 6.176,-152.52 -63.957,-215.371 0,0 53.511,83.472 45.117,169.824 l -36.945,14.004"
         style="fill:#ffffff;fill-opacity:1;fill-rule:nonzero;stroke:none"
         id="path32" />
      <path
         d="m 486.477,644.602 c 0,0 -16.278,-18.231 -65.125,21.984 0,0 15.562,-102.508 112.242,-149.434 0,0 -66.535,50.129 -84.461,104.278 0,0 23.512,6.922 37.344,23.172"
         style="fill:#ffffff;fill-opacity:1;fill-rule:nonzero;stroke:none"
         id="path34" />
      <path
         d="m 470.895,683.48 c 0,0 -66.051,167.653 -51.899,394.19 0,0 15.426,-41.03 65,-55.41 0,0 -23.355,-4.78 -37.012,-2.71 0,0 -34.554,-95.632 23.911,-336.07"
         style="fill:#ffffff;fill-opacity:1;fill-rule:nonzero;stroke:none"
         id="path36" />
      <path
         d="m 748.352,1462.5 c 0,0 -24.754,181.91 -179.618,-2.05 -123.308,-146.49 -108.613,-270.85 -101.046,-340.24 1.933,-17.75 -22.942,185.31 112.156,318.94 135.097,133.63 165.617,31.11 168.508,23.35"
         style="fill:#ffffff;fill-opacity:1;fill-rule:nonzero;stroke:none"
         id="path38" />
      <path
         d="m 520.238,1617.66 c 0,0 -121.515,34.7 -160.187,-368.05 0,0 -29.836,124.31 47.34,300.13 77.179,175.81 112.847,67.92 112.847,67.92"
         style="fill:#fff200;fill-opacity:1;fill-rule:nonzero;stroke:none"
         id="path40" />
      <path
         d="m 369.488,1647.1 c 0,0 -61.976,-93.21 -47.918,-192.5 0,0 -47.004,186.9 47.918,192.5"
         style="fill:#fff200;fill-opacity:1;fill-rule:nonzero;stroke:none"
         id="path42" />
      <path
         d="m 825.602,1385.71 c 0,0 73.289,27.04 -31.653,-245.76 0,0 54.321,79.73 88.508,204.96 21.945,80.38 -56.855,40.8 -56.855,40.8"
         style="fill:#fff200;fill-opacity:1;fill-rule:nonzero;stroke:none"
         id="path44" />
      <path
         d="m 944.133,1406.97 c 0,0 51.816,-46.9 15.097,-108.95 0,0 92.16,96.84 -15.097,108.95"
         style="fill:#fff200;fill-opacity:1;fill-rule:nonzero;stroke:none"
         id="path46" />
      <path
         d="m 218.379,227.703 c 0,-5.812 -0.461,-10.41 -6.606,-10.41 -6.312,0 -6.605,4.766 -6.605,10.41 v 21.531 h 2.926 v -21.363 c 0,-5.226 0.293,-7.734 3.679,-7.734 3.344,0 3.68,2.508 3.68,7.734 v 21.363 h 2.926 v -21.531"
         style="fill:#fff200;fill-opacity:1;fill-rule:nonzero;stroke:none"
         id="path48" />
      <path
         d="m 258.227,249.234 h -2.551 v -20.988 c 0,-1.379 0.211,-2.801 0.293,-4.18 h -0.125 c -0.293,1.086 -0.586,2.172 -0.961,3.258 l -7.235,21.91 h -2.55 v -31.523 h 2.55 v 19.148 c 0,2.047 -0.207,4.055 -0.335,6.106 h 0.167 c 0.379,-1.34 0.629,-2.762 1.086,-4.059 l 7.11,-21.195 h 2.551 v 31.523"
         style="fill:#fff200;fill-opacity:1;fill-rule:nonzero;stroke:none"
         id="path50" />
      <path
         d="m 288.035,217.711 h -2.926 v 31.523 h 2.926 v -31.523"
         style="fill:#fff200;fill-opacity:1;fill-rule:nonzero;stroke:none"
         id="path52" />
      <path
         d="m 321.754,217.711 h -2.59 l -6.355,31.523 h 3.011 l 4.137,-22.953 c 0.168,-0.797 0.336,-2.843 0.504,-4.265 h 0.168 c 0.125,1.422 0.289,3.511 0.418,4.265 l 4.094,22.953 h 2.968 l -6.355,-31.523"
         style="fill:#fff200;fill-opacity:1;fill-rule:nonzero;stroke:none"
         id="path54" />
      <path
         d="m 362.852,246.559 h -6.981 v -11.121 h 6.774 v -2.676 h -6.774 v -12.375 h 6.981 v -2.676 h -9.911 v 31.523 h 9.911 v -2.675"
         style="fill:#fff200;fill-opacity:1;fill-rule:nonzero;stroke:none"
         id="path56" />
      <path
         d="m 388.891,217.711 v 31.523 h 3.136 c 4.391,0 8.614,-0.336 8.614,-8.027 0,-4.016 -0.879,-7.945 -5.938,-8.109 l 6.985,-15.387 h -3.094 l -6.692,15.426 h -0.082 v -15.426 z m 2.929,17.809 h 1.043 c 4.098,0 4.766,1.421 4.766,5.562 0,4.973 -1.504,5.477 -5.227,5.477 H 391.82 V 235.52"
         style="fill:#fff200;fill-opacity:1;fill-rule:nonzero;stroke:none"
         id="path58" />
      <path
         d="m 437.594,244.258 c -1.254,1.422 -2.633,2.551 -4.641,2.551 -2.926,0 -4.555,-2.426 -4.555,-5.102 0,-3.68 2.676,-5.391 5.391,-7.23 2.676,-1.883 5.352,-3.891 5.352,-8.239 0,-4.597 -2.969,-8.945 -7.903,-8.945 -1.754,0 -3.55,0.5 -4.972,1.59 v 3.801 c 1.336,-1.418 3.093,-2.547 5.097,-2.547 3.094,0 4.809,2.715 4.77,5.558 0.039,3.68 -2.676,5.309 -5.352,7.192 -2.676,1.84 -5.394,3.886 -5.394,8.402 0,4.223 2.593,8.363 7.234,8.363 1.879,0 3.469,-0.629 4.973,-1.672 v -3.722"
         style="fill:#fff200;fill-opacity:1;fill-rule:nonzero;stroke:none"
         id="path60" />
      <path
         d="m 477.48,217.711 h -3.136 l -1.172,6.48 h -6.688 l -1.129,-6.48 h -3.136 l 6.187,31.523 h 2.762 z m -4.765,9.031 -2.09,12.082 c -0.379,2.133 -0.547,4.305 -0.797,6.438 h -0.168 c -0.293,-2.133 -0.5,-4.305 -0.836,-6.438 l -1.84,-12.082 h 5.731"
         style="fill:#fff200;fill-opacity:1;fill-rule:nonzero;stroke:none"
         id="path62" />
      <path
         d="m 504.738,220.387 h 6.856 v -2.676 h -9.781 v 31.523 h 2.925 v -28.847"
         style="fill:#fff200;fill-opacity:1;fill-rule:nonzero;stroke:none"
         id="path64" />
      <path
         d="m 577.367,244.258 c -1.254,1.422 -2.633,2.551 -4.64,2.551 -2.926,0 -4.555,-2.426 -4.555,-5.102 0,-3.68 2.676,-5.391 5.391,-7.23 2.675,-1.883 5.351,-3.891 5.351,-8.239 0,-4.597 -2.969,-8.945 -7.902,-8.945 -1.754,0 -3.551,0.5 -4.973,1.59 v 3.801 c 1.336,-1.418 3.094,-2.547 5.102,-2.547 3.093,0 4.804,2.715 4.765,5.558 0.039,3.68 -2.676,5.309 -5.351,7.192 -2.676,1.84 -5.395,3.886 -5.395,8.402 0,4.223 2.594,8.363 7.235,8.363 1.878,0 3.468,-0.629 4.972,-1.672 v -3.722"
         style="fill:#fff200;fill-opacity:1;fill-rule:nonzero;stroke:none"
         id="path66" />
      <path
         d="m 616.082,221.555 c -1.129,-0.793 -2.469,-1.418 -3.887,-1.418 -5.605,0 -5.605,9.738 -5.605,13.418 0,5.855 0.711,13.254 5.812,13.254 1.465,0 2.508,-0.586 3.68,-1.379 v 3.218 c -0.961,0.711 -2.551,1.004 -3.723,1.004 -8.609,0 -8.777,-12.207 -8.777,-17.308 0,-5.395 1.086,-15.051 8.484,-15.051 1.383,0 2.93,0.543 4.016,1.297 v 2.965"
         style="fill:#fff200;fill-opacity:1;fill-rule:nonzero;stroke:none"
         id="path68" />
      <path
         d="m 641.668,217.711 v 31.523 h 3.133 c 4.39,0 8.613,-0.336 8.613,-8.027 0,-4.016 -0.879,-7.945 -5.937,-8.109 l 6.984,-15.387 h -3.094 l -6.691,15.426 h -0.082 v -15.426 z m 2.926,17.809 h 1.047 c 4.093,0 4.765,1.421 4.765,5.562 0,4.973 -1.508,5.477 -5.226,5.477 h -0.586 V 235.52"
         style="fill:#fff200;fill-opacity:1;fill-rule:nonzero;stroke:none"
         id="path70" />
      <path
         d="m 682.344,217.711 h -2.926 v 31.523 h 2.926 v -31.523"
         style="fill:#fff200;fill-opacity:1;fill-rule:nonzero;stroke:none"
         id="path72" />
      <path
         d="m 709.164,217.711 v 31.523 h 3.262 c 4.515,0 8.531,-0.418 8.531,-8.195 0,-6.105 -2.133,-8.234 -8.113,-8.234 h -0.754 v -15.094 z m 2.926,17.769 h 1.129 c 4.097,0 4.601,1.504 4.726,5.559 0,4.348 -1.172,5.52 -5.269,5.52 H 712.09 V 235.48"
         style="fill:#fff200;fill-opacity:1;fill-rule:nonzero;stroke:none"
         id="path74" />
      <path
         d="m 756.152,249.234 h -12.375 v -2.675 h 4.727 v -28.848 h 2.926 v 28.848 h 4.722 v 2.675"
         style="fill:#fff200;fill-opacity:1;fill-rule:nonzero;stroke:none"
         id="path76" />
      <path
         d="m 783.691,217.711 h -2.925 v 31.523 h 2.925 v -31.523"
         style="fill:#fff200;fill-opacity:1;fill-rule:nonzero;stroke:none"
         id="path78" />
      <path
         d="m 823.641,217.711 h -2.551 l -7.106,21.195 c -0.461,1.297 -0.711,2.719 -1.086,4.059 h -0.168 c 0.125,-2.051 0.333,-4.059 0.333,-6.106 v -19.148 h -2.547 v 31.523 h 2.547 l 7.234,-21.91 c 0.375,-1.086 0.668,-2.172 0.961,-3.258 h 0.125 c -0.082,1.379 -0.293,2.801 -0.293,4.18 v 20.988 h 2.551 v -31.523"
         style="fill:#fff200;fill-opacity:1;fill-rule:nonzero;stroke:none"
         id="path80" />
      <path
         d="m 856.461,234.352 h 7.191 v -5.813 c 0,-4.976 -0.25,-11.246 -6.773,-11.246 -6.649,0 -7.274,6.98 -7.274,16.934 0,7.441 0.875,15.425 7.567,15.425 3.762,0 5.644,-2.507 6.437,-5.937 l -2.882,-1.129 c -0.336,1.883 -1.129,4.223 -3.43,4.223 -4.348,-0.043 -4.684,-6.774 -4.684,-12.332 0,-11.664 1.465,-14.34 4.516,-14.34 3.305,0 3.598,2.422 3.598,9.152 v 2.387 h -4.266 v 2.676"
         style="fill:#fff200;fill-opacity:1;fill-rule:nonzero;stroke:none"
         id="path82" />
    </g>
  </g>
</svg>
