<svg width="21" height="37" viewBox="0 0 21 37" fill="none" xmlns="http://www.w3.org/2000/svg">
<path fill-rule="evenodd" clip-rule="evenodd" d="M20.647 24.3558V24.366L20.6185 24.5727L19.863 29.9446C19.5662 31.8436 18.6054 33.5757 17.1516 34.8329C15.9588 35.8641 14.4863 36.5173 12.9213 36.7095C11.3563 36.9016 9.7695 36.6241 8.36264 35.9121C7.20051 35.3303 6.19966 34.4711 5.4486 33.4105C5.20735 33.077 4.99286 32.725 4.80715 32.3577L3.32467 29.4253L1.61718 26.2201C1.39073 25.7964 1.3406 25.3005 1.47767 24.8401C1.61475 24.3797 1.92796 23.992 2.34926 23.7612C2.5573 23.6487 2.78558 23.5785 3.0209 23.5548C3.25623 23.5311 3.49391 23.5543 3.72022 23.623C3.94652 23.6918 4.15695 23.8047 4.33932 23.9553C4.5217 24.1059 4.6724 24.2912 4.78271 24.5004L6.5462 27.8095V13.7178C6.5462 12.7139 7.34955 11.9024 8.34431 11.9024C9.33602 11.9024 10.1404 12.7139 10.1404 13.7188V20.3991C10.2543 20.0338 10.4816 19.7142 10.7893 19.4866C11.0971 19.2591 11.4692 19.1354 11.8519 19.1335C12.8467 19.1335 13.6501 19.9501 13.6501 20.95V21.9427C13.7113 21.5155 13.9243 21.1246 14.2503 20.8417C14.5762 20.5587 14.9932 20.4027 15.4247 20.4022C16.4195 20.4022 17.2229 21.2137 17.2229 22.2186V23.4476C17.4103 23.0318 17.7491 22.7031 18.1704 22.5285C18.5917 22.3539 19.0638 22.3465 19.4904 22.5078C19.8545 22.6471 20.1639 22.9005 20.3724 23.23C20.5808 23.5596 20.6771 23.9477 20.647 24.3364H20.6501L20.647 24.3558Z" fill="#454545"/>
<path d="M7.09696 10.0381C7.05471 10.0805 7.00452 10.1141 6.94927 10.1371C6.89401 10.1601 6.83477 10.172 6.77492 10.1721C6.71507 10.1722 6.65579 10.1605 6.60046 10.1377C6.54513 10.1148 6.49484 10.0814 6.45245 10.0391C6.41007 9.99685 6.37642 9.94666 6.35343 9.8914C6.33044 9.83615 6.31856 9.7769 6.31846 9.71706C6.31837 9.65721 6.33006 9.59793 6.35288 9.5426C6.37569 9.48727 6.40918 9.43698 6.45144 9.39459C6.67157 9.17217 6.93361 8.9956 7.22242 8.8751C7.51122 8.7546 7.82105 8.69256 8.13398 8.69256C8.44691 8.69256 8.75674 8.7546 9.04555 8.8751C9.33435 8.9956 9.5964 9.17217 9.81653 9.39459C9.89245 9.48208 9.93234 9.59514 9.92811 9.71091C9.92388 9.82668 9.87585 9.93653 9.79374 10.0183C9.71163 10.1 9.60156 10.1475 9.48577 10.1512C9.36998 10.1548 9.25711 10.1144 9.16998 10.0381C9.03446 9.9009 8.87306 9.79199 8.69514 9.71766C8.51721 9.64333 8.3263 9.60505 8.13347 9.60505C7.94064 9.60505 7.74973 9.64333 7.57181 9.71766C7.39388 9.79199 7.23248 9.9009 7.09696 10.0381ZM5.11151 8.0567C5.02617 8.1423 4.91033 8.1905 4.78946 8.19069C4.6686 8.19088 4.5526 8.14305 4.467 8.05772C4.3814 7.97238 4.3332 7.85654 4.33301 7.73567C4.33282 7.6148 4.38065 7.49881 4.46598 7.41321C4.9462 6.92798 5.51786 6.54278 6.1479 6.2799C6.77794 6.01701 7.45384 5.88165 8.13653 5.88165C8.81921 5.88165 9.49512 6.01701 10.1252 6.2799C10.7552 6.54278 11.3269 6.92798 11.8071 7.41321C11.8802 7.50099 11.9178 7.61298 11.9125 7.72712C11.9072 7.84125 11.8593 7.94926 11.7783 8.02986C11.6973 8.11046 11.5891 8.15782 11.475 8.1626C11.3608 8.16738 11.249 8.12923 11.1615 8.05568C10.7659 7.65554 10.2948 7.33787 9.77559 7.12106C9.25633 6.90425 8.69922 6.79261 8.13653 6.79261C7.57383 6.79261 7.01672 6.90425 6.49747 7.12106C5.97821 7.33787 5.50713 7.65554 5.11151 8.05568V8.0567Z" fill="#FF533F"/>
<path d="M3.12616 6.0743C3.04083 6.1599 2.92498 6.2081 2.80411 6.20829C2.68325 6.20848 2.56725 6.16065 2.48165 6.07532C2.39605 5.98998 2.34785 5.87414 2.34766 5.75327C2.34747 5.6324 2.3953 5.51641 2.48063 5.43081C3.22089 4.68249 4.1022 4.08843 5.07358 3.68299C6.04495 3.27755 7.08709 3.06879 8.13969 3.06879C9.19228 3.06879 10.2344 3.27755 11.2058 3.68299C12.1772 4.08843 13.0585 4.68249 13.7987 5.43081C13.8747 5.5183 13.9146 5.63136 13.9103 5.74713C13.9061 5.8629 13.8581 5.97275 13.776 6.05447C13.6939 6.13619 13.5838 6.18369 13.468 6.18737C13.3522 6.19105 13.2393 6.15064 13.1522 6.0743C12.4966 5.41123 11.7159 4.88482 10.8554 4.52554C9.99489 4.16627 9.07166 3.98128 8.13918 3.98128C7.20669 3.98128 6.28347 4.16627 5.42297 4.52554C4.56247 4.88482 3.7818 5.41123 3.12616 6.0743Z" fill="#FF533F"/>
<path d="M1.14081 4.03389C1.09855 4.07627 1.04837 4.10992 0.99311 4.13291C0.937853 4.1559 0.878609 4.16778 0.818761 4.16788C0.758913 4.16797 0.699633 4.15628 0.644304 4.13346C0.588975 4.11065 0.538682 4.07716 0.496296 4.0349C0.45391 3.99265 0.420262 3.94246 0.397271 3.88721C0.374281 3.83195 0.3624 3.77271 0.362305 3.71286C0.362211 3.65301 0.373905 3.59373 0.396721 3.5384C0.419536 3.48307 0.453026 3.43278 0.495278 3.39039C1.49555 2.37915 2.68646 1.57634 3.99908 1.02844C5.3117 0.480541 6.71995 0.198425 8.14233 0.198425C9.56471 0.198425 10.973 0.480541 12.2856 1.02844C13.5982 1.57634 14.7891 2.37915 15.7894 3.39039C15.8639 3.478 15.9026 3.59046 15.8979 3.70536C15.8932 3.82027 15.8453 3.92917 15.7639 4.01036C15.6824 4.09155 15.5734 4.13906 15.4585 4.14342C15.3436 4.14778 15.2312 4.10867 15.1439 4.03389C14.2282 3.10773 13.1378 2.37245 11.936 1.87062C10.7342 1.3688 9.44472 1.1104 8.14233 1.1104C6.83993 1.1104 5.55048 1.3688 4.34865 1.87062C3.14681 2.37245 2.05649 3.10773 1.14081 4.03389Z" fill="#FF533F"/>
</svg>
