<svg xmlns="http://www.w3.org/2000/svg" xmlns:xlink="http://www.w3.org/1999/xlink" fill="none" version="1.1" width="32" height="32" viewBox="0 0 32 32"><defs><mask id="master_svg0_1_9937" style="mask-type:alpha" maskUnits="userSpaceOnUse"><g><path d="M23.307453100967408,11.40764856338501L9.787050100967408,24.30834856338501C9.602605100967407,24.484348563385012,9.778858100967406,24.789448563385008,10.023455100967407,24.71754856338501L17.849533100967406,22.41804856338501C18.271603100967408,22.29404856338501,18.61774310096741,21.990648563385008,18.79597310096741,21.588448563385008L23.307453100967408,11.40764856338501Z" fill-rule="evenodd" fill="#FFFFFF" fill-opacity="1"/></g></mask><linearGradient x1="0" y1="0.5" x2="0.7922172546386719" y2="0.4310277998447418" id="master_svg1_1_31"><stop offset="0%" stop-color="#FFD262" stop-opacity="1"/><stop offset="100%" stop-color="#E3AF2D" stop-opacity="1"/></linearGradient></defs><g><g><rect x="0" y="0" width="32" height="32" rx="8" fill="#FFFFFF" fill-opacity="1"/><rect x="0.5" y="0.5" width="31" height="31" rx="7.5" fill-opacity="0" stroke-opacity="0.05000000074505806" stroke="#000000" fill="none" stroke-width="1"/></g><g><g><g><path d="M23.307453100967408,11.40764856338501L9.787050100967408,24.30834856338501C9.602605100967407,24.484348563385012,9.778858100967406,24.789448563385008,10.023455100967407,24.71754856338501L17.849533100967406,22.41804856338501C18.271603100967408,22.29404856338501,18.61774310096741,21.990648563385008,18.79597310096741,21.588448563385008L23.307453100967408,11.40764856338501Z" fill-rule="evenodd" fill="#FFD262" fill-opacity="1"/></g><g mask="url(#master_svg0_1_9937)"><g style="opacity:0.3456333577632904;"><path d="M14.266630411148071,16.848519802093506L14.87868841114807,25.950159802093506L18.53724041114807,21.870719802093504L14.266630411148071,16.848519802093506Z" fill-rule="evenodd" fill="url(#master_svg1_1_31)" fill-opacity="1"/></g></g></g><g><path d="M7.755919814697266,7.0199373L22.928303814697266,11.04728C23.380403814697267,11.167300000000001,23.651003814697265,11.63643,23.532703814697264,12.0951C23.518203814697266,12.151530000000001,23.498003814697267,12.20631,23.472503814697266,12.25858L18.783503814697266,21.821199999999997C18.687703814697265,22.0165,18.520903814697263,22.1679,18.317203814697265,22.244300000000003L17.861903814697264,22.415Q17.634703814697268,22.482100000000003,17.635403814697266,22.480600000000003C18.212903814697263,22.2741,18.368503814697263,21.8724,17.920303814697263,21.3411L7.136773814697266,7.999889C6.925545814697266,7.73856,6.963148514697266,7.353007,7.220761814697266,7.138732C7.370112814697266,7.0145058,7.569073814697266,6.9703406,7.755919814697266,7.0199373Z" fill-rule="evenodd" fill="#EE394E" fill-opacity="1"/></g><g transform="matrix(1,2.4492937051703357e-16,-2.4492937051703357e-16,1,3.552713678800501e-15,-5.329070518200751e-15)"><path d="M20.62767219543457,9.976754608345033L23.62047219543457,10.735744608345032C23.84776219543457,10.793384608345033,24.08382219543457,10.680624608345031,24.18181219543457,10.467594608345031L24.86931219543457,8.973153608345031C24.92031219543457,8.862286608345032,24.81708219543457,8.742925208345032,24.70002219543457,8.777401708345032L20.62767219543457,9.976754608345033Z" fill-rule="evenodd" fill="#000000" fill-opacity="1"/></g></g></g></svg>