<?xml version="1.0" encoding="UTF-8"?>
<svg xmlns="http://www.w3.org/2000/svg" width="443" height="87" viewBox="0 0 443 87" fill="none">
  <path d="M132.656 61.8448V67.3185H94.8281V62.138L124.784 24.6319H95.558V19.1582H131.709V24.3387L101.753 61.8448H132.656Z" fill="white"></path>
  <path d="M144.317 19.1605H178.061V24.6342H150.148V40.1758H171.866V45.6495H150.148V61.8471H179.156V67.3208H144.317V19.1605Z" fill="white"></path>
  <path d="M221.063 67.3188L207.944 47.3244H196.429V67.3188H190.599V19.1605H208.82C213.726 19.1605 217.662 20.4254 220.626 22.9552C223.588 25.485 225.073 28.9147 225.073 33.2445C225.073 36.6497 224.113 39.4829 222.192 41.7441C220.273 44.0053 217.637 45.5511 214.285 46.3773L227.988 67.3188H221.065H221.063ZM196.427 41.8527H208.744C215.546 41.8527 218.947 38.9826 218.947 33.2424C218.947 27.5022 215.546 24.6321 208.744 24.6321H196.427V41.8527Z" fill="white"></path>
  <path d="M270.114 21.4584C273.467 23.4777 276.055 26.3478 277.875 30.0687C279.698 33.7896 280.608 38.1809 280.608 43.2404C280.608 48.3 279.698 52.6892 277.875 56.4122C276.053 60.1331 273.465 63.0032 270.114 65.0225C266.762 67.0418 262.826 68.0504 258.307 68.0504C253.789 68.0504 249.853 67.0418 246.499 65.0225C243.145 63.0052 240.558 60.1331 238.737 56.4122C236.915 52.6892 236.004 48.3021 236.004 43.2404C236.004 38.1788 236.915 33.7896 238.737 30.0687C240.56 26.3478 243.147 23.4777 246.499 21.4584C249.853 19.4411 253.787 18.4304 258.307 18.4304C262.828 18.4304 266.762 19.4411 270.114 21.4584ZM246.462 29.0457C243.571 32.4755 242.126 37.2071 242.126 43.2384C242.126 49.2697 243.571 54.0013 246.462 57.4311C249.352 60.8588 253.301 62.5747 258.307 62.5747C263.313 62.5747 267.26 60.8608 270.15 57.4311C273.041 54.0013 274.486 49.2718 274.486 43.2384C274.486 37.205 273.039 32.4755 270.15 29.0457C267.258 25.6159 263.309 23.9021 258.307 23.9021C253.305 23.9021 249.352 25.6159 246.462 29.0457Z" fill="white"></path>
  <path d="M327.036 24.6319H310.275V67.3185H304.444V24.6319H287.681V19.1582H327.038V24.6319H327.036Z" fill="white"></path>
  <path d="M342.922 67.3188H337.092V19.1605H342.922V67.3188Z" fill="white"></path>
  <path d="M358.521 19.1605H392.265V24.6342H364.349V40.1758H386.068V45.6495H364.349V61.8471H393.358V67.3208H358.521V19.1605Z" fill="white"></path>
  <path d="M435.265 67.3188L422.147 47.3244H410.632V67.3188H404.801V19.1605H423.022C427.928 19.1605 431.864 20.4254 434.829 22.9552C437.791 25.485 439.275 28.9147 439.275 33.2445C439.275 36.6497 438.316 39.4829 436.395 41.7441C434.476 44.0053 431.84 45.5511 428.488 46.3773L442.19 67.3188H435.267H435.265ZM410.63 41.8527H422.946C429.749 41.8527 433.15 38.9826 433.15 33.2424C433.15 27.5022 429.749 24.6321 422.946 24.6321H410.63V41.8527Z" fill="white"></path>
  <mask id="mask0_22_1265" style="mask-type:luminance" maskUnits="userSpaceOnUse" x="0" y="0" width="87" height="87">
    <path d="M86.3758 0H0V86.4762H86.3758V0Z" fill="white"></path>
  </mask>
  <g mask="url(#mask0_22_1265)">
    <path fill-rule="evenodd" clip-rule="evenodd" d="M0 14.412C0 6.45364 6.44543 0 14.3956 0H71.9802C79.9304 0 86.3758 6.45364 86.3758 14.412V72.0622C86.3758 80.0226 79.9304 86.4742 71.9802 86.4742H14.3956C6.44543 86.4742 0 80.0206 0 72.0622V14.412Z" fill="#FFB441"></path>
  </g>
  <path fill-rule="evenodd" clip-rule="evenodd" d="M74.4002 10.2135H11.9775C10.8458 10.2135 9.92944 11.1299 9.92944 12.2615C9.92944 13.3932 10.8458 14.3095 11.9775 14.3095H41.2607C41.1849 14.5227 41.1418 14.7524 41.1418 14.9922V21.4889C30.0509 22.5221 21.3668 31.8643 21.3668 43.2381C21.3668 54.6119 30.0489 63.9541 41.1418 64.9874V74.2148C41.1418 75.3443 42.0582 76.2628 43.1898 76.2628C44.3215 76.2628 45.2379 75.3464 45.2379 74.2148V64.9874C56.3288 63.9541 65.0129 54.6119 65.0129 43.2381C65.0129 31.8643 56.3308 22.5221 45.2379 21.4889V14.9922C45.2379 14.7524 45.1948 14.5227 45.119 14.3095H74.4022C75.5339 14.3095 76.4503 13.3932 76.4503 12.2615C76.4503 11.1299 75.5339 10.2135 74.4022 10.2135H74.4002ZM25.5777 43.2381C25.5777 34.1953 32.3798 26.7453 41.1418 25.7305V60.7478C32.3798 59.731 25.5777 52.2831 25.5777 43.2402V43.2381ZM60.8 43.2381C60.8 52.281 53.9978 59.731 45.2358 60.7458V25.7285C53.9978 26.7453 60.8 34.1932 60.8 43.2381Z" fill="black"></path>
</svg>
