<?xml version="1.0" standalone="no"?>
<!DOCTYPE svg PUBLIC "-//W3C//DTD SVG 20010904//EN"
 "http://www.w3.org/TR/2001/REC-SVG-20010904/DTD/svg10.dtd">
<svg version="1.0" xmlns="http://www.w3.org/2000/svg"
 width="700.000000pt" height="700.000000pt" viewBox="0 0 700.000000 700.000000"
 preserveAspectRatio="xMidYMid meet">
<metadata>
Created by potrace 1.14, written by Peter Selinger 2001-2017
</metadata>
<g transform="translate(0.000000,700.000000) scale(0.100000,-0.100000)"
fill="#000000" stroke="none">
<path d="M1844 5009 c-448 -43 -846 -291 -1113 -693 -100 -151 -194 -409 -219
-601 -12 -87 -7 -406 7 -480 71 -377 272 -710 566 -939 33 -26 65 -51 71 -56
25 -19 202 -118 225 -125 13 -4 29 -11 34 -15 17 -13 147 -57 215 -73 66 -16
98 -22 180 -33 58 -9 254 -9 305 -1 22 3 74 11 115 18 179 27 384 115 663 282
238 143 360 203 454 222 240 50 396 5 773 -220 278 -165 422 -231 604 -274
190 -45 392 -47 610 -6 107 21 299 97 419 166 141 83 310 225 407 344 155 191
269 433 317 672 18 93 25 423 11 533 -28 218 -131 476 -264 661 -61 84 -218
250 -289 305 -267 205 -564 313 -870 317 -353 5 -559 -68 -1055 -373 -63 -39
-219 -112 -283 -134 -253 -84 -436 -42 -812 188 -139 85 -395 221 -395 209 0
-3 -6 -1 -12 4 -33 26 -239 80 -378 98 -71 10 -208 11 -286 4z m176 -753 c171
-20 309 -84 630 -295 163 -107 154 -101 247 -156 141 -82 312 -153 407 -171
98 -18 139 -21 221 -19 254 8 444 85 800 322 249 165 349 223 470 269 149 56
314 73 436 44 67 -16 184 -71 224 -106 17 -14 39 -33 50 -43 86 -69 197 -260
231 -396 20 -82 27 -254 13 -340 -56 -347 -318 -615 -615 -628 -234 -11 -437
72 -839 343 -55 37 -130 86 -167 109 -230 139 -446 204 -658 196 -249 -9 -409
-79 -890 -389 -162 -105 -302 -179 -425 -225 -16 -6 -63 -17 -103 -25 -332
-63 -650 142 -761 489 -34 105 -43 161 -42 269 2 266 128 522 324 654 77 52
182 89 287 101 55 7 75 6 160 -3z"/>
</g>
</svg>
