<?xml version="1.0" encoding="UTF-8"?>
<svg version="1.1" xmlns="http://www.w3.org/2000/svg" width="380" height="380">
<path d="M0 0 C125.4 0 250.8 0 380 0 C380 125.4 380 250.8 380 380 C254.6 380 129.2 380 0 380 C0 254.6 0 129.2 0 0 Z " fill="#68EECB" transform="translate(0,0)"/>
<path d="M0 0 C125.4 0 250.8 0 380 0 C380 125.4 380 250.8 380 380 C254.6 380 129.2 380 0 380 C0 254.6 0 129.2 0 0 Z M39 44 C39 140.36 39 236.72 39 336 C44.05228851 336 47.99550041 335.99849102 52.80078125 335.1953125 C53.85168945 335.02499512 54.90259766 334.85467773 55.98535156 334.67919922 C57.08331055 334.49631348 58.18126953 334.31342773 59.3125 334.125 C68.20403285 332.6891393 77.05916488 331.43370081 86.03637695 330.68408203 C89.12501755 330.4065387 91.89851593 330.03458376 94.84130859 329.03173828 C98.04768216 327.98442535 101.02711462 327.44580743 104.3671875 327 C105.57600586 326.83604736 106.78482422 326.67209473 108.03027344 326.50317383 C109.2990332 326.33712646 110.56779297 326.1710791 111.875 326 C113.81681152 325.7383606 113.81681152 325.7383606 115.79785156 325.47143555 C123.99729489 324.37280054 132.2022191 323.33017293 140.421875 322.39453125 C142.92561794 322.27171748 142.92561794 322.27171748 144 321 C146.02256007 320.65300047 148.05499877 320.36329471 150.08984375 320.09765625 C151.34990234 319.92943359 152.60996094 319.76121094 153.90820312 319.58789062 C155.25124925 319.41235572 156.59434867 319.2372281 157.9375 319.0625 C165.44873913 318.07919692 172.90050785 317.07998154 180.31469727 315.52026367 C186.5024599 314.32141631 192.76073303 313.50905088 199 312.625 C200.12436966 312.46408875 200.12436966 312.46408875 201.27145386 312.29992676 C214.65823986 310.38826071 228.06965268 308.74475006 241.50976562 307.25634766 C242.54743324 307.13959183 242.54743324 307.13959183 243.60606384 307.02047729 C245.47277658 306.81089563 247.34000978 306.60596443 249.20727539 306.40136719 C251.94829542 306.15728004 251.94829542 306.15728004 254 305 C257.17346785 304.55882865 260.34710139 304.18998398 263.53125 303.83789062 C267.2534105 303.40434352 270.88892563 302.84034784 274.5546875 302.05859375 C282.19425246 300.47766494 289.96131687 299.6819863 297.70117188 298.75 C299.73100742 298.5041921 301.76002851 298.25232678 303.7890625 298 C305.57884521 297.7834375 305.57884521 297.7834375 307.40478516 297.5625 C311.31553906 296.9506314 315.15985548 295.96003613 319 295 C326.59 294.01 334.18 293.02 342 292 C342 225.01 342 158.02 342 89 C340.02 89 338.04 89 336 89 C336 88.34 336 87.68 336 87 C335.40388916 86.93006836 334.80777832 86.86013672 334.19360352 86.78808594 C321.44839794 85.27880124 308.78138539 83.52804808 296.12207031 81.41552734 C288.55811378 80.18032775 281.00695655 79.28195094 273.36621094 78.68334961 C268.92069498 78.31130611 265.23680278 77.47507492 261 76 C253.18617605 74.07257199 245.24130908 73.25656584 237.25 72.4375 C236.07695312 72.31181641 234.90390625 72.18613281 233.6953125 72.05664062 C225.47199515 71.19364413 217.25031965 70.54179091 209 70 C209 69.34 209 68.68 209 68 C208.07441284 67.88724731 208.07441284 67.88724731 207.13012695 67.7722168 C204.19064523 67.4128291 201.25152003 67.05064453 198.3125 66.6875 C196.68538086 66.48664795 196.68538086 66.48664795 195.02539062 66.28173828 C188.0013768 65.40424851 181.00008035 64.42442249 174 63.375 C165.33961771 62.08718032 156.74861407 61.35885404 148 61 C148 60.34 148 59.68 148 59 C146.80503906 58.95101562 145.61007813 58.90203125 144.37890625 58.8515625 C141.09760995 58.7031188 137.81796905 58.53823149 134.5390625 58.34375 C133.78061035 58.29927734 133.0221582 58.25480469 132.24072266 58.20898438 C129.23812541 57.92894262 126.35761904 57.36448304 123.44140625 56.60546875 C112.10130951 53.79312476 100.64961618 52.49175964 89 52 C89 51.34 89 50.68 89 50 C88.01193359 49.88930176 87.02386719 49.77860352 86.00585938 49.66455078 C82.30763876 49.24876541 78.61026126 48.82585026 74.91308594 48.40087891 C73.31890304 48.21862206 71.72450364 48.03824794 70.12988281 47.85986328 C67.82556335 47.60174489 65.52213153 47.3366562 63.21875 47.0703125 C62.16512268 46.95455368 62.16512268 46.95455368 61.09020996 46.8364563 C57.00540394 46.35637122 53.17875778 45.6034408 49.24230957 44.39987183 C45.87867158 43.80003312 42.41670411 44 39 44 Z " fill="#166BCB" transform="translate(0,0)"/>
<path d="M0 0 C3.54399625 -0.18652612 6.68779329 0.09492472 10.125 0.875 C15.14920626 1.95482941 20.14099793 2.4252378 25.25 2.875 C33.54964468 3.62277199 41.62982547 4.95172473 49.80810547 6.52978516 C58.82384431 8.23442137 67.86515909 9.19832805 77 10 C77 10.66 77 11.32 77 12 C78.98 12 80.96 12 83 12 C83 78.99 83 145.98 83 215 C75.41 215.99 67.82 216.98 60 218 C54.387838 219.07559679 54.387838 219.07559679 48.78125 220.1796875 C40.55910105 221.68583569 32.20920194 222.55758637 23.91210938 223.55444336 C17.45135792 224.34832876 11.28033515 225.30241521 5 227 C3.38038565 227.21272547 1.75462699 227.38722305 0.125 227.5 C-3.10533293 227.72511031 -6.1651878 228.23347303 -9.32421875 228.9140625 C-15.74427263 230.23130091 -22.23152485 230.91255676 -28.73937988 231.631073 C-51.25085611 234.12918803 -73.59523507 237.51052575 -95.91699219 241.33764648 C-101.04019872 242.21020784 -106.13295222 243.05711133 -111.3046875 243.58203125 C-114.79593522 243.58821722 -114.79593522 243.58821722 -116 245 C-118.24469808 245.3365245 -120.49830382 245.61385789 -122.75390625 245.8671875 C-124.18164619 246.03250399 -125.60938036 246.19787039 -127.03710938 246.36328125 C-129.27413619 246.61718657 -131.51135208 246.86927692 -133.7487793 247.11962891 C-141.86908683 248.03420592 -149.92916595 249.07071205 -157.96484375 250.5703125 C-158.64374161 250.69671112 -159.32263947 250.82310974 -160.02210999 250.95333862 C-163.6158231 251.64877959 -163.6158231 251.64877959 -167 253 C-169.204364 253.22950319 -171.41392173 253.41075933 -173.625 253.5625 C-174.81351562 253.64628906 -176.00203125 253.73007812 -177.2265625 253.81640625 C-178.14179688 253.87699219 -179.05703125 253.93757812 -180 254 C-180 253.34 -180 252.68 -180 252 C-179.14019531 251.5153125 -178.28039062 251.030625 -177.39453125 250.53125 C-169.14915098 245.86365392 -161.03732168 241.01983359 -153 236 C-151.82422532 235.26691655 -150.64844388 234.53384393 -149.47265625 233.80078125 C-145.31254625 231.20460594 -141.15636818 228.60215986 -137 226 C-134.12706635 224.20170664 -131.25391932 222.40375649 -128.38037109 220.60644531 C-126.33605953 219.32773379 -124.29211371 218.04843735 -122.24853516 216.76855469 C-117.12256784 213.56167274 -111.98690566 210.37261846 -106.828125 207.21875 C-105.85705811 206.62360596 -104.88599121 206.02846191 -103.88549805 205.4152832 C-102.03800729 204.28454792 -100.18799841 203.15791418 -98.33520508 202.03588867 C-97.51431396 201.5329126 -96.69342285 201.02993652 -95.84765625 200.51171875 C-94.7649646 199.85369263 -94.7649646 199.85369263 -93.66040039 199.18237305 C-91.84835692 198.08768632 -91.84835692 198.08768632 -91 196 C-90.34 196 -89.68 196 -89 196 C-88.9175 195.175 -88.835 194.35 -88.75 193.5 C-88.13050195 190.60900909 -87.54778955 188.88515577 -86.22265625 186.34375 C-79.6260684 173.47552937 -73.72169669 160.27553773 -68 147 C-65.64961483 141.57726835 -63.15380232 136.27294285 -60.484375 131 C-58.23533088 126.45456346 -56.10183451 121.85582345 -53.95336914 117.26220703 C-52.0828137 113.27222205 -50.17766714 109.30723356 -48.1875 105.375 C-45.88376576 100.81360621 -43.84623611 96.18500808 -42 91.41796875 C-41.649375 90.51691406 -41.29875 89.61585938 -40.9375 88.6875 C-40.61652344 87.84574219 -40.29554688 87.00398438 -39.96484375 86.13671875 C-39 84 -39 84 -37 82 C-36.38906644 80.62467563 -35.83494618 79.2238139 -35.3125 77.8125 C-33.59274453 73.3692656 -31.66470326 69.05357412 -29.625 64.75 C-26.23065076 57.57516211 -23.07754816 50.31622254 -20 43 C-19.34 43 -18.68 43 -18 43 C-17.90332031 42.32324219 -17.80664062 41.64648438 -17.70703125 40.94921875 C-16.83745771 37.32199209 -15.31496154 34.14496159 -13.6875 30.8125 C-10.88662214 24.95847121 -8.3002872 19.07218672 -6 13 C-5.34 13 -4.68 13 -4 13 C-3.8453125 11.7315625 -3.8453125 11.7315625 -3.6875 10.4375 C-2.9171146 6.58557299 -1.63725486 3.55924969 0 0 Z " fill="#FBB944" transform="translate(259,77)"/>
<path d="M0 0 C0 0.66 0 1.32 0 2 C0.54527344 2.17015625 1.09054688 2.3403125 1.65234375 2.515625 C11.39710222 5.64727388 19.196955 9.26231539 27 16 C27.89332031 16.75023437 27.89332031 16.75023437 28.8046875 17.515625 C42.21660842 29.75323026 48.97485084 47.92812618 50.18359375 65.69921875 C50.46771247 77.1475317 48.5535361 87.70938886 44.12109375 98.2578125 C42.72568021 101.54501185 42.72568021 101.54501185 42 105 C43.62449243 106.70779973 45.29220027 108.37550757 47 110 C47 110.99 47 111.98 47 113 C47.99 113.33 48.98 113.66 50 114 C40.96938776 136.84744898 40.96938776 136.84744898 37 143 C32.06585066 141.14229869 28.94056907 136.90790537 25.50976562 133.08007812 C22.567189 129.86505104 22.567189 129.86505104 18.49609375 128.88671875 C15.40796073 130.26405507 12.80131701 132.10902315 10 134 C-7.28888717 141.33713617 -21.71611171 141.79753482 -40 139 C-40 138.34 -40 137.68 -40 137 C-43.63 136.34 -47.26 135.68 -51 135 C-51 134.34 -51 133.68 -51 133 C-51.80050781 132.814375 -51.80050781 132.814375 -52.6171875 132.625 C-59.75115821 130.65019842 -64.53820177 126.88547212 -70 122 C-71.03640625 121.10474609 -71.03640625 121.10474609 -72.09375 120.19140625 C-80.11037144 112.79511861 -87.00201186 102.77645224 -89.46484375 92.0859375 C-89.91447007 89.97710334 -89.91447007 89.97710334 -91.00390625 88.1640625 C-93.74044624 82.21879522 -93.18288857 75.11122769 -93.1875 68.6875 C-93.19974609 67.80126953 -93.21199219 66.91503906 -93.22460938 66.00195312 C-93.26619011 46.99955729 -85.0882096 31.22709592 -72.125 17.625 C-64.82974224 10.65774608 -56.40784569 5.57590219 -47 2 C-46.11699219 1.62746094 -45.23398438 1.25492187 -44.32421875 0.87109375 C-30.59943182 -4.23787363 -14.11070809 -3.33417575 0 0 Z " fill="#CAF3F4" transform="translate(154,83)"/>
<path d="M0 0 C3.54399625 -0.18652612 6.68779329 0.09492472 10.125 0.875 C15.14920626 1.95482941 20.14099793 2.4252378 25.25 2.875 C33.54964468 3.62277199 41.62982547 4.95172473 49.80810547 6.52978516 C58.82384431 8.23442137 67.86515909 9.19832805 77 10 C77 10.66 77 11.32 77 12 C78.65 12 80.3 12 82 12 C82.25521443 22.30922156 82.45048766 32.61768851 82.56993389 42.92942905 C82.62727396 47.71816872 82.70499087 52.50474311 82.82983398 57.29223633 C82.94963497 61.91547208 83.01517871 66.53663038 83.04364967 71.16129875 C83.06392813 72.92260392 83.10353395 74.68379899 83.16303062 76.44421577 C83.60980692 90.2152808 83.60980692 90.2152808 79.58340454 94.6791687 C75.73184904 97.2234017 72.66799587 99 68 99 C68 99.66 68 100.32 68 101 C67.35675781 101.3403125 66.71351563 101.680625 66.05078125 102.03125 C56.70016708 107.04670068 47.72832929 112.61626551 38.79296875 118.328125 C33.18058359 121.90341162 27.50587984 125.36814634 21.8125 128.8125 C8.70075353 136.77297725 -4.32563973 144.83856218 -17.15576172 153.24682617 C-20.33545705 155.3215677 -23.52363561 157.32730891 -26.83203125 159.19140625 C-29.83735069 160.90714349 -32.32574409 162.81837017 -35 165 C-37.55677322 166.63895719 -40.03563259 168.01583671 -42.8125 169.25 C-46.37694108 171.20694804 -48.96803698 173.56278583 -51.875 176.37890625 C-54.45259571 178.34527062 -56.92458299 179.00455646 -60 180 C-61.90959567 181.10913502 -63.78596319 182.27742905 -65.625 183.5 C-68.69701954 185.53080283 -71.7087795 187.35807121 -75 189 C-75.433125 189.474375 -75.86625 189.94875 -76.3125 190.4375 C-78.8544318 192.79114055 -81.80207539 193.73185748 -85 195 C-86.4540625 195.5878125 -86.4540625 195.5878125 -87.9375 196.1875 C-88.9584375 196.5896875 -88.9584375 196.5896875 -90 197 C-88.19540801 190.84315675 -85.76301158 185.35243099 -82.82983398 179.64794922 C-80.54207898 175.16758889 -78.47917824 170.62422214 -76.5 166 C-74.28113564 160.82410332 -71.92913765 155.76982032 -69.375 150.75 C-67.31286071 146.69400418 -65.38851215 142.65720381 -63.6875 138.4375 C-61.34041236 132.64385841 -58.69158254 127.01434175 -56 121.375 C-55.58451904 120.50415771 -55.16903809 119.63331543 -54.7409668 118.73608398 C-52.23836625 113.51769657 -49.67889565 108.33089703 -47.07055664 103.16455078 C-45.17453644 99.33100115 -43.54399154 95.40460315 -42 91.41796875 C-41.649375 90.51691406 -41.29875 89.61585938 -40.9375 88.6875 C-40.61652344 87.84574219 -40.29554688 87.00398438 -39.96484375 86.13671875 C-39 84 -39 84 -37 82 C-36.38906644 80.62467563 -35.83494618 79.2238139 -35.3125 77.8125 C-33.59274453 73.3692656 -31.66470326 69.05357412 -29.625 64.75 C-26.23065076 57.57516211 -23.07754816 50.31622254 -20 43 C-19.34 43 -18.68 43 -18 43 C-17.90332031 42.32324219 -17.80664062 41.64648438 -17.70703125 40.94921875 C-16.83745771 37.32199209 -15.31496154 34.14496159 -13.6875 30.8125 C-10.88662214 24.95847121 -8.3002872 19.07218672 -6 13 C-5.34 13 -4.68 13 -4 13 C-3.896875 12.154375 -3.79375 11.30875 -3.6875 10.4375 C-2.9171146 6.58557299 -1.63725486 3.55924969 0 0 Z " fill="#F86464" transform="translate(259,77)"/>
<path d="M0 0 C0 0.66 0 1.32 0 2 C0.88171875 2.41378906 0.88171875 2.41378906 1.78125 2.8359375 C11.13348758 7.74256919 14.19561805 15.08665921 17.25 24.75 C21.17189522 39.45320081 18.21377413 51.74943593 11 65 C8.73521665 67.55514019 6.89358475 69.56597312 3.8125 71.0625 C1.81311857 71.8502599 1.81311857 71.8502599 1.17578125 73.98046875 C0 76 0 76 -2.1640625 76.828125 C-2.97617188 76.96734375 -3.78828125 77.1065625 -4.625 77.25 C-5.44226563 77.39953125 -6.25953125 77.5490625 -7.1015625 77.703125 C-7.72804687 77.80109375 -8.35453125 77.8990625 -9 78 C-9 78.66 -9 79.32 -9 80 C-22.03606684 83.03542513 -35.64208893 83.86530297 -48 78 C-54.55192225 73.69302573 -59.99653782 68.76447058 -64 62 C-64 61.34 -64 60.68 -64 60 C-64.66 60 -65.32 60 -66 60 C-72.19680066 46.87606147 -72.70941773 35.18178023 -68.19726562 21.50878906 C-66.27020442 16.18429254 -63.89832332 12.07030817 -60 8 C-59.4534375 7.38898438 -58.906875 6.77796875 -58.34375 6.1484375 C-43.62403277 -9.57489681 -17.90258399 -11.8446389 0 0 Z " fill="#71F0CE" transform="translate(158,115)"/>
<path d="M0 0 C0.66 0.33 1.32 0.66 2 1 C1.236875 1.433125 0.47375 1.86625 -0.3125 2.3125 C-2.92982804 3.79046714 -2.92982804 3.79046714 -4.375 5.5 C-6.88684866 7.81862953 -9.84643865 8.74944981 -13 10 C-13.969375 10.391875 -14.93875 10.78375 -15.9375 11.1875 C-16.618125 11.455625 -17.29875 11.72375 -18 12 C-17.1875 8.5625 -17.1875 8.5625 -16 5 C-15.01 4.67 -14.02 4.34 -13 4 C-12.34 4.66 -11.68 5.32 -11 6 C-7.56001929 4.79135813 -5.50075729 3.61442808 -3 1 C-2.01 0.67 -1.02 0.34 0 0 Z " fill="#F7532E" transform="translate(187,262)"/>
<path d="M0 0 C0.66 0.33 1.32 0.66 2 1 C0.02 2.32 -1.96 3.64 -4 5 C-1.03 5.495 -1.03 5.495 2 6 C-0.77042109 8.77042109 -2.76533805 8.39796106 -6.625 8.625 C-7.81351562 8.69976562 -9.00203125 8.77453125 -10.2265625 8.8515625 C-11.14179687 8.90054687 -12.05703125 8.94953125 -13 9 C-13 8.34 -13 7.68 -13 7 C-10.88002166 5.80266012 -8.75486324 4.61701287 -6.625 3.4375 C-6.02171875 3.09525391 -5.4184375 2.75300781 -4.796875 2.40039062 C-3.23021759 1.53872905 -1.61709138 0.76281817 0 0 Z " fill="#E4A01E" transform="translate(92,322)"/>
<path d="M0 0 C0.66 0.33 1.32 0.66 2 1 C-3.08952561 6.06245367 -6.85333259 8.85142845 -14 10 C-13.34 8.68 -12.68 7.36 -12 6 C-11.01 6 -10.02 6 -9 6 C-8.566875 5.566875 -8.13375 5.13375 -7.6875 4.6875 C-5.3979487 2.3979487 -2.96204761 1.26044579 0 0 Z " fill="#F86932" transform="translate(211,247)"/>
<path d="M0 0 C1.18851563 0.00902344 2.37703125 0.01804687 3.6015625 0.02734375 C4.51679687 0.03894531 5.43203125 0.05054688 6.375 0.0625 C3.60457891 2.83292109 1.60966195 2.46046106 -2.25 2.6875 C-3.43851562 2.76226562 -4.62703125 2.83703125 -5.8515625 2.9140625 C-7.22441406 2.98753906 -7.22441406 2.98753906 -8.625 3.0625 C-8.625 2.4025 -8.625 1.7425 -8.625 1.0625 C-5.74084117 -0.37957941 -3.20778472 -0.03144887 0 0 Z " fill="#868D6D" transform="translate(87.625,327.9375)"/>
<path d="M0 0 C0.66 0.33 1.32 0.66 2 1 C-4.14285714 6.57142857 -4.14285714 6.57142857 -9 7 C-6.3765992 4.08511023 -3.28183606 2.11496102 0 0 Z " fill="#FCA955" transform="translate(301,192)"/>
<path d="M0 0 C0.33 0.66 0.66 1.32 1 2 C0.0625 4.625 0.0625 4.625 -1 7 C-1.99 7 -2.98 7 -4 7 C-3.39816251 4.97954558 -2.72693904 2.97888961 -2 1 C-1.34 0.67 -0.68 0.34 0 0 Z " fill="#E64D44" transform="translate(173,266)"/>
</svg>
