<?xml version="1.0" encoding="UTF-8"?>
<svg version="1.1" xmlns="http://www.w3.org/2000/svg" width="80" height="80">
<path d="M0 0 C26.4 0 52.8 0 80 0 C80 26.4 80 52.8 80 80 C53.6 80 27.2 80 0 80 C0 53.6 0 27.2 0 0 Z " fill="#8BBD08" transform="translate(0,0)"/>
<path d="M0 0 C3.62182717 2.49503649 6.44541069 5.21327949 8.8125 8.9375 C9.15194795 10.93647128 9.48671616 12.93625639 9.8125 14.9375 C12.1555809 16.05835312 12.1555809 16.05835312 14.8125 16.9375 C17.41103317 19.18488004 18.62068745 20.87365074 19.234375 24.27734375 C19.47653797 28.7506319 19.32905697 31.94776087 16.4375 35.5 C13.08975935 38.60861632 11.68318424 39.06222464 7.25854492 39.11450195 C6.31383835 39.12733719 5.36913177 39.14017242 4.39579773 39.15339661 C3.37186417 39.16078354 2.3479306 39.16817047 1.29296875 39.17578125 C0.24224686 39.183853 -0.80847504 39.19192474 -1.89103699 39.20024109 C-4.11785224 39.21408815 -6.34468877 39.22480751 -8.5715332 39.23266602 C-11.97583276 39.24987781 -15.3791611 39.29375913 -18.78320312 39.33789062 C-20.94530535 39.34801745 -23.10741584 39.35653358 -25.26953125 39.36328125 C-26.79632256 39.38954338 -26.79632256 39.38954338 -28.35395813 39.41633606 C-35.42752908 39.39464772 -35.42752908 39.39464772 -39.24487305 37.09838867 C-43.19220277 32.70756105 -43.56550135 30.06682877 -43.44140625 24.375 C-42.90348593 19.21096493 -39.81305373 16.34978586 -36.1875 12.9375 C-35.300625 12.050625 -34.41375 11.16375 -33.5 10.25 C-30.1875 6.9375 -30.1875 6.9375 -26.5625 6.75 C-22.08950429 6.27619974 -19.86735944 4.41213546 -16.73046875 1.3125 C-12.3362132 -2.60339355 -5.18354672 -1.72784891 0 0 Z " fill="#F8FAF2" transform="translate(52.1875,19.0625)"/>
<path d="M0 0 C0.33 0 0.66 0 1 0 C1 12.21 1 24.42 1 37 C-10.22 37 -21.44 37 -33 37 C-29.75642548 35.37821274 -26.62830792 34.09468163 -23.25 32.8125 C-12.22701365 28.19947408 -6.19939485 20.76995893 -1.6875 9.8125 C-0.89206412 6.55844412 -0.39895263 3.32460527 0 0 Z " fill="#FCFDF9" transform="translate(79,43)"/>
<path d="M0 0 C0.33 0 0.66 0 1 0 C1.14695313 0.75023437 1.29390625 1.50046875 1.4453125 2.2734375 C3.8919958 13.43818775 8.31722529 22.48402318 18 29 C23.17825764 31.800041 28.17619187 34.01362529 34 35 C34 35.33 34 35.66 34 36 C22.78 36 11.56 36 0 36 C0 24.12 0 12.24 0 0 Z " fill="#FCFDF9" transform="translate(0,44)"/>
<path d="M0 0 C11.88 0 23.76 0 36 0 C36 0.33 36 0.66 36 1 C35.10861328 1.11214844 35.10861328 1.11214844 34.19921875 1.2265625 C23.77993985 2.87938746 15.453087 7.30853575 8.72265625 15.50390625 C4.39967622 21.76781609 1.50794187 28.38087196 1 36 C0.67 36 0.34 36 0 36 C0 24.12 0 12.24 0 0 Z " fill="#FCFDF9" transform="translate(0,0)"/>
<path d="M0 0 C10.56 0 21.12 0 32 0 C32 11.88 32 23.76 32 36 C31.67 36 31.34 36 31 36 C30.91363281 35.38253906 30.82726562 34.76507813 30.73828125 34.12890625 C29.17988089 24.73561235 25.12186332 16.47018955 18 10 C12.37664172 5.98331552 6.53665037 3.17888346 0 1 C0 0.67 0 0.34 0 0 Z " fill="#FCFDFA" transform="translate(48,0)"/>
<path d="M0 0 C2.05078125 0.03255208 4.1015625 0.06510417 6.15234375 0.09765625 C5.49234375 2.73765625 4.83234375 5.37765625 4.15234375 8.09765625 C3.52585937 8.07445312 2.899375 8.05125 2.25390625 8.02734375 C1.43664062 8.00929688 0.619375 7.99125 -0.22265625 7.97265625 C-1.44082031 7.93785156 -1.44082031 7.93785156 -2.68359375 7.90234375 C-5.06107868 7.88395574 -5.06107868 7.88395574 -6.84765625 10.09765625 C-7.49017975 12.16639659 -7.49017975 12.16639659 -7.84765625 14.09765625 C-10.15765625 14.75765625 -12.46765625 15.41765625 -14.84765625 16.09765625 C-12.98122847 11.99151514 -11.17412848 9.13061623 -7.84765625 6.09765625 C-6.96078125 5.21078125 -6.07390625 4.32390625 -5.16015625 3.41015625 C-1.84765625 0.09765625 -1.84765625 0.09765625 0 0 Z " fill="#C8DA94" transform="translate(23.84765625,25.90234375)"/>
<path d="M0 0 C0.66 0 1.32 0 2 0 C2 2.31 2 4.62 2 7 C4.31 7 6.62 7 9 7 C9 7.66 9 8.32 9 9 C6.69 9 4.38 9 2 9 C2 11.31 2 13.62 2 16 C1.34 16 0.68 16 0 16 C0 13.69 0 11.38 0 9 C-2.31 9 -4.62 9 -7 9 C-7 8.34 -7 7.68 -7 7 C-4.69 7 -2.38 7 0 7 C0 4.69 0 2.38 0 0 Z " fill="#76C127" transform="translate(43,27)"/>
<path d="M0 0 C1.1875 1.6875 1.1875 1.6875 2 4 C1 6.6875 1 6.6875 -1 9 C-4.1875 9.8125 -4.1875 9.8125 -7 10 C-7 8.02 -7 6.04 -7 4 C-4.69 3.34 -2.38 2.68 0 2 C0 1.34 0 0.68 0 0 Z " fill="#EFF4E3" transform="translate(16,38)"/>
<path d="M0 0 C0.66 0.33 1.32 0.66 2 1 C1.34 1.66 0.68 2.32 0 3 C-0.6425235 5.06874034 -0.6425235 5.06874034 -1 7 C-3.31 7.66 -5.62 8.32 -8 9 C-6.08881182 4.47350169 -4.58335976 1.99787477 0 0 Z " fill="#DAE6B8" transform="translate(17,33)"/>
</svg>
