<?xml version="1.0" encoding="UTF-8"?>
<svg version="1.1" xmlns="http://www.w3.org/2000/svg" width="71" height="64">
<path d="M0 0 C23.43 0 46.86 0 71 0 C71 21.12 71 42.24 71 64 C47.57 64 24.14 64 0 64 C0 42.88 0 21.76 0 0 Z " fill="#FEFEFE" transform="translate(0,0)"/>
<path d="M0 0 C0.85758911 -0.00315216 1.71517822 -0.00630432 2.59875488 -0.009552 C3.53102905 -0.00752777 4.46330322 -0.00550354 5.42382812 -0.00341797 C6.84979309 -0.00485306 6.84979309 -0.00485306 8.30456543 -0.00631714 C10.31876695 -0.00699904 12.33297065 -0.00514409 14.34716797 -0.00097656 C17.44178167 0.00437155 20.53625022 -0.00092124 23.63085938 -0.00732422 C25.58268261 -0.00666344 27.53450576 -0.00538228 29.48632812 -0.00341797 C30.88473938 -0.00645432 30.88473938 -0.00645432 32.31140137 -0.009552 C33.16899048 -0.00639984 34.02657959 -0.00324768 34.91015625 0 C35.66880981 0.00079559 36.42746338 0.00159119 37.20910645 0.00241089 C38.95507812 0.12939453 38.95507812 0.12939453 39.95507812 1.12939453 C40.04355555 3.6503353 40.07035114 6.14370346 40.05273438 8.66455078 C40.05131943 9.41780136 40.04990448 10.17105194 40.04844666 10.9471283 C40.04283188 13.36209013 40.03027695 15.77696054 40.01757812 18.19189453 C40.01256502 19.82535674 40.00800179 21.45882039 40.00390625 23.09228516 C39.99285766 27.10469038 39.97558319 31.11702694 39.95507812 35.12939453 C33.70712138 35.15466577 27.45917771 35.17222797 21.21118164 35.18432617 C19.08389798 35.18936751 16.95661781 35.19620044 14.8293457 35.20483398 C11.77879987 35.21690832 8.72829967 35.22262467 5.67773438 35.22705078 C4.24180687 35.23479271 4.24180687 35.23479271 2.77687073 35.24269104 C1.89603317 35.24276657 1.01519562 35.2428421 0.10766602 35.24291992 C-1.06148598 35.24625084 -1.06148598 35.24625084 -2.2542572 35.24964905 C-4.04492188 35.12939453 -4.04492188 35.12939453 -5.04492188 34.12939453 C-5.14574951 31.69279008 -5.18464791 29.28514752 -5.17773438 26.84814453 C-5.1786911 26.11946167 -5.17964783 25.39077881 -5.18063354 24.64001465 C-5.18131523 23.09659743 -5.17946175 21.55317736 -5.17529297 20.00976562 C-5.1699445 17.63942053 -5.1752383 15.26926494 -5.18164062 12.89892578 C-5.18097984 11.40283161 -5.17969867 9.90673756 -5.17773438 8.41064453 C-5.17975861 7.69710815 -5.18178284 6.98357178 -5.18386841 6.24841309 C-5.15393303 0.00540488 -5.15393303 0.00540488 0 0 Z " fill="#FFFFFF" transform="translate(20.044921875,15.87060546875)"/>
<path d="M0 0 C0.85758911 -0.00315216 1.71517822 -0.00630432 2.59875488 -0.009552 C3.53102905 -0.00752777 4.46330322 -0.00550354 5.42382812 -0.00341797 C6.84979309 -0.00485306 6.84979309 -0.00485306 8.30456543 -0.00631714 C10.31876695 -0.00699904 12.33297065 -0.00514409 14.34716797 -0.00097656 C17.44178167 0.00437155 20.53625022 -0.00092124 23.63085938 -0.00732422 C25.58268261 -0.00666344 27.53450576 -0.00538228 29.48632812 -0.00341797 C30.88473938 -0.00645432 30.88473938 -0.00645432 32.31140137 -0.009552 C33.16899048 -0.00639984 34.02657959 -0.00324768 34.91015625 0 C35.66880981 0.00079559 36.42746338 0.00159119 37.20910645 0.00241089 C38.95507812 0.12939453 38.95507812 0.12939453 39.95507812 1.12939453 C40.04355555 3.6503353 40.07035114 6.14370346 40.05273438 8.66455078 C40.05131943 9.41780136 40.04990448 10.17105194 40.04844666 10.9471283 C40.04283188 13.36209013 40.03027695 15.77696054 40.01757812 18.19189453 C40.01256502 19.82535674 40.00800179 21.45882039 40.00390625 23.09228516 C39.99285766 27.10469038 39.97558319 31.11702694 39.95507812 35.12939453 C33.70712138 35.15466577 27.45917771 35.17222797 21.21118164 35.18432617 C19.08389798 35.18936751 16.95661781 35.19620044 14.8293457 35.20483398 C11.77879987 35.21690832 8.72829967 35.22262467 5.67773438 35.22705078 C4.24180687 35.23479271 4.24180687 35.23479271 2.77687073 35.24269104 C1.89603317 35.24276657 1.01519562 35.2428421 0.10766602 35.24291992 C-1.06148598 35.24625084 -1.06148598 35.24625084 -2.2542572 35.24964905 C-4.04492188 35.12939453 -4.04492188 35.12939453 -5.04492188 34.12939453 C-5.14574951 31.69279008 -5.18464791 29.28514752 -5.17773438 26.84814453 C-5.1786911 26.11946167 -5.17964783 25.39077881 -5.18063354 24.64001465 C-5.18131523 23.09659743 -5.17946175 21.55317736 -5.17529297 20.00976562 C-5.1699445 17.63942053 -5.1752383 15.26926494 -5.18164062 12.89892578 C-5.18097984 11.40283161 -5.17969867 9.90673756 -5.17773438 8.41064453 C-5.17975861 7.69710815 -5.18178284 6.98357178 -5.18386841 6.24841309 C-5.15393303 0.00540488 -5.15393303 0.00540488 0 0 Z M-2.04492188 3.12939453 C-2.04492188 12.36939453 -2.04492188 21.60939453 -2.04492188 31.12939453 C10.49507812 31.12939453 23.03507812 31.12939453 35.95507812 31.12939453 C35.95507812 21.88939453 35.95507812 12.64939453 35.95507812 3.12939453 C23.41507813 3.12939453 10.87507812 3.12939453 -2.04492188 3.12939453 Z " fill="#101010" transform="translate(20.044921875,15.87060546875)"/>
<path d="M0 0 C5.94 0 11.88 0 18 0 C18 6.6 18 13.2 18 20 C12.06 20 6.12 20 0 20 C0 13.4 0 6.8 0 0 Z " fill="#000000" transform="translate(22,23)"/>
<path d="M0 0 C2.97 0 5.94 0 9 0 C8.5205537 4.21912747 7.83374881 6.79663178 5 10 C6.32 10.33 7.64 10.66 9 11 C9 11.99 9 12.98 9 14 C6.03 14 3.06 14 0 14 C0.56545837 10.04179141 1.80902348 7.3340947 4 4 C2.68 3.67 1.36 3.34 0 3 C0 2.01 0 1.02 0 0 Z " fill="#000000" transform="translate(43,29)"/>
<path d="M0 0 C3.63 0 7.26 0 11 0 C10 5 10 5 8 7 C7.59952556 9.32275177 7.2602896 11.65739357 7 14 C5.68 14 4.36 14 3 14 C2.63076923 7.47692308 2.63076923 7.47692308 4.5 5.0625 C4.995 4.711875 5.49 4.36125 6 4 C3.03 3.505 3.03 3.505 0 3 C0 2.01 0 1.02 0 0 Z " fill="#FFFFFF" transform="translate(26,26)"/>
</svg>
