<?xml version="1.0" encoding="UTF-8"?>
<svg id="_ÎÓÈ_1" data-name="—ÎÓÈ 1" xmlns="http://www.w3.org/2000/svg" viewBox="0 0 200 200">
  <defs>
    <style>
      .cls-1 {
        fill: #fff;
        stroke-width: 0px;
      }
    </style>
  </defs>
  <path class="cls-1" d="M184.16,96.15h.07c-3.68-15.87-10.21-30.65-21.22-43.61-11.94-14.07-27.7-16.67-42.64-7.5-6.81,4.18-13.59,6.34-20.37,6.46-6.78-.12-13.56-2.28-20.37-6.46-14.94-9.18-30.7-6.57-42.64,7.5-11.01,12.96-17.54,27.74-21.22,43.61h.07c-3.98,15.39-5.02,31.15-1.57,47.19,3.58,16.65,16.55,21.77,30.73,12.25,7.66-5.13,14.49-11.68,21.02-18.27,4.34-4.38,8.68-6.85,14.97-6.71,5.38.13,14.33.19,20.33.21h0c.15,0,.3,0,.45,0,.41,0,.8,0,1.17,0h0c5.35-.03,10.71-.09,16.07-.22,6.29-.14,10.63,2.33,14.97,6.71,6.53,6.58,13.35,13.14,21.02,18.27,14.18,9.52,27.15,4.4,30.73-12.25,3.45-16.04,2.42-31.8-1.57-47.19ZM179.31,142.15c-2.1,11.38-9.99,14.97-19.63,8.58-8.02-5.33-15.16-12.16-22.01-18.99-4.85-4.84-9.93-7.5-16.79-7.4-6.33.09-12.66.17-18.99.2-6.58-.03-16.6-.11-22.78-.2-6.86-.1-11.94,2.56-16.79,7.4-6.85,6.84-13.99,13.66-22.01,18.99-9.64,6.39-17.53,2.8-19.63-8.58-2.9-15.75-2.34-31.17,1.64-46h.09c3.69-15.16,10.04-29.17,20.94-40.96,9.33-10.11,20.53-12.04,31.55-5.24,8.29,5.12,16.47,7.76,24.65,7.97v.04c.14,0,.29-.02.43-.02.14,0,.29.02.43.02v-.04c8.18-.21,16.36-2.85,24.65-7.97,11.02-6.8,22.22-4.86,31.55,5.24,10.9,11.79,17.25,25.8,20.94,40.96h.09c3.98,14.83,4.54,30.26,1.64,46Z"/>
  <path class="cls-1" d="M71.69,88.79h-6.96v-6.96c0-1.81-1.47-3.29-3.29-3.29h-5.65c-1.81,0-3.29,1.47-3.29,3.29v6.96h-6.96c-1.81,0-3.29,1.47-3.29,3.29v5.65c0,1.81,1.47,3.29,3.29,3.29h6.96v6.96c0,1.81,1.47,3.29,3.29,3.29h5.65c1.81,0,3.29-1.47,3.29-3.29v-6.96h6.96c1.81,0,3.29-1.47,3.29-3.29v-5.65c0-1.81-1.47-3.29-3.29-3.29Z"/>
  <circle class="cls-1" cx="126.08" cy="84.78" r="6.23"/>
  <circle class="cls-1" cx="126.08" cy="106.14" r="6.23"/>
  <circle class="cls-1" cx="148.71" cy="84.78" r="6.23"/>
  <circle class="cls-1" cx="148.71" cy="106.14" r="6.23"/>
</svg>