<?xml version="1.0" encoding="UTF-8"?><!--Sourced from Wikimedia commons, licensed under the MS-RL license-->
<svg width="315" height="200" version="1.1" viewBox="0 0 315 200" xmlns="http://www.w3.org/2000/svg" xmlns:cc="http://creativecommons.org/ns#" xmlns:dc="http://purl.org/dc/elements/1.1/" xmlns:rdf="http://www.w3.org/1999/02/22-rdf-syntax-ns#">
 <metadata>
  <rdf:RDF>
   <cc:Work rdf:about="">
    <dc:format>image/svg+xml</dc:format>
    <dc:type rdf:resource="http://purl.org/dc/dcmitype/StillImage"/>
    <dc:title/>
   </cc:Work>
  </rdf:RDF>
 </metadata>
 <g transform="translate(1.38 .688)">
  <path d="m263 194c-1.54-1.54-1.5-3.44 0.0738-4.02 3.22-1.18 5.06 1.92 2.43 4.1-0.967 0.802-1.64 0.781-2.5-0.0776zm8.82-0.779c-0.858-1.6-0.845-2.48 0.0548-3.56 2.66-3.2 8.46-0.0694 6.29 3.4-1.59 2.54-5.02 2.63-6.34 0.163zm-17.6-2.11c-0.754-1.22 1.49-3.05 2.77-2.26 0.439 0.271 0.798 1.14 0.798 1.93 0 1.7-2.58 1.93-3.57 0.329zm-4.09-158c-0.755-1.97 0.138-2.87 2.09-2.12 0.879 0.337 1.28 1.24 0.936 2.12-0.758 1.98-2.27 1.97-3.03-0.0053zm-3.68-6.12c-1.44-1.44-0.625-4.33 1.23-4.33 2.29 0 3.38 2.32 1.83 3.88-1.28 1.28-2.1 1.41-3.06 0.455zm-8.59-8.2c-1.28-2.39 0.824-5.5 3.38-5 2.8 0.55 4.2 3.37 2.61 5.27-1.78 2.14-4.78 2-6-0.278z" fill="#ef953c"/>
  <path d="m284 190c-1.5-2.8-1.28-4.53 0.794-6.41 2.38-2.15 4.46-2.1 6.52 0.174 1.94 2.15 2.15 5.28 0.455 6.97-1.9 1.9-6.59 1.46-7.76-0.734zm11.2-11.1c-1.2-1.12-2.19-3.17-2.19-4.55 0-3.04 4.13-7.42 7-7.42 2.82 0 7 4.35 7 7.28 0 3.04-3.9 6.72-7.13 6.72-1.37 0-3.48-0.918-4.69-2.04zm-260-10.2c-15-45.3-33.3-102-33.3-103 0-1.25 2.87-1.43 19.2-1.2l19.2 0.272 1.34 4.5c0.74 2.48 4.18 14.2 7.65 26l6.31 21.5 1.77-5.45c0.973-3 4.92-14.8 8.78-26.2l7.01-20.8 32.2 0.548 8.64 25.5c7.41 21.9 8.77 25.1 9.58 23 0.519-1.38 4.03-12.9 7.81-25.6l6.87-23.1 19.6-0.353c10.8-0.194 26.2-0.192 34.2 0.0045l14.7 0.358 7.76 12.9c4.27 7.09 8.02 12.9 8.33 12.9 0.311-0.021 3.99-5.76 8.18-12.8l7.61-12.7 20.1-0.271c13.4-0.18 20.1 0.0762 20.1 0.764 0 0.569-7.65 12.5-17 26.5-9.35 14-17 26-17 26.6 0 0.623 8.1 13.4 18 28.5s18 27.6 18 27.9-9.33 0.434-20.7 0.285l-20.7-0.27-8.3-13.5c-4.56-7.42-8.62-13.6-9.02-13.7-0.398-0.123-4.55 6.06-9.22 13.7l-8.5 14-96.3 0.01-3.99-11.2c-2.19-6.18-6.4-18.1-9.35-26.5-2.95-8.39-5.63-15.2-5.95-15.2-0.325-8.1e-4 -1.16 1.9-1.86 4.22-0.695 2.32-4.87 14.2-9.28 26.5l-8.02 22.3h-32.3zm138-12.3c3.61-2.65 7.51-7.63 15.8-20.1 6.02-9.14 11-17.1 11-17.6s-4.36-7.67-9.7-15.8l-9.7-14.9-3.34 11.3c-4.81 16.2-11.1 40.5-12.8 49.3-2.3 12 0.188 14.2 8.84 7.88zm126 3.53c-2.47-1.44-4.09-7.13-2.92-10.2 1.26-3.31 4.81-5.74 8.39-5.74 3.42 0 8.7 4.83 8.7 7.97 0 2.9-2.57 7.65-4.54 8.41-2.41 0.925-7.72 0.695-9.63-0.417zm-9.18-19c-4.04-1.2-6.49-3.71-7.77-7.98-2.03-6.78 3.78-14 11.3-14 7.33 0.0117 12.7 8.79 9.56 15.5-2.57 5.39-7.86 8.02-13.1 6.48zm-114-89.5c-2.65-1.85-5.22-6.5-5.22-9.44 0-8.03 9.48-13.4 16.9-9.55 6.26 3.24 7.18 13.5 1.64 18.3-3.17 2.73-9.93 3.09-13.3 0.718zm12.6-24.8c-4.32-2.91-5.6-6.48-3.85-10.7 3.04-7.35 13.5-7.06 16 0.448 1.02 3.1 0.932 4.06-0.658 6.78-1.02 1.74-3.26 3.74-4.99 4.45-2.81 1.15-3.49 1.04-6.47-0.965zm18.6-12.7c-2.58-2.85-2.36-7.87 0.456-10.1 4.7-3.8 11.1-0.837 11.1 5.16 0 6.07-7.57 9.35-11.5 4.99zm18.7-0.187c-2.16-2.16-1.43-6.34 1.37-7.83 4.38-2.35 8.74 1.88 6.65 6.46-1.29 2.82-5.8 3.6-8.02 1.38z" fill="#878584"/>
  <path d="m284 190c-1.5-2.8-1.28-4.53 0.794-6.41 2.38-2.15 4.46-2.1 6.52 0.174 1.94 2.15 2.15 5.28 0.455 6.97-1.9 1.9-6.59 1.46-7.76-0.734zm11.2-11.1c-1.2-1.12-2.19-3.17-2.19-4.55 0-3.04 4.13-7.42 7-7.42 2.82 0 7 4.35 7 7.28 0 3.04-3.9 6.72-7.13 6.72-1.37 0-3.48-0.918-4.69-2.04zm-258-6.21c-2.9-6.67-35-107-34.5-108 0.351-0.568 8.21-0.969 19-0.969h18.4l2.97 9.75c1.63 5.36 5.09 17 7.68 25.8s4.81 16.1 4.94 16.3c0.125 0.153 3.94-10.6 8.47-24s8.67-25.1 9.19-26.1c0.853-1.6 2.46-1.75 16.6-1.5l15.7 0.275 8.5 25.2c4.68 13.9 8.74 25.2 9.03 25.2 0.294 2e-3 3.9-11.4 8.01-25.2l7.47-25.2 12.4-0.282c6.83-0.155 12.8 0.12 13.3 0.611 0.524 0.524 2.42 0.349 4.58-0.424 5.8-2.07 11.8-1.77 14.3 0.72 2.93 2.93 2.31 6.81-5.12 31.9-6.43 21.7-12.2 43.6-13.9 53.3-1.14 6.29-0.263 9.65 2.52 9.65 1.92 0 9.08-4.9 12.4-8.49 1.38-1.49 3.77-3.61 5.31-4.72l2.81-2.02 4.6 4.32-6.11 5.8c-8.27 7.84-16 13.7-22.1 16.9-4.99 2.59-5.41 2.63-29.7 3.01l-24.7 0.389-1.41-2.84c-0.777-1.56-5.17-13.5-9.76-26.6s-8.61-23.8-8.93-23.8c-0.321 0-4.58 11.4-9.48 25.2s-9.32 25.8-9.85 26.5c-0.693 0.904-5.22 1.25-16.4 1.25-15 0-15.4-0.0564-16.4-2.25zm110-83.8c0.995-1.1 1.58-2 1.31-2s-1.31 0.9-2.31 2-1.58 2-1.31 2 1.31-0.9 2.31-2zm152 71c-2.47-1.44-4.09-7.13-2.92-10.2 1.26-3.31 4.81-5.74 8.39-5.74 3.42 0 8.7 4.83 8.7 7.97 0 2.9-2.57 7.65-4.54 8.41-2.41 0.925-7.72 0.695-9.63-0.417zm-9.18-19c-4.04-1.2-6.49-3.71-7.77-7.98-2.03-6.78 3.78-14 11.3-14 7.33 0.0117 12.7 8.79 9.56 15.5-2.57 5.39-7.86 8.02-13.1 6.48zm-114-89.5c-2.65-1.85-5.22-6.5-5.22-9.44 0-8.03 9.48-13.4 16.9-9.55 6.26 3.24 7.18 13.5 1.64 18.3-3.17 2.73-9.93 3.09-13.3 0.718zm10.7-26.4c-3.26-3.26-3.63-5.81-1.45-10 3.35-6.48 13.2-5.66 15.5 1.28 0.959 2.91 0.887 4.08-0.401 6.57-3.03 5.86-8.99 6.81-13.6 2.17zm20.6-11.1c-2.58-2.85-2.36-7.87 0.456-10.1 4.7-3.8 11.1-0.837 11.1 5.16 0 6.07-7.57 9.35-11.5 4.99zm18.7-0.187c-2.16-2.16-1.43-6.34 1.37-7.83 4.38-2.35 8.74 1.88 6.65 6.46-1.29 2.82-5.8 3.6-8.02 1.38z" fill="#f06225"/>
  <path d="m37 173c-2.9-6.67-35-107-34.5-108 0.351-0.568 8.21-0.969 19-0.969h18.4l2.97 9.75c1.63 5.36 5.09 17 7.68 25.8s4.81 16.1 4.94 16.3c0.125 0.153 3.94-10.6 8.47-24s8.67-25.1 9.19-26.1c0.853-1.6 2.46-1.75 16.6-1.5l15.7 0.275 8.5 25.2c4.68 13.9 8.74 25.2 9.03 25.2 0.294 2e-3 3.9-11.4 8.01-25.2l7.47-25.2 12.4-0.282c6.83-0.155 12.8 0.105 13.3 0.577 0.479 0.479 3.4 0.199 6.6-0.635 6.18-1.61 10.1-1.14 12.7 1.52 2.22 2.22 1.65 6.08-3.55 23.8-13.4 45.9-17.9 64.9-16 68.5 2.1 3.91 4.82 2.6 17.5-8.38l5.66-4.92 4.32 4.32-3.96 4.1c-6.15 6.36-18.1 15.7-23.8 18.6-5.01 2.54-5.7 2.61-29.8 3.11l-24.7 0.507-1.44-2.89c-0.79-1.59-5.2-13.6-9.79-26.6s-8.61-23.8-8.93-23.8c-0.321 0-4.58 11.4-9.48 25.2s-9.32 25.8-9.85 26.5c-0.693 0.904-5.22 1.25-16.4 1.25-15 0-15.4-0.0564-16.4-2.25zm111-85.2c1.87-1.92 3.17-3.5 2.89-3.5s-2.03 1.58-3.89 3.5-3.17 3.5-2.89 3.5 2.03-1.58 3.89-3.5zm-0.872-9.25c1.24-1.59 1.21-1.62-0.378-0.378-1.67 1.31-2.2 2.13-1.37 2.13 0.208 0 0.995-0.788 1.75-1.75zm139 60.7c-8.1-6.37-3.5-19.5 6.83-19.5 7.61 0 12.8 6.98 10.4 14.1-1.57 4.75-5.33 7.42-10.5 7.42-2.73 0-5.14-0.716-6.79-2.02zm-110-87.3c-3.37-1.68-6.34-7.9-5.53-11.6 0.346-1.58 1.99-4.16 3.65-5.75 6.82-6.53 17.9-1.98 17.9 7.36 0 5.41-1.21 7.79-4.98 9.74-3.53 1.83-7.65 1.91-11 0.238z" fill="#ec242b"/>
  <path d="m37 173c-2.9-6.67-35-107-34.5-108 0.351-0.568 8.21-0.969 19-0.969h18.4l2.97 9.75c1.63 5.36 5.09 17 7.68 25.8s4.81 16.1 4.94 16.3c0.125 0.153 3.94-10.6 8.47-24s8.67-25.1 9.19-26.1c0.853-1.6 2.46-1.75 16.6-1.5l15.7 0.275 8.5 25.2c4.68 13.9 8.74 25.2 9.03 25.2 0.294 2e-3 3.9-11.4 8.01-25.2l7.47-25.2 12.4-0.282c7.15-0.163 12.9 0.137 13.5 0.711 0.804 0.667 2.82 0.498 6.14-0.515 6.08-1.85 10.9-1.1 13 2.01 1.87 2.85 1.62 4.11-6.53 32.5-10.7 37.3-14.7 54.4-13.6 58.7 1.22 4.88 6.93 2.52 17.4-7.17l6.27-5.81 4.38 4.46-5 4.48c-17 15.2-26.1 20.8-33.5 20.2-2.17-0.157-4.27 0.0339-4.66 0.424-0.39 0.39-9.4 0.709-20 0.709h-19.3l-1.36-2.75c-0.75-1.51-5.12-13.4-9.71-26.5-4.59-13.1-8.61-23.8-8.93-23.8-0.321 0-4.58 11.4-9.48 25.2s-9.32 25.8-9.85 26.5c-0.693 0.904-5.22 1.25-16.4 1.25-15 0-15.4-0.0564-16.4-2.25zm116-90.5c0-0.751-0.898 0.043-5.04 4.46l-4.46 4.75 4.75-4.46c2.61-2.45 4.75-4.59 4.75-4.75zm-10 0.208c2.99-3.02 5.21-5.5 4.93-5.5s-2.94 2.48-5.93 5.5-5.21 5.5-4.93 5.5 2.94-2.48 5.93-5.5z" fill="#e71d24"/>
  <path d="m36.3 173c-2.91-6.67-35.1-107-34.6-108 0.353-0.568 8.25-0.969 19.1-0.969l20-0.352 2.33 10.1c1.64 5.36 5.09 16.9 7.7 25.7 2.6 8.8 4.84 16.1 4.96 16.3 0.125 0.153 3.17-10.6 7.72-23.9s9.79-27.9 9.83-27.8c11.9-0.433 17.1-0.0697 32.2 0.548l8.62 25.3c4.7 13.9 8.74 23.6 9.04 23.6 0.295 2e-3 3.57-9.79 7.7-23.7l7.53-25.5 12.9-0.296c6.86-0.158 12.8-0.49 13.3-0.0086 0.503 0.5-2.29 3.43-6.04 5.61-7.15 4.16-21.7 16.9-21.7 19 0 0.716 1.11 2.02 2.46 2.91 2.42 1.58 2.59 1.49 10-5.36 10.3-9.49 15.3-10.6 14.4-3.15-0.245 2-3.42 13.8-7.05 26.2-11.2 38.4-14.1 56.7-9.82 62.1 1.09 1.38 2.14 3.26 1.79 3.61s-9.82 0.161-20.5 0.161l-19.8 0.382-1.14-2.86c-0.625-1.57-4.98-13.7-9.6-26.8-4.62-13.1-8.21-23.7-8.53-23.7-0.322 0-4.43 11.3-9.34 25.2s-8.32 27-8.85 27.7c-0.697 0.904-6.83 0.804-18 0.804-15.1 0-15.4 0.239-16.4-1.95z" fill="#595555" style="fill:#1a1a1a"/>
 </g>
</svg>