<?xml version="1.0" encoding="UTF-8"?><svg id="map" xmlns="http://www.w3.org/2000/svg" viewBox="0 0 105.14 52.15"><defs><style>.cls-1{fill:none;}.cls-2{fill:#fff;}.cls-3,.cls-4{fill:#909;}.cls-5,.cls-6{fill:#c03;}.cls-7,.cls-8{fill:#9c3;}.cls-6{opacity:.6;}.cls-8,.cls-4{opacity:.7;}</style></defs><path class="cls-1" d="m63.52,18.4c-.38.28-.64.61-.79.99-.15.38-.22.79-.22,1.24,0,.38.04.7.13.95.09.25.21.46.37.61s.35.27.58.33c.23.06.47.1.74.1.24,0,.49-.01.75-.04.26-.03.52-.08.79-.15.27-.07.54-.18.82-.31.28-.13.56-.29.85-.49v-4.24c-1.01.04-1.83.15-2.48.33-.65.17-1.16.4-1.54.68Z"/><path class="cls-1" d="m93.59,14.14c-.27-.41-.62-.74-1.04-.98-.42-.24-.94-.36-1.55-.36-.55,0-1.03.13-1.45.38-.42.25-.77.6-1.05,1.03-.28.44-.49.96-.63,1.56-.14.6-.21,1.26-.21,1.96,0,.57.06,1.15.19,1.74.13.59.32,1.13.6,1.61.27.49.62.88,1.05,1.19.43.31.94.46,1.54.46s1.07-.16,1.48-.47c.42-.31.76-.72,1.03-1.24.27-.51.47-1.09.6-1.73.13-.64.2-1.3.2-1.96,0-.62-.06-1.2-.18-1.75-.12-.55-.31-1.03-.58-1.44Z"/><polygon class="cls-2" points="36.24 22.08 27.44 22.08 27.44 4.34 23.87 4.34 23.87 24.73 36.24 24.73 36.24 22.08"/><path class="cls-2" d="m38.06,7.6c.17.18.37.32.6.43.23.11.47.16.73.16.28,0,.53-.05.75-.16.23-.1.42-.24.59-.42.16-.17.29-.37.38-.6.09-.23.13-.46.13-.72s-.04-.49-.13-.72c-.09-.23-.21-.43-.38-.6-.16-.17-.36-.3-.59-.4-.23-.1-.48-.15-.75-.15-.26,0-.51.05-.73.14-.23.09-.43.22-.6.38-.17.16-.3.36-.4.59-.1.23-.15.47-.15.74,0,.24.05.48.15.71.1.23.23.43.4.61Z"/><rect class="cls-2" x="37.68" y="10.68" width="3.38" height="14.05"/><path class="cls-2" d="m50.11,13.06c.28-.04.54-.06.78-.06.42,0,.78.05,1.11.16.32.11.59.28.81.52.22.24.39.55.5.94.11.39.17.87.17,1.43v8.66h3.38v-9.3c0-.78-.13-1.48-.4-2.09-.27-.62-.64-1.14-1.1-1.56-.46-.43-1.01-.75-1.64-.98-.63-.23-1.31-.34-2.04-.34-.44,0-.87.05-1.27.14-.41.09-.79.21-1.14.36-.35.15-.67.32-.97.51-.29.19-.55.38-.75.57-.02-.11-.04-.24-.06-.37-.02-.13-.05-.26-.08-.39-.03-.13-.06-.24-.08-.35-.03-.11-.05-.19-.08-.25h-3.19c.09.45.14.9.15,1.33.01.44.02.8.02,1.07v11.64h3.38v-10.86c.24-.13.5-.25.79-.35.28-.1.57-.19.86-.27.29-.08.57-.14.85-.18Z"/><path class="cls-2" d="m72.34,22.66c-.19.03-.32.04-.39.04-.19,0-.35-.02-.48-.07-.13-.05-.24-.13-.32-.25-.08-.12-.14-.28-.18-.48-.03-.2-.05-.46-.05-.76v-6.27c0-.76-.16-1.42-.48-1.98-.32-.56-.75-1.02-1.29-1.37-.54-.36-1.15-.62-1.85-.79-.69-.17-1.42-.26-2.17-.26-1.12,0-2.19.19-3.2.57-1.01.38-1.89.9-2.63,1.57l1.78,2.03c.39-.37.75-.68,1.07-.92.32-.24.63-.43.93-.57.3-.14.6-.24.89-.3.29-.06.61-.08.94-.08.39,0,.75.05,1.07.15.32.1.6.25.83.46.23.21.41.48.54.81.13.33.2.72.2,1.18v.51c-.74,0-1.46.03-2.17.09-.71.06-1.39.16-2.02.31-.64.15-1.23.35-1.76.6-.54.26-1,.58-1.39.97-.39.39-.7.86-.92,1.4-.22.54-.33,1.17-.33,1.89,0,.64.1,1.2.29,1.68.19.48.46.88.82,1.21.36.33.78.57,1.29.74.5.16,1.07.25,1.7.25.37,0,.76-.03,1.15-.08.39-.05.79-.14,1.18-.27.39-.13.79-.31,1.18-.53.39-.23.77-.51,1.13-.85.12.56.4.98.84,1.28.44.3.98.45,1.63.45.35,0,.67-.03.96-.08.29-.05.56-.12.81-.2.25-.08.48-.18.7-.29.22-.11.43-.23.64-.36l-.36-1.5c-.17.03-.36.07-.55.09Zm-4.8-1.03c-.29.2-.57.36-.85.49-.28.13-.55.23-.82.31-.27.07-.53.12-.79.15-.26.03-.51.04-.75.04-.27,0-.52-.03-.74-.1-.23-.07-.42-.18-.58-.33s-.28-.36-.37-.61c-.09-.25-.13-.57-.13-.95,0-.45.07-.87.22-1.24.15-.38.41-.71.79-.99.38-.28.89-.51,1.54-.68.65-.17,1.47-.28,2.48-.33v4.24Z"/><path class="cls-2" d="m74.45,11.79c0,.23,0,.46.01.69,0,.23,0,.41,0,.56v11.68h3.41l-.03-9.2c.36-.62.83-1.13,1.41-1.51.58-.38,1.27-.57,2.07-.57.23,0,.47.02.71.07.24.05.5.14.77.27l.73-3.06c-.14-.06-.33-.12-.56-.18-.23-.06-.59-.09-1.07-.09-.38,0-.78.09-1.2.26-.42.17-.82.4-1.2.68-.38.28-.73.61-1.04.97-.31.36-.55.74-.72,1.12-.08-.95-.21-1.89-.39-2.81h-2.99c.02.1.03.26.05.46.01.2.02.42.03.66Z"/><path class="cls-2" d="m97.52,14.94c-.26-.9-.67-1.68-1.23-2.34-.56-.66-1.26-1.19-2.12-1.57-.86-.38-1.88-.57-3.07-.57s-2.22.19-3.1.57c-.88.38-1.61.9-2.19,1.55-.58.65-1.01,1.41-1.3,2.26-.29.86-.43,1.77-.43,2.73,0,1.14.15,2.17.46,3.09.31.92.76,1.71,1.36,2.37.6.66,1.34,1.16,2.22,1.52.88.36,1.89.53,3.04.53,1.05,0,1.99-.19,2.83-.57.84-.38,1.55-.9,2.13-1.56.58-.66,1.03-1.43,1.34-2.31.31-.88.46-1.82.46-2.82s-.13-1.98-.4-2.88Zm-3.38,4.37c-.13.64-.33,1.22-.6,1.73-.27.51-.61.92-1.03,1.24-.42.31-.91.47-1.48.47s-1.11-.15-1.54-.46c-.43-.31-.78-.7-1.05-1.19-.27-.49-.47-1.02-.6-1.61-.13-.59-.19-1.17-.19-1.74,0-.7.07-1.35.21-1.96.14-.6.35-1.12.63-1.56.28-.44.63-.78,1.05-1.03.42-.25.9-.38,1.45-.38.61,0,1.12.12,1.55.36.42.24.77.57,1.04.98.27.41.46.89.58,1.44.12.55.18,1.13.18,1.75,0,.67-.07,1.32-.2,1.96Z"/><path class="cls-7" d="m37.6,26.91h7.6c.68,0,1.23.55,1.23,1.23v7.59c0,.68-.55,1.23-1.23,1.23h-7.6c-.68,0-1.23-.55-1.23-1.23v-7.59c0-.68.55-1.23,1.23-1.23Z"/><path class="cls-7" d="m50.23,26.91h7.6c.68,0,1.23.55,1.23,1.23v7.59c0,.68-.55,1.23-1.23,1.23h-7.59c-.68,0-1.23-.55-1.23-1.23v-7.59c0-.68.55-1.23,1.23-1.23Z"/><path class="cls-7" d="m62.87,26.91h7.59c.68,0,1.23.55,1.23,1.23v7.59c0,.68-.55,1.23-1.23,1.23h-7.6c-.68,0-1.23-.55-1.23-1.23v-7.59c0-.68.55-1.23,1.23-1.23Z"/><path class="cls-7" d="m75.5,26.91h7.59c.68,0,1.23.55,1.23,1.23v7.59c0,.68-.55,1.23-1.23,1.23h-7.59c-.68,0-1.23-.55-1.23-1.23v-7.59c0-.68.55-1.23,1.23-1.23Z"/><path class="cls-7" d="m88.13,26.91h7.6c.68,0,1.23.55,1.23,1.23v7.59c0,.68-.55,1.23-1.23,1.23h-7.59c-.68,0-1.23-.55-1.23-1.23v-7.59c0-.68.55-1.23,1.23-1.23Z"/><path class="cls-7" d="m24.98,26.93h7.61c.68,0,1.23.55,1.23,1.23v7.61c0,.68-.55,1.23-1.23,1.23h-7.61c-.68,0-1.23-.55-1.23-1.23v-7.61c0-.68.55-1.23,1.23-1.23Z"/><path class="cls-5" d="m10.4,26.91h6.38c.57,0,1.04.46,1.04,1.04v6.38c0,.57-.46,1.03-1.03,1.03h-6.38c-.57,0-1.03-.46-1.03-1.03v-6.38c0-.57.46-1.03,1.03-1.03Z"/><rect class="cls-6" x="12.24" y="40.92" width="6.89" height="6.89" rx=".84" ry=".84"/><path class="cls-3" d="m20.1,26.92h2.18c.2,0,.35.16.35.35v2.18c0,.2-.16.35-.35.35h-2.18c-.2,0-.35-.16-.35-.35v-2.18c0-.2.16-.35.35-.35Z"/><path class="cls-4" d="m17.41,31.98h8.99c.81,0,1.46.65,1.46,1.46v8.99c0,.8-.65,1.46-1.46,1.46h-8.99c-.8,0-1.46-.65-1.46-1.46v-8.99c0-.8.65-1.46,1.46-1.46Z"/><rect class="cls-8" x="7.23" y="29.05" width="4.16" height="4.16" rx=".51" ry=".51"/></svg>