<?xml version="1.0" encoding="UTF-8"?>
<svg id="Layer_1" data-name="Layer 1" xmlns="http://www.w3.org/2000/svg" xmlns:xlink="http://www.w3.org/1999/xlink" viewBox="0 0 1257.03 528.56">
  <defs>
    <style>
      .cls-1 {
        fill: url(#linear-gradient);
      }

      .cls-1, .cls-2 {
        stroke-width: 0px;
      }

      .cls-3 {
        fill: none;
        stroke: #fff;
        stroke-miterlimit: 10;
        stroke-width: .97px;
      }

      .cls-2 {
        fill: #fff;
      }
    </style>
    <linearGradient id="linear-gradient" x1="785.6" y1="91.37" x2="940.47" y2="246.24" gradientUnits="userSpaceOnUse">
      <stop offset="0" stop-color="#ffce00"/>
      <stop offset="1" stop-color="#6715e8"/>
    </linearGradient>
  </defs>
  <g>
    <path class="cls-2" d="M924.34,379.87c-1.41-11.33-2.71-22.68-3.51-34.07-.01-.17-.02-.35-.05-.52-.71-9.22-3.02-17.18-6.91-23.66,0,0-.01,0-.01-.01-7.96-12.25-22.2-19.72-39.96-19.77-23.88-.06-41.49,13.84-45.59,34.8-.05.25-.09.5-.14.74-.7,4.14-.89,8.6-.47,13.32.44,4.89,1.43,9.44,3.01,13.61.05.11.09.23.14.35,4.03,10.49,11.73,18.5,23.16,23.24,7.31,3.03,14.47,4.43,21.21,3.6,8.04-.99,15.44-5.18,21.74-13.62.89,2.54,1.57,4.9,2.42,7.1.31.79.65,1.55,1.01,2.3.68,1.37,2.48,3.03,3.82,3.07,7.63.3,15.28.15,23.43.15-1.32-4.16-2.88-7.33-3.29-10.65M894.3,348.32c-.36,10.11-5.43,16.38-14.46,18.13-.01,0-.01.01-.02,0-1.83.44-3.81.67-5.93.68-5.47.05-10-1.44-13.38-4.21-.02-.02-.05-.03-.06-.05-3.19-2.49-5.27-6.08-6.13-10.65-.05-.22-.09-.44-.13-.66-.29-1.55-.45-3.21-.47-4.96-.14-12.79,7.32-20.41,20.07-20.52h1.36c6.94.09,12.26,2.77,15.51,7.53.1.14.21.29.3.44,2.19,3.22,3.38,7.33,3.41,12.15,0,.73-.02,1.43-.07,2.12"/>
    <path class="cls-2" d="M1045.15,301.84c27.77.07,46.94,18.28,46.9,44.54-.05,26.17-19.85,45.3-46.72,45.13-27.78-.18-46.79-18.7-46.68-45.49.11-26.1,19.22-44.25,46.5-44.18M1024.98,346.6c.14,12.88,7.75,20.63,20.15,20.53,12.87-.1,20.55-7.94,20.49-20.92-.06-12.48-7.98-20.22-20.57-20.12-12.75.1-20.21,7.73-20.07,20.51"/>
    <path class="cls-2" d="M815.87,390.24h-26.19c0-13.41.06-26.55-.04-39.69-.03-3.59-.21-7.25-.93-10.76-2.03-9.84-8.84-14.37-19.91-13.63-8.71.58-15.37,6.82-15.81,15.87-.51,10.49-.25,21.02-.31,31.54-.03,5.33,0,10.66,0,16.47h-26.7c0-2.92-.03-5.9,0-8.87.15-13.19-.1-26.39.56-39.55,1.12-22.13,18.34-38.59,40.5-39.69,16-.79,29.93,3.37,40.03,16.46,5.35,6.94,8.46,15.12,8.69,23.83.42,15.83.12,31.67.12,48.03"/>
    <rect class="cls-2" x="637.08" y="267.82" width="25.77" height="122.45"/>
    <path class="cls-2" d="M939.48,390.19c0-18.04-1.44-35.9.39-53.41,2-19.2,18.9-32.74,39.35-34.61,4.72-.43,9.51-.06,14.77-.06v24.81c-4.93.41-9.71.4-14.31,1.27-8.73,1.66-13.67,6.57-14.17,15.47-.72,12.95-.44,25.96-.58,38.95-.03,2.43,0,4.86,0,7.59h-25.44Z"/>
    <rect class="cls-2" x="681.58" y="303.05" width="25.41" height="87.22"/>
    <path class="cls-2" d="M678.99,278.63c.04-8.95,6.01-14.73,15.29-14.79,9.02-.06,15,5.93,14.97,14.99-.03,9.21-5.85,15.17-14.87,15.23-9.16.06-15.44-6.23-15.4-15.42"/>
    <path class="cls-2" d="M1100.05,301.96h16.67v2.63h-6.73v15.86h-3.21v-15.86h-6.73v-2.63ZM1137.97,320.45l-.04-12.97-6.95,10.78h-1.47l-7-10.56v12.75h-3.07v-18.49h2.63l8.24,12.66,8.07-12.66h2.63l.04,18.49h-3.07Z"/>
    <path class="cls-1" d="M990.55,168.54c.67-46.02-47.71-78.74-89.28-57.73-12.33,5.67-24.39,16.9-38.26,16.95-9.98.1-19.4-6.32-28.02-11.54-8.45-5.24-17.51-9.51-27.37-11.02-38.13-6.53-72.93,25.33-72.4,63.61-.51,38.39,34.42,70.27,72.65,63.57,9.86-1.55,18.9-5.87,27.34-11.11,8.61-5.22,18.03-11.59,28.01-11.41,13.8.17,25.76,11.29,38.05,16.95,41.72,21.08,90.13-11.91,89.27-57.99v-.27ZM958.81,172.34c-1.09,13.99-11.28,27.76-25.79,28.98-24.15,1.51-40.05-24.02-63.37-27.1-24.77-4.69-42.24,17.33-62.8,25.19-15.33,6.03-31.53-1.87-37.24-17.2-6.46-15.7-.35-36.99,15.86-43.86,35.73-13.36,54.31,44.98,101.29,18.86,14.12-7.62,26.31-20.06,42.43-20.94,18.87-1.12,31.66,18.24,29.64,35.82l-.02.26Z"/>
  </g>
  <g>
    <path class="cls-2" d="M175.27,270.81c10.03,0,14.32,7.33,14.32,14.58s-4.29,14.58-14.32,14.58h-10.36v16.3h-8.05v-45.47h18.41ZM174.87,292.72c4.75,0,6.67-3.63,6.67-7.33s-1.85-7.39-6.47-7.39h-10.16v14.72h9.96Z"/>
    <path class="cls-2" d="M192.89,300.84c0-9.77,7.59-16.17,16.37-16.17s16.43,6.4,16.43,16.17-7.66,16.23-16.43,16.23-16.37-6.47-16.37-16.23ZM217.97,300.84c0-5.28-3.96-9.04-8.71-9.04s-8.65,3.76-8.65,9.04,3.89,9.11,8.65,9.11,8.71-3.7,8.71-9.11Z"/>
    <path class="cls-2" d="M269.52,285.46h8.25l-11.09,30.82h-6.47l-7.19-21.05-6.86,21.05h-6.4l-11.42-30.82h8.25l6.53,19.86,6.53-19.86h6.8l6.53,19.86,6.53-19.86Z"/>
    <path class="cls-2" d="M312.42,303.54h-23.89c.86,4.29,4.16,6.6,8.78,6.6,3.3,0,6.53-1.45,8.31-3.96l5.15,3.89c-2.84,4.49-8.32,7-13.92,7-9.17,0-16.17-6.6-16.17-16.23s7.33-16.17,16.17-16.17,15.71,6.27,15.71,15.9c0,.86-.07,1.85-.13,2.97ZM304.96,298.2c-.46-4.22-3.76-6.73-8.05-6.73s-7.46,2.05-8.38,6.73h16.43Z"/>
    <path class="cls-2" d="M341.13,285.72l-1.52,7.26c-1.78-.92-3.37-1.12-4.49-1.12-5.02,0-7.79,5.02-7.79,13.66v10.76h-7.72v-30.82h7.66v6.6c1.65-5.15,5.02-7.39,8.84-7.39,1.85,0,3.83.4,5.02,1.06Z"/>
    <path class="cls-2" d="M375.12,303.54h-23.89c.86,4.29,4.16,6.6,8.78,6.6,3.3,0,6.53-1.45,8.31-3.96l5.15,3.89c-2.84,4.49-8.32,7-13.92,7-9.17,0-16.17-6.6-16.17-16.23s7.33-16.17,16.17-16.17,15.71,6.27,15.71,15.9c0,.86-.07,1.85-.13,2.97ZM367.66,298.2c-.46-4.22-3.76-6.73-8.05-6.73s-7.46,2.05-8.38,6.73h16.43Z"/>
    <path class="cls-2" d="M405.87,268.7h7.66v47.58h-7.66v-4.09c-2.11,3.23-6.47,4.88-10.23,4.88-8.12,0-15.18-6.4-15.18-16.23s7-16.17,15.11-16.17c3.89,0,8.18,1.58,10.3,4.82v-20.79ZM405.74,300.77c0-5.41-4.49-8.97-8.91-8.97-4.75,0-8.65,3.83-8.65,8.97s3.89,9.17,8.65,9.17,8.91-3.76,8.91-9.17Z"/>
    <path class="cls-2" d="M471.8,300.84c0,9.83-7.06,16.23-15.18,16.23-3.7,0-8.12-1.65-10.23-4.95v4.16h-7.66v-47.58h7.66v20.85c2.11-3.3,6.4-4.88,10.29-4.88,8.12,0,15.11,6.27,15.11,16.17ZM464.15,300.77c0-5.15-3.96-8.97-8.71-8.97-4.42,0-8.91,3.56-8.91,8.97s4.22,9.17,8.91,9.17,8.71-4.03,8.71-9.17Z"/>
    <path class="cls-2" d="M498.6,285.46h8.25l-19.14,45.87h-8.05l6.93-17.22-12.27-28.64h8.38l7.99,19.53,7.92-19.53Z"/>
  </g>
  <rect class="cls-3" x="25.98" y="22" width="1205.08" height="484.55" rx="34.13" ry="34.13"/>
</svg>